<?xml version="1.0" encoding="UTF-8"?>
<svg xmlns="http://www.w3.org/2000/svg" viewBox="0 0 2442.9 1862.82">
  <defs>
    <style>
      .cls-1 {
        fill: #b20b1f;
      }

      .cls-2, .cls-3, .cls-4, .cls-5, .cls-6, .cls-7 {
        fill: #fff;
      }

      .cls-8 {
        fill: #c8eef1;
      }

      .cls-3 {
        opacity: .9;
      }

      .cls-9 {
        fill: #122f5b;
      }

      .cls-10 {
        fill: #74bdc1;
      }

      .cls-11 {
        isolation: isolate;
      }

      .cls-12 {
        fill: #9de0de;
      }

      .cls-4, .cls-7 {
        opacity: .5;
      }

      .cls-13 {
        opacity: .3;
      }

      .cls-13, .cls-14 {
        mix-blend-mode: multiply;
      }

      .cls-13, .cls-15 {
        fill: #f99893;
      }

      .cls-5 {
        opacity: .8;
      }

      .cls-16 {
        fill: #18196b;
      }

      .cls-17 {
        fill: #333;
      }

      .cls-18 {
        fill: #224887;
      }

      .cls-14 {
        fill: #b6d5e0;
      }

      .cls-19 {
        fill: #8fd0d6;
      }

      .cls-20 {
        fill: #082948;
      }

      .cls-21 {
        fill: #e03268;
      }

      .cls-22 {
        fill: #ffc0bb;
      }

      .cls-23 {
        fill: #daeef7;
      }

      .cls-24 {
        fill: #eaf5f9;
      }

      .cls-25 {
        fill: #1b4b79;
      }

      .cls-26 {
        fill: #3660ac;
      }

      .cls-6 {
        mix-blend-mode: lighten;
        opacity: .2;
      }

      .cls-27 {
        fill: #e72c3b;
      }

      .cls-28 {
        fill: #e2fafa;
      }

      .cls-29 {
        fill: #9cdedc;
      }

      .cls-30 {
        fill: #55769f;
      }

      .cls-31 {
        fill: #feb546;
      }

      .cls-32 {
        fill: #cfe4ff;
      }

      .cls-7 {
        mix-blend-mode: screen;
      }

      .cls-33 {
        fill: #fc8d84;
        opacity: .6;
      }

      .cls-34 {
        fill: #f3fcff;
      }

      .cls-35 {
        fill: #fbf9eb;
      }

      .cls-36 {
        fill: #f4a640;
      }
    </style>
  </defs>
  <g class="cls-11">
    <g id="Layer_1" data-name="Layer 1">
      <g>
        <path class="cls-28" d="m2414.96,1520.42c-25.05-192.18,70.36-394.63,4.05-576.74-21.06-57.83-57.16-108.75-86.58-162.81-44.41-81.62-73.84-171.36-86.38-263.43-8.21-60.23-9.28-121.57-22.95-180.8-37.92-164.32-179.94-299.62-345.9-329.52-133.75-24.1-271.68,15.91-393.28,76.6-121.6,60.69-231.87,141.72-350.65,207.76-126.41,70.29-262.35,123.4-402.93,157.42-52.09,12.61-105.53,22.86-153.26,47.23-118.56,60.52-178.48,193.99-221.07,320.11-42.59,126.11-81.01,261.91-179.55,351.39-26.41,23.99-56.52,43.91-81,69.86-80.59,85.41-84.21,222.74-37.34,330.41,42.68,98.03,142.74,230.16,240.79,279.72,3.5,1.77,7.08,3.42,10.71,4.97h277.78c52.52-9.67,102.76-20.16,145.04-24.26,165.3-16.05,331.8-1.04,497.6,8.58,337.37,19.59,675.6,16.84,1013.53,14.09,49.45-.4,102.82-2.09,141.96-32.32,41.72-32.22,56.21-89.53,54.11-142.2-2.1-52.67-17.85-103.8-24.66-156.08Z"/>
        <path class="cls-29" d="m2193.48,1212.27h0c-15.95,2.01-40.25,34.48-43.11,37.75-1.61,1.84-3.28,3.75-5.01,5.81l10.58,13.1-17.49-4.29c-29.32,39.85-41.51,91.53-32.66,140.32,1.14,6.32,2.53,12.12,3.88,17.73,2.13,8.9,4.14,17.31,3.82,23.05-.59,10.65-9.89,24.41-19.72,38.98-14.07,20.83-31.57,46.74-34,79.86-1.8,24.52,5.32,46.31,11.04,63.81,3.9,11.95,7.59,23.24,7.13,31.23-.51,8.77-6.42,20.36-12.69,32.63-4.24,8.32-9.05,17.74-13.01,27.89-15.91,40.79-15.35,87.35,1.55,127.75l77.8-32.54c-8.41-20.12-8.71-44.25-.78-64.56,2.43-6.22,5.89-13.01,9.56-20.21,9.01-17.66,20.22-39.63,21.76-66.07,1.39-23.91-5.28-44.31-11.16-62.31-3.95-12.09-7.68-23.5-7.09-31.46.79-10.7,10.01-24.37,19.78-38.83,12.64-18.71,28-41.47,32.73-69.84-15.24,6.38-41.23,17.46-44.79,20.24-3.8,2.97,29.3-24.23,46.24-38.15-.06-15.55-3.4-29.57-6.16-41.1-1.12-4.7-2.19-9.13-2.91-13.14-4.99-27.54,3.02-58.01,20.92-79.54,1.23-1.47,2.64-3.08,4.13-4.79,6.61-7.54,14.83-16.92,20.79-29.86,1.53-3.31,2.8-6.63,3.86-9.94,9.2-28.78-14.99-57.3-44.97-53.53Z"/>
        <path class="cls-10" d="m2345.8,1342.02h0c-13.42-3.05-42.47,15.99-45.74,17.78-2.03,1.12-4.13,2.27-6.35,3.57-13.87,8.11-26.33,18.41-36.99,30.31l13.08,32.18-20.83-22.84c-15.29,19.96-25.85,43.52-30.11,68.45-.93,5.42-1.5,10.5-2.06,15.4-.89,7.79-1.73,15.14-3.66,19.67-3.59,8.4-15.09,16.76-27.27,25.61-17.41,12.65-39.08,28.4-50.71,54.34-8.62,19.21-9.26,38.83-9.77,54.59-.35,10.76-.68,20.93-3.39,27.22-2.97,6.91-11.12,14.51-19.75,22.56-5.85,5.45-12.47,11.64-18.63,18.65-24.73,28.18-37.89,65.82-36.1,103.28l72.13-3.45c-.89-18.65,5.93-38.16,18.25-52.2,3.77-4.3,8.55-8.75,13.6-13.47,12.41-11.58,27.86-25.99,36.83-46.82,8.11-18.84,8.71-37.21,9.24-53.41.36-10.88.69-21.16,3.49-27.39,3.76-8.39,15.18-16.69,27.27-25.47,17.73-12.89,39.8-28.92,51.22-55.64.72-1.67,1.37-3.35,1.96-5.02h-31.55l35.38-13.52c1.66-7.66,2.49-14.94,3.22-21.34.47-4.11.91-7.99,1.5-11.43,4.03-23.62,19.39-45.81,40.09-57.9,1.42-.83,3.02-1.71,4.72-2.65,7.52-4.14,16.88-9.29,25.47-17.96,2.2-2.22,4.19-4.52,6.01-6.87.65-.83,1.23-1.69,1.78-2.55l-26.52-6.81,31.87-8.45c1.71-16.97-9.19-34.22-27.68-38.42Z"/>
        <path class="cls-19" d="m2381.16,1514.23h0c-9.63-4.38-34.45,5.42-37.19,6.26-1.7.52-3.46,1.07-5.33,1.7-33.08,11.14-60.42,37.2-73.14,69.7-1.54,3.93-2.76,7.67-3.95,11.27-1.88,5.72-3.65,11.13-5.82,14.23-4.01,5.76-13.97,10.26-24.51,15.03-15.07,6.81-33.82,15.29-46.62,33-9.48,13.12-13.01,27.78-15.85,39.56-1.94,8.04-3.77,15.64-6.79,19.96-3.31,4.74-10.63,9.19-18.38,13.9-5.25,3.19-11.2,6.81-16.92,11.13-23,17.36-38.76,43.64-43.24,72.1l54.82,8.63c2.23-14.17,10.4-27.8,21.85-36.44,3.51-2.65,7.79-5.26,12.33-8.02,11.14-6.78,25.01-15.22,35-29.5,9.03-12.92,12.34-26.64,15.26-38.76,1.96-8.13,3.81-15.82,6.89-20.07,4.14-5.73,14.02-10.19,24.49-14.92,15.35-6.94,34.45-15.57,47.21-33.9,3.03-4.35,5.39-8.84,7.32-13.23l-19.21-7.39,23.91-5.06c.33-1,.66-1.98.97-2.93.99-3.02,1.93-5.87,2.91-8.37,6.71-17.15,21.72-31.46,39.18-37.34,1.2-.4,2.54-.82,3.97-1.26,6.3-1.94,14.15-4.36,21.96-9.55,2-1.33,3.86-2.75,5.59-4.23,15.09-12.95,11.39-37.28-6.71-45.51Z"/>
        <path class="cls-4" d="m1280.3,671.79c-7.98-12.84-20.18-22.44-32.57-31.1-63.77-44.61-139.77-71.54-217.4-77.04-18.28-1.3-40.85-4.31-47.04-21.56-5.69-15.84,7.82-32.6,23.05-39.75s32.71-8.71,47.6-16.56c14.89-7.84,26.91-26.28,19.09-41.19-4.69-8.95-14.82-13.44-24.36-16.78-60.13-21.05-123.57-22-187.55-16.52-43.04,14.38-86.69,26.93-130.8,37.61-52.09,12.61-105.53,22.86-153.26,47.23-4.25,2.17-8.41,4.44-12.51,6.79,39.13,8.43,78.66,15.03,118.42,19.73,16.62,1.96,36.59,6.07,42.15,21.85,4.76,13.49-4.11,28.8.07,42.48,5.57,18.21,29.11,22.24,48.14,22.97,19.02.73,42.55,4.66,48.25,22.83,2.53,8.08.43,17.05-3.77,24.41-10.91,19.11-33.99,28-55.89,30.13-21.9,2.14-44.05-1-65.97.99-51.61,4.7-101.83,37.51-151.86,23.99-22.31-6.03-41.14-20.69-62.07-30.48-20.14-9.43-41.54-14.13-63.54-16.1-13.77,25.93-25.93,53.03-36.9,80.5,44.71-1.1,92.23-1.4,130.28,22.07,11.09,6.84,20.99,15.52,32.25,22.08,14.54,8.47,31.08,13.2,47.82,14.9,65.68,6.65,126.39-31.88,190.04-49.44,88.03-24.28,182.2-7.94,269.71,18.16,35,10.44,69.95,22.5,106.36,25.41,36.41,2.91,75.35-4.48,102.67-28.73,27.32-24.25,38.88-67.87,19.59-98.89Z"/>
        <path class="cls-10" d="m1855.57,1789.81s-144.3-123.95-299.71-37c0,0,0-157.25-114.7-173.91-114.7-16.65-216.46,74-190.56,172.06,0,0-238.66-46.25-283.06,66.6l888.03,7.4v-35.15Z"/>
        <path class="cls-12" d="m2249.97,1846.46c-89.69-170.79-254.34-93.38-254.34-93.38,0,0-28.26-157.27-238.37-111.81,0,0-88.47,25.8-100.75,133.93,0,0-122.87-44.23-146.21,77.41l739.67-6.14Z"/>
        <path class="cls-17" d="m713.92,747.5s-18.43,10.42-23.96,25.16c-4.73,12.58-25.8,10.38-38.98,27.2-14.63,18.68-35.44,46.61,12.28,65.45,29.65,11.7,76.85,20.71,87.56,12.81,10.7-7.9,36.22-4.74,30.48-87.73,0,0-69.79-29.13-70.49-29.3-.7-.18,3.11-13.58,3.11-13.58Z"/>
        <path class="cls-17" d="m781.35,782.88c0,23.71-19.22,42.93-42.93,42.93s-42.93-19.22-42.93-42.93,19.22-42.93,42.93-42.93,42.93,19.22,42.93,42.93Z"/>
        <path class="cls-22" d="m896.44,912.6l-3.13,1.47c-13.34,3.2-89.42,21.33-92.93,19.01-3.85-2.54-21.04-38.03-21.04-38.03l-19.53,31.79s17.64,33.42,29.12,38.7c11.2,5.16,90.07-23.48,112.29-36.98l2.25-1c2.16.46,7.83,1.26,7.83,1.26,22.67,2.57,20.34,2.71,20.52,1.82.18-.88-8.98-4.83-8.44-5.69.54-.85,13.87.05,13.23-1.08-.63-1.12-12.92-3.58-12.68-4.37.23-.79,13.1.29,13.05-1.6-.04-1.88-14.15-2.54-13.62-4.03.52-1.48,14.97-.41,14.68-2.13-.25-1.45-16.4-3.08-21.54-3.56-.66-.06-1.03-.91-.64-1.47,5.93-8.76,5.9-9.84,4.84-10.37-.76-.38-8.21,5.25-15.47,10.08l-8.78,6.19Z"/>
        <g>
          <rect class="cls-21" x="501.71" y="1061.89" width="558.65" height="781.52" rx="36.49" ry="36.49"/>
          <rect class="cls-34" x="542.84" y="1099.23" width="476.38" height="666.43"/>
          <path class="cls-32" d="m691.03,1037.66h159.72c27.1,0,49.11,22,49.11,49.11v29.63h-257.94v-29.63c0-27.1,22-49.11,49.11-49.11Z"/>
          <rect class="cls-32" x="577.71" y="1175.95" width="250.57" height="18.6"/>
          <rect class="cls-32" x="577.71" y="1244.22" width="250.57" height="18.6"/>
          <rect class="cls-32" x="577.71" y="1312.5" width="250.57" height="18.6"/>
          <rect class="cls-32" x="577.71" y="1380.78" width="250.57" height="18.6"/>
          <rect class="cls-32" x="577.71" y="1449.06" width="250.57" height="18.6"/>
          <rect class="cls-32" x="577.71" y="1517.34" width="250.57" height="18.6"/>
          <rect class="cls-32" x="577.71" y="1585.62" width="250.57" height="18.6"/>
          <rect class="cls-32" x="577.71" y="1653.9" width="250.57" height="18.6"/>
          <rect class="cls-32" x="884.83" y="1175.95" width="142.13" height="136.4"/>
          <rect class="cls-32" x="884.83" y="1356.02" width="142.13" height="136.4"/>
          <rect class="cls-32" x="884.83" y="1536.1" width="142.13" height="136.4"/>
        </g>
        <polygon class="cls-22" points="865.56 1206.02 864.45 1232.92 841.09 1223.93 844.2 1204.58 865.56 1206.02"/>
        <g>
          <path class="cls-9" d="m884.96,1266.19l-54.23-18.04c-1.68-.56-2.58-2.37-2.02-4.04h0c.56-1.68,2.37-2.58,4.04-2.02l54.23,18.04c1.68.56,2.58,2.37,2.02,4.04h0c-.56,1.68-2.37,2.58-4.04,2.02Z"/>
          <path class="cls-30" d="m838.61,1223.55l-7.61,16.21c-.94,2-.4,4.28,1.13,4.78l53.14,17.68c1.38.46,3.03.05,4.3-1.33,1.3-1.41,2.28-3.87,1.02-8.02-2.49-8.22-17.29-15.01-23.16-23.18-.12-.17-.28-.29-.48-.36l-24.45-8.14c-1.38-.46-3.02.53-3.87,2.34Z"/>
          <path class="cls-2" d="m860.21,1238h0c-.31-.36-.23-1.06.16-1.48,1.81-1.96,6.95-6.51,13.2-3.15.36.19.45.79.21,1.29v.02c-.24.49-.7.71-1.05.52-5.61-2.99-10.03,1.05-11.52,2.7-.32.35-.74.39-1,.09Z"/>
          <path class="cls-2" d="m865.01,1242.01h0c-.31-.36-.23-1.06.16-1.48,1.81-1.96,6.95-6.51,13.2-3.15.36.19.45.79.21,1.29v.02c-.24.49-.7.71-1.05.52-5.61-2.99-10.03,1.05-11.52,2.7-.32.35-.74.39-1,.09Z"/>
          <path class="cls-2" d="m869.47,1245.74h0c-.31-.36-.23-1.06.16-1.48,1.81-1.96,6.95-6.51,13.2-3.15.36.19.45.79.21,1.29v.02c-.24.49-.7.71-1.05.52-5.61-2.99-10.03,1.05-11.52,2.7-.32.35-.74.39-1,.09Z"/>
        </g>
        <path class="cls-9" d="m688.35,1017.96s-10.9,51.3,38.56,63.49c49.47,12.18,111.89,13.42,111.89,13.42l1.15,119.5,26.04,2.98s77.7-161.04-13.77-192.75l-83.69-4.87-34.3-4.64s-34.32-10.81-34.83-9.2c-.51,1.61-10.29,12.94-11.06,12.07Z"/>
        <path class="cls-22" d="m746.59,848.63s-30.5-6.83-46.32-6.29c-15.82.53,5.68,42.17,5.68,42.17l25.84.57s15.76-10.5,18.06-10.36c8.71.52,1.92-24.54,1.92-24.54l-5.18-1.54Z"/>
        <path class="cls-22" d="m715.91,815.8l-9.08,27.54s7.9,16.34,32.1,9.29c0,0-2.76-5.7.94-17.45,3.78-12-23.96-19.38-23.96-19.38Z"/>
        <path class="cls-33" d="m715.91,815.8l-4.26,12.87c2.54,9.4,10.77,15.81,26.3,17.8,0-2.8.43-6.54,1.92-11.28,3.78-12-23.96-19.38-23.96-19.38Z"/>
        <path class="cls-15" d="m771.27,795.64c-1.96,4.47-.65,9.37,2.92,10.94,3.58,1.57,8.07-.78,10.03-5.25,1.96-4.47.65-9.37-2.92-10.94-3.58-1.57-8.07.78-10.03,5.25Z"/>
        <path class="cls-22" d="m769.27,822.06c1.18-1.92,2.19-3.96,3-6.11,2.32-5.76,3.58-11.91,4.24-17.28.14-1.15.35-2.29.58-3.43.93-4.6,1.05-9.5.1-14.56-3.06-16.3-16.72-28.88-33.22-30.54-22.23-2.24-41.1,14.84-41.68,36.58-2.33-1.38-4.97-1.75-7.34-.77-4.54,1.88-6.31,8.01-3.95,13.68,2.35,5.67,7.94,8.74,12.48,6.86.63-.26,1.2-.61,1.72-1.02,1.39,18.54,16.17,33.23,34.35,33.41,8.89.09,17.04-3.31,23.25-8.96.41-.33.85-.71,1.31-1.16,2.02-1.97,3.72-4.24,5.16-6.67Z"/>
        <path class="cls-15" d="m760.63,788.77c-.72,2.05-1.09,4.19-1.21,6.37-.06,1.09-.03,2.19.12,3.32.17,1.12.43,2.28,1.14,3.39l.31.4.28.35c.12.16.29.3.37.48.22.32.36.68.41,1.04.15.73-.19,1.52-.72,2.23-1.15,1.43-3.16,2.21-5.25,2.64,2.09.41,4.57.15,6.42-1.54.9-.82,1.6-2.11,1.5-3.52-.02-.35-.08-.69-.2-1.01-.09-.34-.26-.63-.43-.92-.16-.31-.39-.52-.59-.79-.13-.15-.15-.19-.21-.28l-.17-.23c-.45-.67-.72-1.62-.94-2.58-.24-.96-.3-1.99-.43-3.02-.18-2.07-.26-4.18-.39-6.34Z"/>
        <polygon class="cls-22" points="822.22 1202.79 810.2 1237.25 792.5 1219.55 798.89 1203.23 822.22 1202.79"/>
        <path class="cls-17" d="m747.85,793.15c-.02,1.82-1.51,3.28-3.33,3.27-1.82-.02-3.28-1.51-3.27-3.33.02-1.82,1.51-3.28,3.33-3.27,1.82.02,3.28,1.51,3.27,3.33Z"/>
        <path class="cls-17" d="m772.34,793.76c-.02,1.82-1.51,3.28-3.33,3.27-1.82-.02-3.28-1.51-3.27-3.33.02-1.82,1.51-3.28,3.33-3.26,1.82.02,3.28,1.51,3.27,3.33Z"/>
        <path class="cls-13" d="m747.36,815.07s4.49-1.61,8.71,1.16c0,0,4.56-2.86,8.16-.13,0,0-1.67,6.8-9.17,6.34-7.5-.46-7.7-7.37-7.7-7.37Z"/>
        <path class="cls-15" d="m743.43,812.64c.85.69,1.73,1.32,2.66,1.87.92.57,1.87,1.08,2.85,1.51,1.96.86,4.03,1.47,6.15,1.65,2.12.19,4.25-.07,6.3-.7,2.04-.65,3.96-1.67,5.78-2.88-.81.73-1.68,1.41-2.61,2-.93.6-1.93,1.06-2.96,1.48-1.04.39-2.12.67-3.23.83-1.11.14-2.23.17-3.35.09-2.23-.21-4.4-.87-6.36-1.9-1.96-1.02-3.77-2.33-5.24-3.96Z"/>
        <path class="cls-17" d="m749.07,783.29c-1.7-.46-3.29-.79-4.86-.98-1.57-.18-3.1-.17-4.58.07-1.47.25-2.95.63-4.36,1.33-.75.26-1.4.74-2.16,1.09-.73.4-1.4.89-2.22,1.29.39-.78.84-1.55,1.38-2.25.6-.64,1.17-1.37,1.93-1.87,1.41-1.16,3.21-1.86,5.04-2.15,1.84-.29,3.74-.09,5.44.52,1.69.62,3.26,1.59,4.39,2.96Z"/>
        <path class="cls-17" d="m764.13,783.3c1.29-1.23,2.96-1.99,4.72-2.4,1.76-.4,3.67-.37,5.47.15,1.78.52,3.48,1.43,4.74,2.75.69.59,1.17,1.38,1.69,2.09.45.77-1.23.04-.94.86-.76-.49.67.48,0,0-.71-.44-1.29-.99-2.01-1.34-1.31-.87-2.73-1.42-4.17-1.85-1.44-.42-2.96-.62-4.54-.62-1.58,0-3.21.13-4.95.38Z"/>
        <path class="cls-26" d="m765.13,926.32s-6.72,19.64-7.94,30.07c-3.03,25.9,2.58,48.14,7.94,62.88,7.52,20.68-56.21,9.19-57.46,8.57-1.25-.63-53.89-20.99-53.89-20.99l-3.97-40.59-6.06-39.93,2.82-23.5,118.56,23.5Z"/>
        <path class="cls-22" d="m664.18,869.23s8.16.71,7.27,14.89c-.89,14.18-7.51,41.19-7.51,41.19,0,0-64.32,123.61-78.42,135.64-.76.65-1.73,1.01-2.73,1.05l-43.34-.17s2.78-2.78,5.77-3.57l20.2-5.36c.8-.21,1.47-.74,1.87-1.46l6.47-11.81,48.78-130.11c4.98-11.59,16.81-18.22,24.95-27.86,5.94-7.05,12.43-13.11,16.69-12.41Z"/>
        <path class="cls-26" d="m751.77,850.18c-.6,12.33-17.86,32.87-17.86,32.87-3.13-6.87-33.26-40.29-33.64-40.71-12.41.19-38.75,2.03-54.84,13.46-21.62,15.35-34.56,49.84-34.56,49.84,0,0,39.17,19.74,48.88,20.68h108.72s16.61-1.25,32.59-9.4c0,0-2.57-51.09-49.27-66.74Z"/>
        <path class="cls-23" d="m677.15,885.09c-1.12,3.35-2.11,6.74-3.11,10.12-1.01,3.39-1.92,6.8-2.82,10.21-.86,3.43-1.73,6.85-2.48,10.31-.74,3.46-1.47,6.93-2.03,10.43l.83-.83c-1.07.11-2.38.07-3.59-.02-1.23-.08-2.47-.26-3.71-.44-2.46-.44-4.93-.91-7.36-1.59l-1.83-.48-1.81-.55c-1.2-.38-2.42-.72-3.61-1.15l-3.58-1.24-3.54-1.37c-2.37-.89-4.68-1.93-7.03-2.9l-6.93-3.16-6.87-3.32c-2.26-1.17-4.53-2.33-6.81-3.46,2.15,1.36,4.33,2.69,6.51,4.02,2.2,1.29,4.42,2.55,6.66,3.79,2.25,1.2,4.53,2.36,6.82,3.5l3.48,1.61c1.16.54,2.32,1.09,3.51,1.55,4.7,2.03,9.55,3.75,14.52,5.12l1.87.5,1.89.43c1.25.31,2.54.51,3.81.73,1.29.18,2.57.36,3.88.43,1.33.08,2.57.14,4.04-.02l.71-.08.11-.75c1.06-6.93,2.46-13.83,3.93-20.72l2.24-10.33,2.3-10.33Z"/>
        <path class="cls-23" d="m759.81,877.15c1.53,4.01,2.93,8.04,4.17,12.09,1.22,4.06,2.3,8.16,3.02,12.31.4,2.07.66,4.16.84,6.25.21,2.09.23,4.19.16,6.28-.16,4.19-6.36,23.88-8.18,27.78,2.58-3.46,9.33-23.32,9.78-27.65.52-4.35.17-8.74-.57-13.01-.41-2.13-.88-4.25-1.47-6.33-.62-2.07-1.27-4.13-2.06-6.14-1.55-4.02-3.38-7.94-5.68-11.58Z"/>
        <path class="cls-18" d="m652.01,1005.37c-10.51,13.8-12.72,32.45-5.05,48.01,5.33,10.8,15.39,20.87,33.94,25.44,49.47,12.18,111.89,13.42,111.89,13.42l1.15,119.51,26.04,2.98s77.7-161.04-13.77-192.76l-83.69-4.87-34.3-4.64s-34.32-10.81-34.83-9.2c-.11.34-.63,1.11-1.39,2.11Z"/>
        <path class="cls-23" d="m806.71,1095.43c-1.33-.24-2.65-.47-3.96-.77-1.31-.3-2.6-.66-3.88-1.04-.64-.2-1.29-.42-1.92-.65.66-.14,1.31-.33,1.95-.56,1.27-.45,2.45-1.09,3.56-1.82,1.07-.79,2.09-1.64,2.97-2.62.89-.97,1.66-2.04,2.33-3.15l-1.32,1.43c-.47.44-.91.91-1.4,1.32-.94.87-1.99,1.61-3.06,2.27-1.08.66-2.23,1.19-3.42,1.6-1.17.4-2.45.69-3.62.73l-2.15.08,1.91.89c1.3.6,2.59,1,3.91,1.37,1.32.37,2.66.63,4,.86,1.35.22,2.69.41,4.05.51,1.36.1,2.71.17,4.07.16-1.34-.2-2.68-.36-4.01-.6Z"/>
        <path class="cls-5" d="m2130.47,305.64c-4.58-19.94-22.43-34.82-43.76-34.82-3.92,0-7.71.5-11.33,1.45-10.53-22.52-33.38-38.12-59.87-38.12-6.85,0-13.46,1.04-19.67,2.98-14.26-23.62-40.18-39.41-69.78-39.41-35.22,0-65.22,22.35-76.59,53.65-8.05-4.49-17.31-7.05-27.18-7.05-30.87,0-55.9,25.03-55.9,55.9,0,1.83.09,3.64.27,5.42h363.82Z"/>
        <g>
          <path class="cls-2" d="m1875.3,515.54c-.43-33.34-24.13-61.83-56.84-68.3l-59.05-11.69c-9.33-1.85-17.69-6.98-23.56-14.46l-22.85-29.11c-6.26-7.97-15.83-12.63-25.96-12.63h-155.57c-10.13,0-19.71,4.66-25.96,12.63l-22.84,29.11c-5.87,7.48-14.23,12.61-23.56,14.46l-59.05,11.69c-32.71,6.47-56.42,34.96-56.84,68.3l-6.91,542.24c-.29,22.78,9.66,44.49,27.12,59.12,34.04,28.52,101.74,68.22,214.44,67.65v33.65c0,19.67,15.94,35.61,35.61,35.61h0c19.67,0,35.61-15.94,35.61-35.61v-33.69c107.65-1.4,172.82-39.82,206-67.62,17.46-14.63,27.41-36.34,27.12-59.12l-6.91-542.24Zm-266.04-101.92c15.94,0,28.86,12.92,28.86,28.86s-12.92,28.86-28.86,28.86-28.86-12.92-28.86-28.86,12.92-28.86,28.86-28.86Z"/>
          <path class="cls-23" d="m1398.59,569.71c-13.32,1.81-23.29,12.99-23.46,26.32l-5.53,430.06c-.26,19.84,8.48,38.73,23.81,51.47,30.81,25.59,93.01,61.54,197.52,58.76,12.21-.32,24.43-.32,36.64,0,104.51,2.77,166.71-33.17,197.52-58.76,15.33-12.74,24.07-31.64,23.81-51.47l-5.57-433.81c-.17-13.44-10.32-24.7-23.77-26.36-172.77-21.36-327.9-8.84-420.97,3.8Z"/>
          <path class="cls-27" d="m1823.63,735.59l-213.94,31.94-214.4-53.81-.14-.21-3.73,292.5c-.23,18.18,7.71,35.5,21.65,47.18,28,23.46,84.54,56.4,179.53,53.86,11.1-.3,22.2-.3,33.3,0,94.99,2.54,151.53-30.4,179.53-53.86,13.94-11.67,21.88-29,21.65-47.18l-3.45-270.43h0Z"/>
          <path class="cls-1" d="m1395.29,713.73s182.67,53.17,290.96-7.83c108.29-61,203.54,25.45,78.68,90.27-128.22,66.56-369.64-82.43-369.64-82.43Z"/>
          <rect class="cls-2" x="1411.13" y="661.45" width="161.01" height="161.01" rx="10.7" ry="10.7"/>
          <path class="cls-7" d="m1772.78,595.39h13.94c12.19,0,22.09,9.9,22.09,22.09v393.27c0,12.19-9.9,22.09-22.09,22.09h-13.94c-12.19,0-22.09-9.9-22.09-22.09v-393.27c0-12.19,9.9-22.09,22.09-22.09Z"/>
          <rect class="cls-14" x="1429" y="691.59" width="123.88" height="7.43"/>
          <rect class="cls-14" x="1429" y="717.92" width="123.88" height="7.43"/>
          <rect class="cls-14" x="1429" y="744.24" width="123.88" height="7.43"/>
          <rect class="cls-14" x="1429" y="770.57" width="123.88" height="7.43"/>
        </g>
        <path class="cls-22" d="m1038.43,1045.72c-3.09-.19-5.37-2.98-5.34-6.07.26-24.44.8-160.56-20-156.92-22.85,3.99-18.86,188.94-17.77,209.25,1.09,20.31,3.63,118.95,8.7,141.44,5.08,22.48,16.26,499.01,10.52,609.99h214.33s-56.57-517.15-44.97-555.59c11.6-38.44,20.31-65.28,47.87-104.45,27.56-39.17,23.94-105.17,32.64-124.03,8.7-18.86,29.01-45.33,11.6-53.31-17.41-7.98-49.68,42.79-62.74,91.39,0,0-8.34,13.42-14.51-3.26-6.17-16.68-17.04-201.27-17.77-215.06-.73-13.78-7.25-25.39-17.04-24.3-9.79,1.09-14.14,35.18-15.23,91.03-1.09,55.85,1.88,101.18-10.12,99.01-12-2.18-6.56-176.25-15.99-205.63-9.43-29.38-27.92-9.07-27.56,26.47.36,35.54,5.8,174.08-5.44,172.62-11.24-1.45-5.8-192.57-25.39-190.76-20.24,1.87-20.31,31.55-20.31,82.32,0,46.33,10.57,116.82-5.49,115.85Z"/>
        <path class="cls-15" d="m1016.72,1075.67s90.3-28.29,158.3-3.81c0,0-82.14-6.53-158.3,3.81Z"/>
        <path class="cls-15" d="m1019.62,1126.44s78.33,68.18,93.93,101.91c0,0,42.07-76.88,76.16-104.45,0,0-51.86,22.49-75.07,64.55,0,0-43.88-46.42-95.02-62.01Z"/>
        <path class="cls-15" d="m1019.62,1238.5s6.53,42.79,70.36,36.63c0,0-51.91-8.97-70.36-36.63Z"/>
        <path class="cls-23" d="m1159.55,1406.77h-109.77c-7.84,0-14.2,6.36-14.2,14.2v109.77c0,7.84,6.36,14.2,14.2,14.2h40.69v47.79c0,7.84,6.36,14.2,14.2,14.2h0c7.84,0,14.2-6.36,14.2-14.2v-47.79h40.69c7.84,0,14.2-6.36,14.2-14.2v-109.77c0-7.84-6.36-14.2-14.2-14.2Z"/>
        <path class="cls-24" d="m1068.06,1431.56h73.2c4.25,0,7.7,3.45,7.7,7.7v73.2c0,4.25-3.45,7.7-7.7,7.7h-73.2c-4.25,0-7.7-3.45-7.7-7.7v-73.2c0-4.25,3.45-7.7,7.7-7.7Z"/>
        <g>
          <rect class="cls-3" x="1281.23" y="1354.43" width="75.42" height="462.63"/>
          <path class="cls-31" d="m1274.04,1327.53h89.8c3.99,0,7.22,3.24,7.22,7.22v52.33c0,3.99-3.24,7.22-7.22,7.22h-89.8c-3.99,0-7.22-3.24-7.22-7.22v-52.33c0-3.99,3.24-7.22,7.22-7.22Z"/>
          <rect class="cls-36" x="1277.3" y="1327.53" width="11.98" height="66.54"/>
          <rect class="cls-36" x="1301.06" y="1327.53" width="11.98" height="66.54"/>
          <rect class="cls-36" x="1324.83" y="1327.53" width="11.98" height="66.54"/>
          <rect class="cls-36" x="1348.59" y="1327.53" width="11.98" height="66.54"/>
          <path class="cls-36" d="m1289.28,1394.07h59.31v10.42c0,5.98-4.86,10.84-10.84,10.84h-37.63c-5.98,0-10.84-4.86-10.84-10.84v-10.42h0Z"/>
          <polygon class="cls-27" points="1348.74 1817.06 1289.13 1817.06 1289.13 1571.34 1314.51 1580.7 1348.74 1571.34 1348.74 1817.06"/>
          <path class="cls-1" d="m1289.13,1571.34s25.93,7.75,41.3-1.14c15.37-8.89,26.81.32,11.17,13.15-16.1,13.21-52.47-12.01-52.47-12.01Z"/>
          <path class="cls-6" d="m1298.8,1404.69h4.52c2,0,3.63,1.63,3.63,3.63v398.85c0,2.01-1.63,3.63-3.63,3.63h-4.52c-2,0-3.63-1.63-3.63-3.63v-398.86c0-2,1.63-3.63,3.63-3.63Z"/>
          <rect class="cls-3" x="1411.56" y="1354.43" width="75.42" height="462.63"/>
          <path class="cls-31" d="m1404.37,1327.53h89.8c3.99,0,7.22,3.24,7.22,7.22v52.33c0,3.99-3.24,7.22-7.22,7.22h-89.8c-3.99,0-7.22-3.24-7.22-7.22v-52.33c0-3.99,3.24-7.22,7.22-7.22Z"/>
          <rect class="cls-36" x="1407.63" y="1327.53" width="11.98" height="66.54"/>
          <rect class="cls-36" x="1431.39" y="1327.53" width="11.98" height="66.54"/>
          <rect class="cls-36" x="1455.16" y="1327.53" width="11.98" height="66.54"/>
          <rect class="cls-36" x="1478.92" y="1327.53" width="11.98" height="66.54"/>
          <path class="cls-36" d="m1419.61,1394.07h59.31v10.42c0,5.98-4.86,10.84-10.84,10.84h-37.63c-5.98,0-10.84-4.86-10.84-10.84v-10.42h0Z"/>
          <polygon class="cls-27" points="1479.07 1817.06 1419.46 1817.06 1419.46 1571.34 1444.85 1580.7 1479.07 1571.34 1479.07 1817.06"/>
          <path class="cls-1" d="m1419.46,1571.34s25.93,7.75,41.3-1.14c15.37-8.89,26.81.32,11.17,13.15-16.1,13.21-52.47-12.01-52.47-12.01Z"/>
          <path class="cls-6" d="m1429.14,1404.69h4.52c2,0,3.63,1.63,3.63,3.63v398.85c0,2.01-1.63,3.63-3.63,3.63h-4.52c-2,0-3.63-1.63-3.63-3.63v-398.86c0-2,1.63-3.63,3.63-3.63Z"/>
          <rect class="cls-3" x="1541.89" y="1354.43" width="75.42" height="462.63"/>
          <path class="cls-31" d="m1534.7,1327.53h89.8c3.99,0,7.22,3.24,7.22,7.22v52.33c0,3.99-3.24,7.22-7.22,7.22h-89.8c-3.99,0-7.22-3.24-7.22-7.22v-52.33c0-3.99,3.24-7.22,7.22-7.22Z"/>
          <rect class="cls-36" x="1537.96" y="1327.53" width="11.98" height="66.54"/>
          <rect class="cls-36" x="1561.73" y="1327.53" width="11.98" height="66.54"/>
          <rect class="cls-36" x="1585.49" y="1327.53" width="11.98" height="66.54"/>
          <rect class="cls-36" x="1609.25" y="1327.53" width="11.98" height="66.54"/>
          <path class="cls-36" d="m1549.94,1394.07h59.31v10.42c0,5.98-4.86,10.84-10.84,10.84h-37.63c-5.98,0-10.84-4.86-10.84-10.84v-10.42h0Z"/>
          <polygon class="cls-27" points="1609.41 1817.06 1549.79 1817.06 1549.79 1571.34 1575.18 1580.7 1609.41 1571.34 1609.41 1817.06"/>
          <path class="cls-1" d="m1549.79,1571.34s25.93,7.75,41.31-1.14c15.37-8.89,26.81.32,11.17,13.15-16.1,13.21-52.48-12.01-52.48-12.01Z"/>
          <path class="cls-6" d="m1559.47,1404.69h4.52c2.01,0,3.63,1.63,3.63,3.63v398.85c0,2.01-1.63,3.63-3.63,3.63h-4.51c-2.01,0-3.63-1.63-3.63-3.63v-398.85c0-2,1.63-3.63,3.63-3.63Z"/>
        </g>
        <path class="cls-16" d="m1722.38,1511.52c6.57,0,11.89-5.32,11.89-11.89v-30.27c0-6.57-5.32-11.89-11.89-11.89h-546.22c-6.57,0-11.89,5.32-11.89,11.89v30.27c0,6.57,5.32,11.89,11.89,11.89h39.99v299.29h-43.12c-4.84,0-8.77,3.93-8.77,8.77v15.61c0,4.84,3.93,8.77,8.77,8.77h552.46c4.84,0,8.77-3.93,8.77-8.77v-15.61c0-4.84-3.93-8.77-8.77-8.77h-43.12v-299.29h39.99Zm-60.89,299.29h-424.44v-299.29h424.44v299.29Z"/>
        <path class="cls-2" d="m1785.84,1550.28c-4.76-53.42-33.61-100.19-59.09-141.51-12.46-20.21-25.35-41.1-39.09-61.13-3.86-5.62-7.86-11.3-11.73-16.8-23.05-32.73-46.88-66.58-52.23-104.58l-24.24,3.41c6.17,43.85,31.73,80.16,56.45,115.26,3.83,5.44,7.79,11.06,11.56,16.56,13.4,19.53,26.13,40.17,38.47,60.18,24.03,38.96,51.26,83.12,55.51,130.78,2.84,31.88-5.58,62.24-23.09,83.31-22.69,27.29-62.03,42.5-120.27,46.48-17.68,1.21-36.5,1.74-54.33-2.49-9.47-2.25-18.68-5.83-28.43-9.63-3.5-1.36-7.12-2.77-10.75-4.11-42.56-15.72-81.63-19.69-116.13-11.82-31.99,7.3-59.62,24.59-86.35,41.31-6.97,4.36-14.18,8.87-21.27,13.06-40.71,24.09-74.05,32.38-101.93,25.33-25.61-6.47-49.04-27.06-64.27-56.49-13.66-26.39-12.39-47.91-17.26-78.35-2.33,4.67-7.13,7.88-12.7,7.88-3.39,0-6.49-1.19-8.94-3.17,1.09,18.08,4.91,61.23,17.15,84.89,18.45,35.64,47.61,60.78,80.02,68.97,8.37,2.11,17.03,3.18,26.01,3.18,28.01,0,59.15-10.32,94.39-31.18,7.34-4.35,14.68-8.94,21.78-13.38,26.16-16.36,50.87-31.81,78.82-38.2,29.79-6.8,64.17-3.13,102.2,10.92,3.43,1.27,6.95,2.64,10.35,3.96,10.1,3.93,20.54,7.99,31.65,10.63,21.07,5,43,4.38,61.67,3.1,65.27-4.46,110.22-22.54,137.42-55.25,21.62-26,32.06-62.87,28.65-101.13Z"/>
        <path class="cls-27" d="m1779.14,1550.88c-4.62-51.84-33.02-97.89-58.11-138.57-12.42-20.14-25.26-40.96-38.91-60.85-3.83-5.59-7.82-11.25-11.68-16.74-23.51-33.38-47.82-67.91-53.39-107.52l-10.91,1.54c5.94,42.25,31.03,77.87,55.29,112.33,3.84,5.46,7.81,11.1,11.61,16.63,13.5,19.67,26.27,40.38,38.65,60.45,24.42,39.59,52.09,84.47,56.48,133.72,3,33.63-5.98,65.79-24.62,88.21-23.93,28.78-64.81,44.78-124.99,48.89-18.21,1.25-37.64,1.78-56.35-2.66-9.92-2.36-19.78-6.2-29.32-9.91-3.47-1.35-7.06-2.75-10.64-4.07-41.32-15.26-79.1-19.15-112.3-11.57-30.88,7.05-58.03,24.03-84.28,40.45-7.01,4.38-14.25,8.91-21.41,13.15-42.31,25.04-77.32,33.57-107.01,26.07-27.48-6.94-52.49-28.78-68.6-59.92-13.6-26.27-11.76-46.85-15.98-76.03-2.28,1.55-5.03,2.47-8,2.47-.96,0-1.9-.1-2.81-.28,4.35,29.95,2.76,51.38,17.01,78.91,17.56,33.93,45.15,57.82,75.69,65.54,7.82,1.97,15.93,2.97,24.36,2.97,26.78,0,56.79-10.01,90.96-30.24,7.27-4.3,14.58-8.87,21.64-13.29,25.48-15.94,51.83-32.41,80.9-39.05,31.08-7.1,66.75-3.34,106.03,11.17,3.48,1.29,7.03,2.67,10.46,4,9.88,3.85,20.1,7.83,30.77,10.36,20.15,4.79,40.57,4.24,59.65,2.93,63.34-4.33,106.75-21.62,132.71-52.84,20.49-24.65,30.38-59.72,27.12-96.23Z"/>
        <polygon class="cls-22" points="1905.67 1802.29 1905.11 1818.23 1930.11 1817.01 1936 1797.51 1905.67 1802.29"/>
        <polygon class="cls-22" points="2063.11 1778.19 2081.25 1805.32 2100.82 1789.72 2094.2 1770.45 2063.11 1778.19"/>
        <g>
          <path class="cls-2" d="m2071.7,1843.22l46.29-33.53c1.43-1.04,1.75-3.04.71-4.47h0c-1.04-1.43-3.04-1.75-4.47-.71l-46.29,33.53c-1.43,1.04-1.75,3.04-.71,4.47h0c1.04,1.43,3.04,1.75,4.47.71Z"/>
          <path class="cls-17" d="m2103.07,1788.6l12.14,13.17c1.5,1.62,1.67,3.96.37,4.9l-45.35,32.85c-1.18.85-2.87.96-4.5.03-1.66-.96-3.33-3-3.38-7.34-.1-8.59,11.98-19.52,15.11-29.07.06-.2.18-.36.35-.48l20.87-15.12c1.18-.85,3.04-.4,4.39,1.06Z"/>
          <path class="cls-2" d="m2086.82,1808.88h0c.18-.44-.1-1.08-.59-1.36-2.32-1.33-8.58-4.12-13.53.97-.29.29-.19.89.19,1.3h.01c.37.41.87.48,1.15.19,4.45-4.54,9.88-2.02,11.8-.89.41.24.83.15.98-.21Z"/>
          <path class="cls-2" d="m2083.45,1814.15h0c.18-.44-.1-1.08-.59-1.36-2.32-1.33-8.58-4.12-13.53.97-.29.29-.19.89.19,1.3h.01c.37.41.87.48,1.15.2,4.45-4.54,9.88-2.02,11.8-.89.41.24.83.15.98-.21Z"/>
          <path class="cls-2" d="m2080.32,1819.05h0c.18-.44-.1-1.08-.59-1.36-2.32-1.33-8.58-4.12-13.53.97-.29.29-.19.89.19,1.3h.01c.37.41.87.48,1.15.2,4.45-4.54,9.88-2.02,11.8-.89.41.24.83.15.98-.21Z"/>
        </g>
        <path class="cls-27" d="m1617.04,1227.19s-5.99-74.28,4.19-158.42c10.19-84.14-23.76,6.89-23.76,6.89,0,0-.73,118.17,8.66,153.06,9.39,34.9,10.91-1.54,10.91-1.54Z"/>
        <path class="cls-17" d="m2021.46,1177.19c.94.52,1.84,1.12,2.6,1.87,2.57,2.53,3.33,6.55,6.1,8.87,1.38,1.16,3.12,1.77,4.73,2.57,2.2,1.09,4.3,2.71,5.16,5,.49,1.3.54,2.72.59,4.1.08,2.51.16,5.08-.58,7.48-.43,1.39-1.14,2.7-1.49,4.12-.7,2.81.05,5.79-.38,8.65-.33,2.16-1.31,4.15-2.28,6.11-.51,1.02-1.03,2.07-1.81,2.9-2.01,2.13-5.28,2.44-8.19,2.16-2.91-.28-5.86-1.01-8.73-.46-2.41.46-4.54,1.79-6.79,2.77-3.44,1.5-7.23,2.2-10.98,2.02-1.05-.05-2.13-.18-3.05-.7-.95-.54-1.63-1.44-2.28-2.32-3.58-4.84-7.19-9.74-9.64-15.24-2.45-5.5-3.67-11.75-2.27-17.6,1.05-4.38,3.52-8.32,6.5-11.69,2.99-3.37,6.5-6.23,9.99-9.07,6.04-4.91,16.02-5.3,22.82-1.53Z"/>
        <path class="cls-22" d="m1922.25,1389.15l6.63-28.5-27.06-20.35s-4.68,33.98-7.04,47.62l-54.67.95-10.49,1.98s72.9,30.53,77.54,21.16c1.31-2.64,5.22-6.45,8.95-10.92,1.94.48,3.17.77,3.17.77l1.76-7.58c.99-1.67,1.8-3.39,2.34-5.14h-1.15Z"/>
        <path class="cls-25" d="m1944.29,1258.43s-34.94,13.79-48.47,86.07c0,0,8.74,11.84,28.26,13.15,19.51,1.31,13.57-46.42,13.57-46.42l6.64-52.8Z"/>
        <polygon class="cls-22" points="1985.49 1234.7 1984.16 1255.65 1955.62 1261.58 1950.57 1261.58 1951.63 1236.49 1981.9 1225.8 1985.49 1234.7"/>
        <path class="cls-22" d="m1940.72,1268.24c-1.29,14.07,4.53,16.69,4.53,16.69l43.11-32c-26.76,2.62-44.06,5.5-44.06,5.5,0,0-2.22,10.19-3.58,9.8Z"/>
        <path class="cls-17" d="m2012.24,1189.15s8.8-36.11-12.16-49.64c-20.97-13.53-43.19-12.02-58.32-3.92-15.14,8.1-24.2,36.36-17.41,52.5l50.24-15.42,37.66,16.47Z"/>
        <path class="cls-22" d="m1835.44,1370.28c-5.01-2.17-8.67-4.4-10.09-6.62l-1.61-4.18c-2-5.23-5.03-7.52-6.93-6.5l-.32.26s1.27,8.46,2.31,15.39l-4.35-.65-2.3,26.36,20.72-2.79,2.58-21.27Z"/>
        <path class="cls-9" d="m1994.12,1433.75l-20.73,181.33s-19.65,155.17-35.53,189.68h-35.2l7.66-346.79,62.04-39,21.75,14.78Z"/>
        <path class="cls-15" d="m1986.11,1229.23s-.61,6.08-1.13,13.65c-10.86,11.89-31.21,7.81-33.89,6.66.16-3.81,0-11.52,0-11.52l35.03-8.79Z"/>
        <path class="cls-18" d="m2010.68,1416.22s39.34,50.73,30.02,131.47c-9.32,80.75-7.25,109.73-7.25,109.73,0,0,50.72,46.58,66.25,113.87,0,0-22.26,15.53-37.27,18.12,0,0-74.54-113.87-80.23-127.33-5.69-13.46-41.11-225.05-41.11-225.05l69.58-20.81Z"/>
        <path class="cls-15" d="m1930.87,1194.48c1.79,4.86.09,9.96-3.8,11.39s-8.49-1.35-10.28-6.21c-1.79-4.86-.09-9.96,3.8-11.39,3.89-1.43,8.49,1.35,10.28,6.21Z"/>
        <path class="cls-22" d="m1931.28,1222.56c-1.12-2.11-2.05-4.34-2.78-6.66-2.08-6.24-3.02-12.83-3.37-18.56-.08-1.23-.22-2.45-.4-3.67-.69-4.92-.49-10.11.84-15.41,4.29-17.05,19.56-29.47,37.12-30.17,23.66-.94,42.53,18.36,41.74,41.4,2.55-1.31,5.38-1.53,7.81-.34,4.68,2.29,6.15,8.88,3.3,14.72-2.86,5.85-8.96,8.73-13.64,6.45-.65-.32-1.23-.73-1.75-1.2-2.67,19.53-19.25,34.11-38.5,33.13-9.41-.48-17.81-4.6-24.02-10.99-.42-.37-.85-.81-1.31-1.32-2-2.22-3.66-4.73-5.03-7.39Z"/>
        <path class="cls-17" d="m1967.3,1194.99c-.11,2.08,1.49,3.84,3.57,3.95,2.08.11,3.84-1.49,3.95-3.57.11-2.08-1.49-3.84-3.57-3.95-2.08-.11-3.84,1.49-3.95,3.57Z"/>
        <path class="cls-17" d="m1933.89,1194.99c-.11,2.08,1.49,3.84,3.57,3.95,2.08.11,3.84-1.49,3.95-3.57.11-2.08-1.49-3.84-3.57-3.95-2.08-.11-3.84,1.49-3.95,3.57Z"/>
        <path class="cls-17" d="m1964.14,1188.72c1.71-.91,3.49-1.58,5.3-2.03,1.81-.43,3.67-.59,5.49-.42.91.08,1.81.26,2.69.51.45.11.88.28,1.31.43.22.08.43.18.64.26.21.09.43.17.64.28,1.68.8,3.26,1.85,4.81,3.02-1.15-1.56-2.62-2.91-4.32-3.95-.85-.52-1.76-.95-2.71-1.27-.95-.32-1.94-.54-2.95-.63-2.01-.19-4.04.08-5.91.76-.94.33-1.83.76-2.68,1.26-.84.51-1.64,1.08-2.32,1.78Z"/>
        <path class="cls-17" d="m1948.97,1188.72c-.68-.7-1.49-1.27-2.32-1.78-.85-.5-1.74-.93-2.68-1.26-1.87-.67-3.9-.94-5.91-.76-1,.09-1.99.31-2.95.63-.95.31-1.86.75-2.71,1.27-1.7,1.03-3.17,2.38-4.32,3.95,1.55-1.17,3.13-2.22,4.81-3.02.21-.11.42-.19.64-.28.22-.09.42-.19.64-.26.44-.15.87-.32,1.31-.43.88-.25,1.78-.43,2.69-.51,1.82-.17,3.67-.01,5.49.42,1.81.45,3.59,1.12,5.3,2.03Z"/>
        <path class="cls-2" d="m2034.95,1315.19c-.91-.95-1.77-2.01-2.55-3.1-.78-1.1-1.53-2.23-2.17-3.41-.67-1.17-1.27-2.39-1.78-3.65-.54-1.25-.94-2.55-1.35-3.86.18,1.36.44,2.72.87,4.04.19.67.45,1.31.69,1.96.28.63.54,1.28.86,1.89.62,1.24,1.32,2.44,2.13,3.57.64.92,1.32,1.79,2.09,2.62-.69.14-1.42.23-2.13.26-.99.05-1.99,0-2.97-.14-.5-.06-.98-.18-1.47-.28-.48-.14-.97-.26-1.43-.45-.96-.32-1.84-.81-2.74-1.31.79.65,1.63,1.26,2.57,1.69.92.47,1.92.8,2.94,1.02,1.02.22,2.07.33,3.12.31,1.05-.01,2.08-.12,3.14-.39l.75-.2-.56-.59Z"/>
        <path class="cls-15" d="m1953.39,1193.26c-1.06,1.71-1.96,3.5-2.78,5.33-.82,1.83-1.54,3.71-2.1,5.66-.26.98-.49,1.98-.56,3.06,0,.27,0,.55.03.84.02.15.06.3.09.45.06.16.1.32.22.49.06.08.12.16.19.24l.16.14c.11.09.21.18.31.26.22.15.44.31.66.44.89.55,1.84.94,2.79,1.27.96.32,1.93.6,2.92.77-1.81-.86-3.63-1.71-5.18-2.83-.2-.14-.37-.29-.55-.44l-.25-.23-.12-.12s-.02-.04-.03-.06c-.12-.2-.13-.7-.09-1.13.09-.91.32-1.87.59-2.8.52-1.89,1.17-3.76,1.8-5.64.64-1.88,1.3-3.76,1.89-5.68Z"/>
        <path class="cls-26" d="m2028.13,1374.93s0,0,0,0c5.13-28.53,7.33-59.16,7.33-59.16.29-7.06.2-13.31-.17-18.84-7.15-5.82-17.12-14.07-17.12-14.07l-17.05-29.05s0-.01.01-.02c-6.48-.6-13.35-.88-13.35-.88l-42.55,32.02-.95-26.5c-.21.16-.43.32-.63.49-18.39,15.02-30.32,36.72-32.89,60.59-1.82,16.84-1.6,34.79-.58,50.83h0s-7.27,92.87-10.77,107.71c0,0,96.45,9.6,147.95,0,0,0-19.7-62.66-19.23-103.12Z"/>
        <g>
          <path class="cls-17" d="m1904.44,1448.33l-73.78,4.45c-4.66.28-9.83-2.71-11.54-6.67l-38.81-89.81c-1.71-3.97.67-7.41,5.33-7.69l73.78-4.45c4.66-.28,9.83,2.71,11.54,6.67l38.81,89.81c1.71,3.97-.67,7.41-5.33,7.69Z"/>
          <path class="cls-8" d="m1837.57,1349.99l-25.12,1.51c-2.01.12-4.25-1.17-4.99-2.88l-.7-1.61c-.74-1.71.29-3.2,2.3-3.32l25.12-1.51c2.01-.12,4.25,1.17,4.99,2.88l.7,1.61c.74,1.71-.29,3.2-2.3,3.32Z"/>
        </g>
        <path class="cls-22" d="m1810.11,1425.39l-.31.14c-1.86.82-4.04.11-5.05-1.66l-11.56-20.08c-.58-.97-.55-2.18.08-3.12,1.96-2.92,6.17-8.93,7.61-8.71,1.9.29-3.9,10.27-3.11,10.48.79.2,8.99-6.45,9.69-5.36.62.97-6.6,8.71-6.27,9.31.33.6,8.67-4.24,9.57-3.37.81.78-7.04,7.04-6.93,7.47l6.29,14.9Z"/>
        <path class="cls-22" d="m1876.44,1448.56c.08-1.4,11.8-10.23,11.13-10.85-.67-.62-13.73,7.2-14.68,5.4-.95-1.81,13.65-9.9,12.31-11.02-1.34-1.13-16.09,7.54-16.69,5.75-.5-1.5,15.75-11.6,20.94-14.77.67-.41.61-1.4-.1-1.73-10.92-5.15-11.46-6.18-10.62-7.25.6-.76,11.48.63,21.74,1.35l12.45,1.19c3.5-.83,108.07-25.53,113.77-32.39,5.8-6.98-9.76-44.69-9.76-44.69l33.96-14.58s15.55,61.86.57,80.93c-8.07,10.27-137.94,28.61-137.94,28.61-2.05,1.58-7.64,5.34-7.64,5.34-22.67,14.43-20.13,13.33-20.79,12.59-.66-.74,6.95-9.33,5.93-9.85-1.02-.52-14.68,7.38-14.6,5.99Z"/>
        <path class="cls-26" d="m2001.14,1253.81s38.04,14.4,62.13,70.41c0,0-11.82,26.14-50.97,27.03l-11.15-97.45Z"/>
        <path class="cls-35" d="m2063.26,1324.23c-2.58,4.33-5.97,8.08-9.79,11.25-3.78,3.23-8,5.88-12.46,8.02-4.54,1.95-9.19,3.68-14.04,4.68-2.39.62-4.88.82-7.31,1.25-2.46.25-4.94.36-7.41.55l1.29.98c-1.25-4.96-2.66-9.83-4.17-14.69-1.54-4.85-3.12-9.69-5.03-14.41-1.87-4.74-3.97-9.39-6.35-13.9-2.48-4.42-5.2-8.9-9.11-12.19,3.49,3.7,5.9,8.19,7.98,12.76,2.13,4.56,4,9.24,5.62,14.02,1.6,4.78,3.24,9.55,4.65,14.4,1.42,4.84,2.74,9.73,3.92,14.61l.26,1.08,1.03-.09c2.54-.23,5.09-.39,7.62-.69,2.51-.48,5.06-.72,7.53-1.41,2.48-.62,4.96-1.24,7.35-2.17,2.45-.75,4.73-1.95,7.04-3.02,4.5-2.42,8.74-5.34,12.43-8.85,3.62-3.56,6.88-7.57,8.95-12.18Z"/>
        <path class="cls-22" d="m1803.26,1410.72s8.35-2.54,9.08-1.6c.74.94-9.12,6.26-9.08,6.01.04-.25,0-4.42,0-4.42Z"/>
        <path class="cls-17" d="m2009.51,1184.17l-.94-.11-.63-7.84-3.5-7.25s-13.72-19.48-14.21-19.97c-.48-.48-10.95-6.76-11.59-7.08-.64-.32-15.3,2.09-15.3,2.09,0,0-25.78-5.55-21.42,8.86,4.36,14.4,23.19,21.9,24.15,21.25-3.06-3.22-3.38-12.4-3.38-12.4,14.49,16.75,41.74,27.76,41.74,27.76,0,0,2.86-2.18,7.81-.34l-2.73-4.98Z"/>
        <path class="cls-2" d="m1945.04,1218.13c1,4.45,5.31,7.75,10.42,7.66,5.11-.09,9.29-3.54,10.13-8.01l-20.55.35Z"/>
        <g>
          <path class="cls-30" d="m690.84,1529.92h-17.37v-46.01c0-11.6-9.44-21.03-21.03-21.03h-173.39c-11.6,0-21.03,9.44-21.03,21.03v46.01h-17.37v-46.01c0-21.17,17.23-38.4,38.4-38.4h173.39c21.18,0,38.4,17.23,38.4,38.4v46.01Z"/>
          <path class="cls-18" d="m435.28,1511.9h28.1c5.1,0,9.24,4.14,9.24,9.24v3.9h-46.57v-3.9c0-5.1,4.14-9.24,9.24-9.24Z"/>
          <path class="cls-18" d="m668.11,1511.9h28.1c5.1,0,9.24,4.14,9.24,9.24v3.9h-46.57v-3.9c0-5.1,4.14-9.24,9.24-9.24Z"/>
          <rect class="cls-31" x="349.95" y="1525.03" width="422.4" height="318.46" rx="24.95" ry="24.95"/>
          <rect class="cls-36" x="419.55" y="1525.03" width="59.55" height="318.46"/>
          <rect class="cls-36" x="652.38" y="1525.03" width="59.55" height="318.46"/>
          <polygon class="cls-2" points="625.3 1668.53 581.48 1668.53 581.48 1624.7 550.01 1624.7 550.01 1668.53 506.18 1668.53 506.18 1700 550.01 1700 550.01 1743.83 581.48 1743.83 581.48 1700 625.3 1700 625.3 1668.53"/>
        </g>
        <path class="cls-17" d="m702.29,786.71s30.11-10.63,49.59-32.74c0,0,14.44,19.85,24.33,22.69,0,0,.89-31.64-31.66-35.98-32.55-4.34-49.47,20.99-42.26,46.03Z"/>
        <path class="cls-4" d="m2223.09,336.64c-10.25-44.41-28.12-86.7-51.99-125.36-33.51-1.09-67.06-.92-100.56.53-18.68.81-37.79,1.96-55.69-3.43-17.9-5.39-34.66-18.91-38.11-37.29-2.05-10.89.14-23.79-7.68-31.65-4.13-4.15-10.11-5.72-15.79-7.13-25.82-6.4-52.08-12.84-78.65-11.63-55.16,2.52-115.65,36.39-161.17,5.14-19.86-13.64-31.22-38.71-28.38-62.63,2.84-23.92,19.76-45.63,42.27-54.24,37.87-14.48,85.27,6.18,121.27-6-124.7-14.13-251.74,24.4-364.7,80.77-13.11,6.54-26.08,13.33-38.95,20.31,1.29,17.57,14.65,33.64,30.76,41.87,18.6,9.5,40.14,10.86,61,12.04,23.32,1.32,46.64,2.64,69.96,3.96,8.04.46,17.05,1.38,22.18,7.59,6.67,8.07,3.1,20.01,3.65,30.47,1,19,17.09,34.49,35.03,40.82,17.94,6.33,37.51,5.38,56.51,4.35,35.88-1.94,71.76-3.88,107.64-5.81,11.87-.64,24.51-1.11,34.8,4.84,7.79,4.51,13.17,12.11,18.8,19.13,48.41,60.36,127.74,87.6,204.62,96.33,46.03,5.22,92.44,4.89,138.8,5.28-1.61-9.46-3.46-18.89-5.62-28.26Z"/>
        <path class="cls-1" d="m952.64,716.55l-23.21-42.61-23.21,42.61s-51.3,95.34-34.81,136c.16.41.33.81.5,1.21,21.61,50.76,93.43,50.76,115.04,0,.17-.4.34-.8.5-1.21,16.49-40.66-34.81-136-34.81-136Z"/>
        <path class="cls-27" d="m929.43,673.94l-23.21,42.61s-42.7,79.37-37.66,124.15c29.53,28.78,82.91,21.9,101.03-20.65.17-.4.34-.8.5-1.21,11.83-29.17-11.23-86.48-25.21-116.54l-15.45-28.37Z"/>
        <path class="cls-2" d="m1016.74,734.11c-3.16,2.69-6.2,5.47-9.18,8.3-5.94,5.67-11.57,11.59-16.99,17.66-5.4,6.09-10.58,12.36-15.55,18.78-3.38,4.36-6.66,8.8-9.84,13.31l-2.38-1.89c-1.57-1.23-3.18-2.42-4.77-3.63-1.6-1.2-3.24-2.36-4.86-3.54-3.29-2.31-6.6-4.6-10.04-6.75-3.44-2.16-6.92-4.27-10.63-6.14,2,3.65,4.23,7.05,6.51,10.41,2.27,3.36,4.67,6.59,7.1,9.8,1.24,1.58,2.45,3.18,3.71,4.73,1.27,1.55,2.51,3.11,3.8,4.64l3.88,4.56,3.96,4.47,5.29,5.97,6.07-6.77c5.44-6.06,10.63-12.32,15.63-18.72,5-6.4,9.8-12.96,14.37-19.7,4.55-6.75,8.9-13.66,12.93-20.81,2.01-3.58,3.96-7.21,5.78-10.94,1.82-3.73,3.59-7.5,5.08-11.48-3.49,2.43-6.72,5.07-9.88,7.75Z"/>
        <path class="cls-5" d="m870.29,622.87c-3.28-14.27-16.05-24.92-31.32-24.92-2.8,0-5.52.36-8.11,1.04-7.54-16.12-23.89-27.28-42.86-27.28-4.9,0-9.63.75-14.08,2.13-10.21-16.91-28.76-28.21-49.95-28.21-25.21,0-46.69,16-54.82,38.4-5.76-3.21-12.39-5.05-19.45-5.05-22.1,0-40.01,17.91-40.01,40.01,0,1.31.07,2.6.19,3.88h260.42Z"/>
        <path class="cls-5" d="m1372.79,368.47c-2.67-11.61-13.06-20.27-25.47-20.27-2.28,0-4.49.29-6.6.84-6.13-13.11-19.43-22.19-34.86-22.19-3.99,0-7.83.61-11.45,1.73-8.3-13.75-23.39-22.94-40.62-22.94-20.5,0-37.97,13.01-44.59,31.23-4.68-2.61-10.08-4.11-15.82-4.11-17.97,0-32.54,14.57-32.54,32.54,0,1.07.05,2.12.16,3.16h211.8Z"/>
        <path class="cls-29" d="m212.87,1821.97c4.04,3.93,7.44,11.7,11.03,19.93,2.92,6.68,6.05,13.85,10.23,20.92h106.14c-2.88-1.8-5.83-3.5-8.86-5.04-6.86-3.5-13.82-6.21-19.97-8.61-9.07-3.54-17.64-6.88-22.02-11.26-4-4-7.35-11.69-10.91-19.83-5.2-11.92-11.68-26.77-24.15-38.86-16.84-16.33-38.25-21.79-55.45-26.18-12.04-3.07-23.4-5.97-28.72-11.31-2.86-2.88-5.75-8.26-8.81-13.96-1.93-3.59-3.92-7.31-6.28-11.18-19.52-31.99-53.3-54.43-90.35-60.03-2.1-.32-4.06-.56-5.96-.8-3.05-.38-31.12-6.11-40.49.32h0c-17.6,12.09-16.97,38.5,1.41,49.37,2.11,1.25,4.34,2.4,6.7,3.43,9.22,4.03,17.97,5.12,25,5.99,1.59.2,3.09.39,4.43.59,19.55,2.95,38.1,15.28,48.4,32.15,1.5,2.46,3.02,5.3,4.64,8.31.51.95,1.03,1.92,1.57,2.92l26.23.88-18.93,11.4c2.86,4.27,6.19,8.58,10.21,12.62,16.91,17,38.72,22.56,56.24,27.02,11.95,3.05,23.24,5.92,28.68,11.2Z"/>
        <path class="cls-19" d="m227.74,1730.07c4.12,6.07,6.4,16.87,8.8,28.31,3.59,17.04,7.65,36.34,19.74,54.75,13.37,20.35,32.4,32.7,47.69,42.62,3.73,2.42,7.33,4.76,10.65,7.08h98.57c-10.15-21.59-25.14-40.89-43.84-55.88-7.81-6.26-15.98-11.56-23.18-16.24-10.63-6.9-20.66-13.41-25.1-20.16-4.04-6.15-6.29-16.84-8.67-28.15-3.49-16.57-7.83-37.19-20.53-55.89-17.15-25.25-43-37.85-63.77-47.97-14.53-7.08-28.25-13.77-33.62-21.98-2.89-4.42-5.15-12.04-7.54-20.11-1.51-5.09-3.07-10.34-5.06-15.9-9.16-25.56-24.73-48.5-44.62-66.74l-17.75,28.03,7.82-36.46c-13.49-10.59-28.59-19.16-44.77-25.14-2.59-.96-5.03-1.79-7.38-2.59-3.78-1.29-38.05-15.98-51.68-10.26h0c-18.77,7.89-27.07,28.16-22.09,45.79l35.27,2.98-26.76,12.16c.75.81,1.53,1.6,2.36,2.37,2.36,2.15,4.9,4.21,7.64,6.14,10.69,7.56,21.55,11.26,30.28,14.23,1.97.67,3.84,1.31,5.49,1.92,24.14,8.92,44.52,29.5,53.2,53.73,1.26,3.53,2.46,7.55,3.72,11.81,1.97,6.63,4.2,14.16,7.39,21.96l39.93,7.68-33.36,5.9c.95,1.65,1.94,3.3,3.02,4.94,17.07,26.12,43.4,38.95,64.55,49.26,14.43,7.03,28.05,13.67,33.6,21.84Z"/>
        <path class="cls-10" d="m197.88,1503.13c-.76,12.7-1.68,28.15,1.16,44.6,20.52,11.55,60.59,34.13,56.02,31.7-4.28-2.28-33.83-9.13-51.13-13.03,10.31,29.11,30.8,50.3,47.66,67.72,13.03,13.47,25.34,26.19,28.17,37.36,2.1,8.3.29,21.07-1.62,34.58-2.85,20.13-6.09,42.94-.15,67.96,6.56,27.67,22.52,48.81,35.35,65.79,5.22,6.92,10.16,13.46,13.89,19.58.69,1.12,1.34,2.27,1.97,3.43h96.39c-4.44-17.73-11.48-34.82-21.03-50.51-6.08-9.99-12.93-19.06-18.97-27.06-8.91-11.8-17.33-22.96-19.51-32.13-1.98-8.36-.19-20.99,1.7-34.35,2.78-19.58,6.23-43.94-.26-69.53-8.76-34.55-32.1-58.68-50.87-78.08-13.12-13.56-25.52-26.38-28.14-37.53-1.41-6.01-.85-15.27-.26-25.08.37-6.18.76-12.58.79-19.47.23-53.23-22.3-105.6-60.75-142.25l-17.69,7.81,8.73-15.82c-2.21-1.86-4.33-3.56-6.38-5.21-3.64-2.92-35.4-32.71-52.63-31.86h0c-32.4,1.61-52.65,36.28-37.54,64.99,1.74,3.3,3.7,6.57,5.94,9.78,8.72,12.56,19.17,20.95,27.56,27.68,1.9,1.52,3.69,2.96,5.26,4.29,22.94,19.41,37.11,50.13,36.97,80.18-.02,4.38-.31,9.27-.62,14.44Z"/>
        <rect class="cls-20" x="158.06" y="1843.41" width="2268.42" height="19.41"/>
        <path class="cls-5" d="m2351.66,814.63c-3.65.69-7.24,1.59-10.73,2.68-21.12-34.98-59.5-58.37-103.34-58.37-52.16,0-96.59,33.1-113.42,79.45-11.92-6.64-25.63-10.44-40.25-10.44-45.72,0-82.78,37.06-82.78,82.78,0,2.71.14,5.39.39,8.03h407.35c-16.09-36.08-37.09-69.9-57.22-104.14Z"/>
        <path class="cls-10" d="m2141.39,572.2h-45.6v-37.02h-37.02v-45.6h37.02v-37.02h45.6v37.02h37.02v45.6h-37.02v37.02Zm-39.48-6.12h33.36v-37.02h37.02v-33.36h-37.02v-37.02h-33.36v37.02h-37.02v33.36h37.02v37.02Z"/>
        <path class="cls-10" d="m2326.24,1183.7h-29.8v-24.19h-24.19v-29.8h24.19v-24.19h29.8v24.19h24.19v29.8h-24.19v24.19Zm-25.8-4h21.8v-24.19h24.19v-21.8h-24.19v-24.19h-21.8v24.19h-24.19v21.8h24.19v24.19Z"/>
        <path class="cls-10" d="m490.94,883.84h-23.67v-19.22h-19.22v-23.67h19.22v-19.22h23.67v19.22h19.22v23.67h-19.22v19.22Zm-20.5-3.18h17.32v-19.22h19.22v-17.32h-19.22v-19.22h-17.32v19.22h-19.22v17.32h19.22v19.22Z"/>
        <path class="cls-10" d="m427.4,1336.98h-15.71v-12.75h-12.75v-15.71h12.75v-12.75h15.71v12.75h12.75v15.71h-12.75v12.75Zm-13.6-2.11h11.49v-12.75h12.75v-11.49h-12.75v-12.75h-11.49v12.75h-12.75v11.49h12.75v12.75Z"/>
        <path class="cls-10" d="m1549.8,262.69h-23.67v-19.22h-19.22v-23.67h19.22v-19.22h23.67v19.22h19.22v23.67h-19.22v19.22Zm-20.5-3.18h17.32v-19.22h19.22v-17.32h-19.22v-19.22h-17.32v19.22h-19.22v17.32h19.22v19.22Z"/>
        <path class="cls-29" d="m2057.98,1019c-11.05,0-20.04-8.99-20.04-20.04s8.99-20.04,20.04-20.04,20.04,8.99,20.04,20.04-8.99,20.04-20.04,20.04Zm0-35c-8.25,0-14.96,6.71-14.96,14.96s6.71,14.96,14.96,14.96,14.96-6.71,14.96-14.96-6.71-14.96-14.96-14.96Z"/>
        <path class="cls-29" d="m1848.91,116.67c-11.05,0-20.04-8.99-20.04-20.04s8.99-20.04,20.04-20.04,20.04,8.99,20.04,20.04-8.99,20.04-20.04,20.04Zm0-35c-8.25,0-14.96,6.71-14.96,14.96s6.71,14.96,14.96,14.96,14.96-6.71,14.96-14.96-6.71-14.96-14.96-14.96Z"/>
        <path class="cls-19" d="m1148.08,474.23c-10.76,0-19.51-8.75-19.51-19.51s8.75-19.51,19.51-19.51,19.51,8.75,19.51,19.51-8.75,19.51-19.51,19.51Zm0-34.07c-8.03,0-14.56,6.53-14.56,14.56s6.53,14.56,14.56,14.56,14.56-6.53,14.56-14.56-6.53-14.56-14.56-14.56Z"/>
        <path class="cls-10" d="m248.8,1258.21c-12.59,0-22.83-10.24-22.83-22.83s10.24-22.83,22.83-22.83,22.83,10.24,22.83,22.83-10.24,22.83-22.83,22.83Zm0-39.86c-9.39,0-17.04,7.64-17.04,17.04s7.64,17.04,17.04,17.04,17.04-7.64,17.04-17.04-7.64-17.04-17.04-17.04Z"/>
        <g>
          <path class="cls-2" d="m1875.22,1843.41l57.15-.17c1.77,0,3.19-1.44,3.19-3.21h0c0-1.77-1.44-3.19-3.21-3.19l-57.15.17c-1.77,0-3.19,1.44-3.19,3.21h0c0,1.77,1.44,3.19,3.21,3.19Z"/>
          <path class="cls-17" d="m1932.59,1817.42l2.16,17.78c.27,2.19-.96,4.19-2.57,4.19l-56,.16c-1.46,0-2.9-.9-3.66-2.6-.79-1.75-.95-4.38,1.54-7.93,4.94-7.03,21.12-8.84,29.25-14.77.17-.12.36-.19.57-.19l25.77-.08c1.46,0,2.7,1.45,2.94,3.43Z"/>
          <path class="cls-2" d="m1907.55,1824.38h0c.4-.25.55-.93.31-1.45-1.11-2.43-4.56-8.36-11.55-7.12-.4.07-.68.61-.61,1.16v.02c.07.54.44.88.83.82,6.26-1.09,9.2,4.13,10.1,6.17.19.43.58.6.92.4Z"/>
          <path class="cls-2" d="m1901.74,1826.68h0c.4-.25.55-.93.31-1.45-1.11-2.43-4.56-8.36-11.55-7.12-.4.07-.68.61-.61,1.16v.02c.07.54.44.88.83.82,6.26-1.09,9.2,4.13,10.1,6.17.19.43.58.6.92.4Z"/>
          <path class="cls-2" d="m1896.34,1828.84h0c.4-.25.55-.93.31-1.45-1.11-2.43-4.56-8.36-11.55-7.12-.4.07-.68.61-.61,1.16v.02c.07.54.44.89.83.82,6.26-1.09,9.2,4.13,10.1,6.17.19.44.58.61.92.4Z"/>
        </g>
        <g>
          <path class="cls-9" d="m815.42,1275.98l-42.23-38.52c-1.31-1.19-1.4-3.21-.21-4.52h0c1.19-1.3,3.21-1.4,4.52-.21l42.23,38.52c1.3,1.19,1.4,3.21.21,4.52h0c-1.19,1.31-3.21,1.4-4.52.21Z"/>
          <path class="cls-30" d="m790.39,1218.19l-13.54,11.72c-1.67,1.45-2.1,3.74-.91,4.83l41.37,37.74c1.07.98,2.75,1.28,4.46.53,1.76-.77,3.65-2.61,4.19-6.91,1.06-8.53-9.71-20.74-11.75-30.59-.04-.2-.14-.38-.29-.52l-19.04-17.37c-1.08-.98-2.98-.74-4.49.56Z"/>
          <path class="cls-2" d="m804.26,1240.17h0c-.13-.46.22-1.06.74-1.29,2.45-1.06,8.99-3.13,13.34,2.49.25.32.09.91-.33,1.27h-.01c-.41.36-.92.38-1.16.06-3.91-5.01-9.59-3.12-11.63-2.21-.43.19-.84.06-.95-.32Z"/>
          <path class="cls-2" d="m807.01,1245.78h0c-.13-.46.22-1.06.74-1.29,2.45-1.06,8.99-3.13,13.34,2.49.25.32.09.91-.33,1.27h-.01c-.41.36-.92.38-1.16.06-3.91-5.01-9.59-3.12-11.63-2.21-.43.19-.84.06-.95-.32Z"/>
          <path class="cls-2" d="m809.57,1251.01h0c-.13-.46.22-1.06.74-1.29,2.45-1.06,8.99-3.13,13.34,2.49.25.32.09.91-.33,1.27h-.01c-.41.36-.92.38-1.16.06-3.91-5.01-9.59-3.12-11.63-2.21-.43.19-.84.06-.95-.32Z"/>
        </g>
      </g>
    </g>
  </g>
</svg>