<?xml version="1.0" encoding="UTF-8"?>
<svg id="Layer_1" data-name="Layer 1" xmlns="http://www.w3.org/2000/svg" xmlns:xlink="http://www.w3.org/1999/xlink" viewBox="0 0 5313.38 3543.82">
  <defs>
    <style>
      .cls-1 {
        fill: url(#radial-gradient-7);
      }

      .cls-2 {
        fill: url(#radial-gradient-10);
      }

      .cls-3 {
        fill: #fff;
      }

      .cls-4 {
        fill: #c20501;
      }

      .cls-5 {
        fill: url(#radial-gradient-8);
      }

      .cls-6 {
        fill: url(#radial-gradient-5);
      }

      .cls-7 {
        fill: url(#radial-gradient-4);
      }

      .cls-8 {
        fill: url(#radial-gradient-6);
      }

      .cls-9 {
        fill: url(#radial-gradient-12);
      }

      .cls-10 {
        fill: url(#radial-gradient);
      }

      .cls-11 {
        clip-path: url(#clippath);
      }

      .cls-12 {
        fill: url(#radial-gradient-2);
      }

      .cls-13 {
        fill: none;
      }

      .cls-14 {
        fill: url(#radial-gradient-3);
      }

      .cls-15 {
        fill: url(#radial-gradient-11);
      }

      .cls-16 {
        fill: url(#radial-gradient-9);
      }
    </style>
    <clipPath id="clippath">
      <rect class="cls-13" x="135.81" y="203.35" width="5000" height="3000"/>
    </clipPath>
    <radialGradient id="radial-gradient" cx="4153.28" cy="1092.22" fx="4153.28" fy="1092.22" r="1118.94" gradientUnits="userSpaceOnUse">
      <stop offset="0" stop-color="#e30513"/>
      <stop offset="1" stop-color="#c20501"/>
    </radialGradient>
    <radialGradient id="radial-gradient-2" cx="4153.88" cy="1091.98" fx="4153.88" fy="1091.98" r="1120.28" xlink:href="#radial-gradient"/>
    <radialGradient id="radial-gradient-3" cx="1880.35" cy="1995.51" fx="1880.35" fy="1995.51" r=".18" xlink:href="#radial-gradient"/>
    <radialGradient id="radial-gradient-4" cx="1846.67" cy="2030.55" fx="1846.67" fy="2030.55" r="90.02" xlink:href="#radial-gradient"/>
    <radialGradient id="radial-gradient-5" cx="1399.27" cy="2500.75" fx="1399.27" fy="2500.75" r="1228.38" xlink:href="#radial-gradient"/>
    <radialGradient id="radial-gradient-6" cx="807.02" cy="2720.87" fx="807.02" fy="2720.87" r="693.32" xlink:href="#radial-gradient"/>
    <radialGradient id="radial-gradient-7" cx="1648.48" cy="2227.72" fx="1648.48" fy="2227.72" r="56.12" xlink:href="#radial-gradient"/>
    <radialGradient id="radial-gradient-8" cx="1514.02" cy="2225.35" fx="1514.02" fy="2225.35" r="56.12" gradientTransform="translate(449.32 -242.48) rotate(10.99)" xlink:href="#radial-gradient"/>
    <radialGradient id="radial-gradient-9" cx="3816.53" cy="1605.76" fx="3816.53" fy="1605.76" r="27.6" gradientTransform="translate(4263.48 -1514.04) rotate(85.72) scale(.78 .95)" xlink:href="#radial-gradient"/>
    <radialGradient id="radial-gradient-10" cx="3836.62" cy="1688.31" fx="3836.62" fy="1688.31" r="38.92" gradientTransform="translate(3275.87 -1788.92) rotate(68.45) scale(.78 .95)" xlink:href="#radial-gradient"/>
    <radialGradient id="radial-gradient-11" cx="3870.71" cy="1767.8" fx="3870.71" fy="1767.8" r="35.41" gradientTransform="translate(1545.22 -1581.71) rotate(39.5) scale(.78 .95)" xlink:href="#radial-gradient"/>
    <radialGradient id="radial-gradient-12" cx="3912.69" cy="1856.43" fx="3912.69" fy="1856.43" r="29.47" gradientTransform="translate(690.08 -1143.88) rotate(23.96) scale(.78 .95)" xlink:href="#radial-gradient"/>
  </defs>
  <rect class="cls-13" x="135.81" y="203.35" width="5000" height="3000"/>
  <g class="cls-11">
    <g>
      <path class="cls-10" d="m5251.31,293.91c-2.94-67.29-5.89-134.57-8.83-201.86-.78-17.86-1.56-35.72-2.34-53.58-21.37.72-42.73,1.43-64.1,2.15-5.51,2.71-11.02,5.44-16.51,8.18-115.28,57.44-231.57,116.83-338.31,189.2-6.59,4.47-13.13,9.02-19.6,13.67-2.91,2.1-5.81,4.21-8.69,6.36-1.2.89-6.98,5.38-5.6,4.27-8.41,6.68-16.68,13.53-24.35,21.05-3.52,3.45-6.64,7.22-10.01,10.8-2.39,3.54-4.9,6.96-7.49,10.36-15.48,20.33-33.78,36.92-54.51,51.82-36.53,26.26-78.55,43.42-119.82,60.65-2.86,1.19-5.71,2.39-8.57,3.58-.8.34-1.75.74-2.23.95-4.08,1.76-8.17,3.52-12.23,5.34-6.62,2.97-13.19,6.06-19.58,9.5-3.63,1.96-7.09,4.16-10.63,6.28-.58.35-1.49,1-2.11,1.46-.91.76-1.81,1.54-2.7,2.33-5.87,5.22-11.22,11.02-16.32,16.99-2.21,2.59-4.37,5.22-6.5,7.88.1-.12-1.52,1.94-2.51,3.2-1,1.32-2.74,3.6-2.62,3.43-1.67,2.22-3.32,4.44-4.98,6.67-5.73,7.73-11.38,15.52-17.14,23.24-14.2,19.03-28.74,38-45.47,54.91-17.17,17.35-36.99,33.25-59,44-12.52,6.12-25.05,12.06-37.31,18.73-72.23,39.29-141.28,85.48-207.54,134.06-30.87,22.63-58.24,43.51-88.85,71.62-27.84,25.56-50.23,55.58-74.31,84.57-32.3,38.89-65.75,77.65-104.41,110.41-17.5,14.83-36.12,29.25-56.74,39.51-19.92,9.91-40.13,13.05-61.12,19.31-1.93.76-2.89,1.11-2.88,1.07-.77.35-1.54.69-2.3,1.07-2.13,1.08-4.25,2.15-6.33,3.32-3.38,1.91-6.61,4.02-9.79,6.23.96-.62-3.57,2.77-4.03,3.17-1.96,1.69-3.86,3.43-5.73,5.22-3.01,2.89-5.89,5.92-8.66,9.03-1.87,2.1-3.64,4.28-5.46,6.43-.34.4-.9,1.11-1.38,1.73-1.85,2.49-3.68,4.99-5.48,7.52-4.09,5.75-8.01,11.62-12.2,17.3-8.18,11.09-16.48,20.78-29.15,26.78-14.09,6.68-28.99,11.77-43.69,16.91-18.36,6.42-36.79,12.67-55.09,19.26-10.94,3.95-21.84,8-32.67,12.26-4.51,1.77-8.99,3.6-13.47,5.43-.4.16-.75.31-1.07.44-.21.09-.54.24-1.02.45-2.17.94-4.33,1.88-6.49,2.84-17.23,7.67-33.83,16.27-49.59,26.63-.97.67-1.93,1.36-2.89,2.06-.88.76-1.78,1.52-2.67,2.26-5.28,4.43-10.63,8.77-16.24,12.79-6.53,4.68-13.49,8.71-20.69,12.25-9.89,4.87-20.18,8.97-30.42,13.03-3.57,1.42-7.16,2.81-10.72,4.25-.83.33-4.76,2.01-4.42,1.84-.46.2-.93.4-1.39.61-9.11,4.1-17.96,8.77-26.27,14.34-1.49,1-2.94,2.05-4.41,3.07-.59.41-1.05.72-1.41.96-.34.32-.78.73-1.37,1.26-3.76,3.4-7.55,6.69-11.11,10.31-9.85,10-16.99,19.7-24.39,31.58-5.19,8.34-9.17,16.23-17.5,22.12-5.96,4.21-12.36,7.89-18.47,11.88-20.55,13.42-40.78,27.36-60.32,42.21-.27.23-5.05,3.94-5.69,4.45-1.53,1.23-3.06,2.46-4.58,3.7-3.04,2.48-6.06,4.99-9.03,7.55-4.4,3.78-8.74,7.65-12.94,11.66-3.58,3.42-7.09,6.92-10.41,10.6-.44.49-.88,1-1.31,1.5-5.17,11.32-18.83,21.12-27.31,29.16-12.78,12.12-25.76,24.06-39.34,35.28-7.74,6.4-15.62,12.75-23.93,18.4-2.74,1.87-6.37,4.41-10.08,6.48-.04,1.28-.54,5.56-.54,5.88-.04,7.73,1.33,16.88,7.72,24.85,1.21,1.51,2.72,2.79,4.08,4.14.26.26.62.55,1.01.84,2.81,1.67,5.62,3.31,8.45,4.95.13.08.25.15.37.22.3.06.65.14,1.07.25,1.58.39,3.14,1,4.72,1.43,2.52.68,5.07,1.17,7.63,1.7.58.12,1.04.22,1.41.31.46,0,1.06,0,1.83,0,26.99.47,50.26-4.66,76.84-13.12,23.61-7.52,40.89-14.59,62.6-26.91,8.35-4.74,16.48-9.88,24.3-15.45,1.39-1,2.77-2.01,4.14-3.03.59-.45,1.28-.98,1.68-1.32,2.94-2.47,5.9-4.9,8.75-7.47,4.93-4.44,9.67-9.11,14.13-14.03,1.89-2.08,3.68-4.24,5.51-6.38.17-.2.33-.38.48-.55.05-.07.08-.13.13-.2,3.38-5.06,6.44-10.14,9.55-15.35.29-.49.43-1.1.74-1.58.22-.34.3-.39.28-.24,1.13-2.11,2.51-4.11,4.55-6.15,3.47-3.47,6.56-4.92,10.58-7,29.95-15.47,59.3-32.35,87.47-50.88,9.15-6.02,18.17-12.23,26.97-18.76.13-.09,3.79-2.91,4.52-3.44,1.75-1.39,3.5-2.78,5.22-4.2,3.48-2.87,6.9-5.81,10.23-8.85,11.01-10.04,18.87-21.38,35.1-22.78,14.76-1.28,29.55-1.53,44.3-3.21,46.38-5.31,94.6-18.44,138.99-35.72,4.1-1.6,8.19-3.25,12.25-4.94-.16.03,7.33-3.21,8.74-3.84,6.2-2.79,12.36-5.69,18.45-8.73,7.22-3.59,14.19-7.59,21.3-11.38,21.94-11.72,48.57,5.93,69.41,13.88,16.15,6.16,32.37,12.18,48.8,17.54,7.21,2.35,14.47,4.66,21.86,6.42.56.13,1.26.23,1.99.32-.96-.48.66-.99,3.7.51,67.76,3.82,7.29,107.58.72,138.66-2.03,9.61-1.96,18.95-8.05,27.2-2.41,3.27-5.32,5.85-8.11,8.77-.52.54-5,5.8-4.48,4.91-3.35,4.54-6.45,9.27-9.58,13.95-11.14,16.64-21.86,33.55-32.95,50.23-11.68,17.57-23.63,35.11-37.16,51.32-5.27,6.32-11.02,12.34-17.88,16.98-.47,2.05-.93,4.13-1.47,6.15-.07.82-.16,1.65-.22,2.46-.23,3.44-.27,6.89-.17,10.33.07,2.29.39,4.59.42,6.87,0,.09,0,.16,0,.25.75,3.29,1.25,6.61,2.13,9.88.91,3.38,2.11,6.61,3.23,9.92-2.69-7.93,1.63,2.94,2.9,5.07.66,1.12,1.37,2.21,2.09,3.28.48.61,1.98,2.56,2.67,3.2.89.81,2.23,1.98,3.03,2.96.15.18.27.34.39.49.09.05.18.09.28.15,1.59.85,9.35,4.72,6.63,3.92,3.36,1.18,6.79,2.11,10.29,2.78-.23-.14,5.08.47,6.06.53,3.42.21,6.84.3,10.27.32,6.19.03,12.37-.22,18.54-.67,14.06-1.02,27.79-3.47,41.55-6.5,14.27-3.14,34.39,4.35,36.9,20.95,4.61,30.52,8.38,61.19,12.57,91.76,3.11,22.65,6.21,45.31,9.33,67.96.85,6.19,2.37,12.44,3.12,18.59.02.16.04.3.05.45.84,1.69,1.69,3.37,2.61,5.02,2.6,4.62,5.65,8.92,8.68,13.26.5.66.88,1.18,1.16,1.54.95,1.19,1.89,2.37,2.86,3.54,1.83,2.23,3.69,4.43,5.57,6.61,3.39,3.95,6.86,7.83,10.33,11.71,6.3,7.03,12.74,13.94,18.7,21.26,6.85,8.4,12.03,15.72,15.69,25.89.66,1.82,1.28,3.71,1.88,5.55.1.29.19.61.27.93.34.69.69,1.37.98,2.01,15.31,34.43,32.76,69.34,53.85,100.62.8,1.19,1.65,2.36,2.48,3.54,2.76,2.47,5.47,5.31,8.1,7.92,0,0,.01.01.02.02.14.06.3.13.47.2,1.04.47,2.31,1.18,3.43,1.88.41-.06.91-.09,1.39-.05.67-.5,1.11-.81,1.41-.99.03-.03.06-.06.09-.1,1.99-2.06,3.93-4.25,5.96-6.26.05-.05.09-.08.13-.12.08-.12.15-.23.24-.36.95-1.42,1.95-2.81,2.88-4.25,1.91-2.93,3.71-5.94,5.43-8.99,3.18-5.63,6.07-11.41,8.84-17.24,5.04-10.61,9.28-21.69,14.87-32.03,8.32-15.39,23.41-27.54,42.06-22.18,5.71,1.64,10.55,4.72,14.63,8.99,5.34,6.96,6.24,8.1,2.7,3.44.49.53.98,1.06,1.46,1.59-.57,1.17,8.34,5.61.47.85,1.8,1.09,3.82,2.13,5.55,3.3.1.07.18.13.27.19.2.02.41.04.66.08,2,.27,4.57,1.05,6.5,1.65.11.03.2.06.3.1.24-.01.5-.02.81-.03,2.15-.03,13.85-.83,10.03-.02,4.3-.77,8.53-1.79,12.68-3.18,1.27-.43,8.2-3.83,1.93-.63,2.19-1.12,4.39-2.18,6.52-3.42,1.55-.91,3.05-1.89,4.53-2.89.7-.52,1.7-1.29,2.19-1.78,1.34-1.35,2.67-2.7,3.99-4.06.15-.26,2.48-2.98,2.99-3.8.78-1.27,1.5-2.57,2.19-3.9-.2.11,1.41-3.96,1.63-4.8.41-1.54.74-3.09,1.04-4.66-.22.84.4-4.47.44-5.29.23-4.63.17-9.29-.07-13.92-.63-11.91-1.77-18.22-5.37-33.07-2.51-10.37-5.56-20.61-9.05-30.69-1.98-5.72-4.16-11.36-6.38-16.99-.08-.2-.15-.38-.22-.55-.1-.2-.21-.42-.33-.67-.89-1.82-1.68-3.7-2.56-5.53-1.23-2.55-2.49-5.09-3.89-7.55-.35-.62-.82-1.3-1.3-1.94-1.91-1.94-3.59-4.17-4.96-6.53-1.74-3-2.88-6.25-3.74-9.56-1.73-6.64-1.87-14.26-1.98-21.16-.3-17.58.62-35.19,1.13-52.76.64-21.93,1.16-43.89.61-65.83-.25-10.09-.72-20.2-1.72-30.25-.13-1.26-.28-2.52-.43-3.79-.15-1.07-.39-2.71-.53-3.39-.64-3.1-1.37-6.18-2.02-9.28-2.89-13.88.35-23.5,9.86-33.77.03-.03.05-.05.08-.08.08-.15.16-.3.25-.47,1.04-1.93,2.46-3.73,3.59-5.61,2.46-4.08,4.68-8.31,6.75-12.61.73-1.51,1.39-3.04,2.12-4.54.23-.48.43-.88.59-1.21.12-.32.26-.68.43-1.12,7.67-19.77,13.74-40.03,18.75-60.63,3.55-14.6,6.65-29.32,9.23-44.12,3.02-17.31,14.92-24.89,30.38-30.74,24.36-9.22,56.76-7.28,66.01,21.92,4.31,13.61,1.05,30.02-.03,43.94-2.92,37.58-6.72,75.58-5.53,113.31.12,3.69.47,7.36.68,11.04.16.61.31,1.28.42,1.91.7,1.16,1.31,2.4,1.92,3.59,7.84,15.15,13.67,31.53,20,47.35,3.82,9.55,7.64,19.1,11.53,28.62,1.73,4.24,3.48,8.48,5.26,12.71.39.9,1.82,4.24,2.01,4.68,1.04,2.39,2.08,4.78,3.14,7.16,3.92,8.84,7.98,17.64,12.45,26.22,1.25,2.4,7.64,17.14,10.99,19.42.05-.04.26.04.67.29.02,0,.05.01.07.01-3.18-4.01-3.83-4.86-1.96-2.56.57.67,1.16,1.33,1.76,1.97.32.14,1.62,1.5,1.72,1.65.01.02.02.03.03.05,1.76,1.27,3.49,2.59,5.25,3.87,8.9,6.46,17.97,12.67,27.05,18.86,13.44,9.17,27.14,18.04,40.26,27.67.83-.52,1.65-1.05,2.47-1.58.18-.12.47-.28.79-.47,2.29-2.16,4.74-4.12,6.97-6.36,1.94-1.95,9.75-12.13,4.48-4.55,2.21-3.18,4.46-6.31,6.43-9.65,1.77-3,3.17-6.19,4.87-9.21.1-.17.18-.33.27-.47.05-.17.11-.34.18-.53.76-2.21,1.6-4.38,2.31-6.61,1.79-5.63,2.92-11.34,4.21-17.09.15-.65.27-1.16.37-1.56.03-.37.06-.8.11-1.32.17-1.91.37-3.82.51-5.73.93-12.96.38-26.01-1.2-38.9.18,1.51-2.2-12.19-1.77-11-.32-1.31-.65-2.62-.96-3.93-.09-.39-.26-.83-.45-1.26-.1-.17-.2-.34-.29-.48-.88-1.49-1.75-2.97-2.68-4.43,3.48,5.68-8.51-6.49-3-2.96-3.21-2.13-6.68-3.77-9.89-5.88-.17-.11-.31-.21-.44-.3-.15-.05-.31-.1-.49-.15-1.45-.46-2.86-1.03-4.31-1.5-3.03-.97-6.1-1.8-9.2-2.48-.06-.01-.12-.02-.18-.03.09.49-2.65.84-6.5-1.21,1.63.87,4.61.83,6.5,1.21-.04-.2-.53-.42-1.62-.52-22.55-2.01-35.74-22.42-26.81-43.19.84-2.76,1.89-5.45,2.63-8.25.49-1.84.93-3.69,1.32-5.56.26-1.24.7-4.35.79-4.64.48-5.2.61-10.43.39-15.65-.27-6.45-.98-10.56-2.52-16.63-3.03-11.98-5.58-19.47-2.31-32.02,2.68-10.28-1.3,4.97,1.36-3.57.59-1.89,1.24-3.76,1.79-5.66,1.3-4.53,2.33-9.15,3.21-13.78.51-2.68.92-5.37,1.38-8.06.06-.38.11-.61.14-.76.03-.27.06-.59.1-.96.6-5.62,1.18-11.23,1.58-16.87.7-9.63,1.08-19.29,1.25-28.95.17-10,.17-20.02-.25-30.01-.4-9.5,5.79-21.93,14.86-25.9,2.97-1.3,5.93-2.61,8.89-3.93,37.99-16.92,76.67-33.73,112.6-54.76,3.03-1.77,5.96-3.65,8.9-5.55.13-.21.26-.42.41-.66,1.66-2.71,3.47-5.34,5.26-7.97,12.82-18.81,26.57-37.01,40.41-55.08,17.57-22.92,35.35-45.75,54.33-67.52,6.55-7.51,13.22-14.96,20.44-21.83,1.91-1.82,3.76-3.66,5.64-5.5.09-.09.16-.16.24-.24.09-.14.18-.28.29-.44,21.46-31.94,38.16-67.14,54.9-101.69,20.5-42.31,40.05-85.07,59.22-127.99,6.53-14.61,13.01-29.25,19.43-43.91,1.27-2.9,2.53-5.8,3.8-8.7.69-7.09,5.15-14.49,8.42-20.63,6.8-12.74,16.51-24.41,26.94-34.35,42.25-40.26,100.82-61.36,156.57-74.5,79.08-18.65,159.24-32.9,237.96-53.15-.08-3.96-.15-7.9-.32-11.79-1.03-23.44-2.05-46.88-3.08-70.32-3.08-70.42-6.16-140.83-9.24-211.25-3.58-81.77-7.16-163.54-10.73-245.32Z"/>
      <path class="cls-12" d="m5164.95,4.38c-96.91,47.11-192.68,97.48-285.31,152.52-29.83,17.72-59.37,36.03-87.82,55.9-20.87,14.58-42.1,29.88-59.7,48.4-9.46,9.96-16.41,21.82-25.57,32.04-15.07,16.81-33.07,30.62-52.22,42.47-36.65,22.66-76.96,37.86-116.35,54.87-14.85,6.41-30.17,12.95-43.23,22.64-14.03,10.4-25.26,24.04-35.89,37.76-27.2,35.1-51.24,73.32-85.9,101.81-26.78,22-61.17,34.55-91.15,51.75-35.77,20.52-70.66,42.59-105,65.41-67.49,44.84-136.93,92.04-194.24,149.77-30.27,30.48-55.25,66.36-83.39,98.8-32.68,37.67-67.54,76.37-109.65,103.73-16.53,10.74-33.32,17.99-52.66,21.63-21.66,4.07-41.5,13.66-58.44,27.7-13.51,11.19-24.46,24.99-34.58,39.22-6.46,9.09-12.52,21.19-21.99,27.57-9.34,6.29-21.64,9.45-32.11,13.19-18.48,6.59-37.08,12.82-55.56,19.39-37.96,13.49-76.98,27.44-111.58,48.41-15.46,9.37-28.16,22.36-43.9,31.26-14.94,8.45-31.22,13.93-46.99,20.54-17.83,7.46-34.52,16.59-49.36,29.08-8.59,7.23-16.35,15.41-23.39,24.15-3.93,4.88-7.69,9.9-11.25,15.06-4.64,6.73-8.46,16.03-14.61,21.38-10.91,9.49-25.63,16.6-37.63,24.8-10.48,7.17-20.84,14.51-31.02,22.09-13.82,10.28-27.42,20.93-40.2,32.49-9.87,8.92-18.16,18.33-26.19,28.8,1.23-1.61.7-.74-1.2.97-3.82,3.42-7.35,7.21-11.05,10.76-12.83,12.34-25.87,24.48-39.39,36.07-10.45,8.95-21.24,18.46-33.81,24.28-16.15,7.48-19.05,26.91-18.04,43.42,2.69,43.98,37.01,69.39,78.63,71.41,28.44,1.37,56.95-6.08,83.81-14.63,22.92-7.3,45.39-16.42,66.55-27.91,27.57-14.97,53.73-34.31,73.31-59.06,4.72-5.97,9.26-12.22,12.8-18.97.61-1.16,1.33-2.34,1.77-3.57,2.14-6.06-.4,3.32-2.37,2.28.33.17,2.39-1.27,2.74-1.4,11.05-4.02,21.91-11.58,32.12-17.3,18.47-10.35,36.68-21.19,54.42-32.75,17.66-11.51,35-23.72,51.03-37.45,5.55-4.75,12.75-14.47,18.73-17.25,4.93-2.29,14.72-.74,20.35-1.17,9.22-.71,18.41-1.67,27.58-2.85,48.77-6.25,96.66-18.66,142.44-36.6,15.46-6.06,30.72-12.69,45.62-20.03,6.65-3.28,17.06-6.6,22.42-11.9.14-.14,1.71-.81,1.69-1,.15,1.85-6.3-1.52-4.85,1.02,1.03,1.81,9.26,3.75,11.01,4.45,13.92,5.57,27.88,11.02,41.92,16.29,16.47,6.18,33.02,12.26,49.87,17.32,5.34,1.61,10.73,3.19,16.22,4.25,2.38.46,5.28,1.35,7.7,1.12.4-.04,1.76.32,2.11.04.34,0,.68-.04,1.02-.1-3.32-4.54-4.79-5.2-4.39-1.99-1.47,1.57-1.61,8.86-2.27,11.32-1.68,6.22-3.74,12.34-5.88,18.41-4.84,13.76-10.75,27.11-15.77,40.8-2.73,7.44-4.93,15.05-6.56,22.8-.87,4.14-.62,15.36-2.95,18.99,3.13-4.88-5.68,2.66-5.99,3-1.75,1.95-3.41,3.95-5,6.03-2.2,2.86-4.27,5.82-6.34,8.77-22.73,32.62-42.32,67.6-67.01,98.84-4.03,5.09-8.19,10.49-13.18,14.69-3.1,2.61-6.88,4.09-9.72,7.03-7.61,7.86-9.72,20.64-10.76,31.03-2.87,28.66,5.1,61.87,26.98,81.83,33.68,30.71,90.58,19.44,130.5,10.66-3.08-1.75-6.15-3.49-9.23-5.24,8.35,55.24,15.13,110.75,22.79,166.09,2.59,18.74,12.03,33.43,23.65,48.11,13.14,16.6,30.64,31.09,41.9,49.03,6.53,10.4,10,23.74,15.33,34.92,9.44,19.8,19.55,39.31,30.28,58.45,13.85,24.68,34.02,64.23,68.03,61.54,28.28-2.24,44.47-34.96,55.09-57.3,5.25-11.05,9.53-22.78,15.62-33.41.64-1.13,2.24-4.08,2.3-3.73-.28-1.69,1.44.5.15-.32-.43-.28-6.45.91-5.92-.79-1.35,4.36,16.35,14.71,19.25,16.13,35.4,17.37,84.62.69,104.36-32.76,11.45-19.41,11.14-43.28,8.34-64.95-3.17-24.52-9.98-48.61-18.94-71.63-4.65-11.95-9.62-28.62-19.7-37.32-2.58-2.22,1,.79,1.03,1.38.06,1.15-.25-1.31-.22-1.39.39-1.14-.39-4.67-.46-6.31-.33-7.76-.13-15.55.04-23.31.97-43.94,4.4-88.47-.39-132.3-.95-8.69-2.21-17.37-4.55-25.8-.64,2.43-1.29,4.86-1.93,7.3,26.43-28.56,36.94-72.51,45.66-109.29,3.23-13.61,7.85-28.46,8.71-42.5.05-.75.88-2.65.55-3.28-.97-1.79-4.48,2.52-2.22,3.1,1.16.3,6.05-2.64,7.21-3.06,4.1-1.52,8.66-3.19,13.07-3.43,6.62-.35,5.89,2.84,5.59,8.47-.38,7.07-.97,14.13-1.52,21.18-1.48,19.19-3,38.38-4.17,57.59-1.16,19.23-2.21,38.55-1.74,57.82.27,11.23.46,23.06,5.8,33.15,15.65,29.55,26.01,62.07,39.1,92.81,7.35,17.24,14.84,34.74,24.64,50.76,8.09,13.23,18.65,21.18,31.23,30.09,17.87,12.65,36.21,24.62,54.17,37.16,4.66,3.25,9.36,6.46,13.64,10.2-.74-.65,1.03,1.83,2.72,2.64,1.79.85,3.13,1.16,5.12,1.24,17.79.66,38-18.83,48.04-31.17,30.14-37.04,32.26-87.77,24.06-132.93-5.95-32.8-39.3-51.14-70.25-53.9,2.16,3.76,4.32,7.52,6.48,11.29,6.46-12.98,8.99-28.28,9.41-42.63.41-14.05-1.94-27.72-5.66-41.21-1.04-3.76-1.41-1.38-.8-5.27.33-2.1,1.66-4.37,2.33-6.42,1.55-4.79,2.74-9.68,3.75-14.61,6.56-31.94,7.43-65.67,6.05-98.19-1.24,2.16-2.48,4.32-3.71,6.48,31.85-13.94,63.51-28.47,94.52-44.2,14.52-7.37,32.13-14.63,44.01-26.13,9.09-8.8,15.47-22.58,22.88-32.84,29.09-40.28,59.12-82.04,94.47-117.13,21.91-21.75,35.46-49.87,49.43-77.14,37.23-72.68,70.56-147.46,103.14-222.32,4.79-11,6.54-18.61,13.39-28.63,23.42-34.25,65.53-54.37,103.33-67.8,38.06-13.53,77.81-20.68,117.2-29.09,33.18-7.08,66.32-14.35,99.39-21.91,31.23-7.14,62.74-13.94,93.6-22.63,1.18-.33,2.37-.63,3.56-.95,3.06-.84,5.65-3.97,5.51-7.23-1.23-28.18-2.47-56.36-3.7-84.54-2.94-67.29-5.89-134.57-8.83-201.86-3.58-81.77-7.16-163.54-10.73-245.32-3.08-70.42-6.16-140.83-9.24-211.25-1.03-23.44-2.05-46.88-3.08-70.32-.48-10.92-.17-22.23-1.45-33.09-.06-.49-.04-.99-.06-1.48-.17-3.95-3.3-7.64-7.5-7.5-33.35,1.12-66.69,2.24-100.04,3.36-9.63.32-9.67,15.32,0,15,33.35-1.12,66.69-2.24,100.04-3.36l-7.5-7.5c1.23,28.18,2.47,56.36,3.7,84.54,2.94,67.29,5.89,134.57,8.83,201.86,3.58,81.77,7.16,163.54,10.73,245.32,3.08,70.42,6.16,140.83,9.24,211.25,1.03,23.44,2.05,46.88,3.08,70.32.32,7.23.63,14.46.95,21.69.14,3.3-.57,8.25.5,11.41.14.41.05,1.03.06,1.48l5.51-7.23c-86.14,23.65-174.32,38.81-261.19,59.3-51.85,12.23-107.26,31.18-146.64,68.72-13.39,12.76-24.03,27.54-29.59,45.21,1.07-3.41-.04.16-.7,1.66-1.79,4.09-3.56,8.18-5.35,12.26-6.42,14.66-12.9,29.3-19.43,43.91-19.17,42.92-38.73,85.68-59.22,127.99-16.58,34.23-32.64,70.65-54.9,101.69-8.53,11.9-20.5,21.5-30.14,32.56-17.72,20.33-34.41,41.57-50.81,62.97-13.84,18.06-27.58,36.27-40.41,55.08-7.62,11.17-10.26,15.01-22.64,22.26-35.93,21.02-74.61,37.84-112.6,54.76-2.96,1.32-5.92,2.63-8.89,3.93-2.27.99-3.82,4.1-3.71,6.48,1.29,30.3.72,61.77-5,91.59-1.7,8.88-5.52,17.06-7.49,25.7-1.35,5.9,1.98,11.6,3.44,17.37,1.87,7.42,3,14.97,3.32,22.61.6,14.21-.86,30.56-7.3,43.49-2.66,5.36.66,10.77,6.48,11.29,7.49.67,19.27,3.98,27.6,8.05,21.35,10.44,27.4,27.01,30.19,49.37,4.86,38.94-.25,82.47-29.13,111.54-6.92,6.96-15.48,13.49-24.41,17.13-1.25.51-2.52.94-3.81,1.34-2.38.74-2.02.93-1.9.55-.36,1.13-2.52-2.58.66.23,4.68,4.13,4.82,3.82,2.52,1.22-1.64-1.86-3.65-3.32-5.6-4.84-14.47-11.24-30.1-21.06-45.23-31.37-13.75-9.38-31.71-18.42-41.92-31.91-10.33-13.64-17.28-30.4-24.18-45.94-8.56-19.3-16.34-38.94-24.19-58.55-5.61-14.01-10.78-28.55-17.74-41.97-4.75-9.18-5.75-16.98-6.09-27.89-1.19-37.73,2.62-75.73,5.53-113.31.85-11,4.94-27.23.84-37.96-6.05-15.82-26.33-10.83-38.33-6.2-9.13,3.52-13.01,5.56-14.66,15.02-2.58,14.8-5.68,29.52-9.23,44.12-4.99,20.54-10.82,41.02-18.75,60.63-3.45,8.54-7.4,16.95-12.16,24.85-4.52,7.5-12.96,13.54-11.51,22.6,6.32,39.46,6.06,78.57,4.9,118.52-.51,17.57-1.43,35.18-1.13,52.76.08,4.94-.03,10.35,1.18,15.17.36,1.43.7,2.91,1.48,4.19.47.78,1.1,1.44,1.62,2.18,2.9,4.03.28-.35,1.53,1.32,8.35,11.19,14,27.94,18.74,41.65,7.75,22.41,13.97,45.98,15.23,69.74,1.12,21.23-2.39,41.47-18.8,56.33-14.33,12.97-34.55,19.7-53.79,18.51-8.93-.55-18.12-3.08-25.45-8.37-4.85-3.5-7.98-10.78-13.88-12.6-8.2-2.53-13.39,5.8-16.65,11.84-12.1,22.4-19.25,47.77-35.91,67.56-6.86,8.15-16.15,16.1-27.56,14.19-13.36-2.23-23.94-14.25-31.12-24.9-21.09-31.28-38.54-66.19-53.85-100.62-4.81-10.82-7.69-20.43-15.3-29.83-13.59-16.8-29.36-31.74-42.14-49.22-10.09-13.8-14.45-26.11-16.74-42.68-3.12-22.65-6.23-45.3-9.33-67.96-4.19-30.58-7.96-61.25-12.57-91.76-.63-4.15-5.66-6.02-9.23-5.24-39.65,8.72-102.01,21.65-127.21-20.79-7.72-13-11.29-28.32-11.75-43.35-.3-9.91-.34-24.49,5.9-32.96,1.79-2.43,3.75-3.06,6.51-4.99,5.36-3.75,9.77-8.89,13.93-13.88,12.3-14.74,23.03-30.8,33.64-46.77,11.08-16.68,21.81-33.59,32.95-50.23,3.73-5.57,7.4-11.28,11.54-16.57,3.62-4.62,9.38-8.43,12.39-13.33,3.34-5.44,2.71-13.36,4.02-19.55,5.79-27.4,19.67-52.36,27.42-79.22,3.29-11.41,8.49-29.03-7.67-31.03-27.77-3.44-55.09-15.6-81.11-25.52-12.72-4.85-25.4-9.83-38.02-14.93-5.39-2.18-8.43-3.87-14.05-1.22-22.12,10.46-43.18,22.22-66.12,31.15-46.49,18.1-95.38,30.85-144.97,36.52-6.59.75-13.2,1.39-19.82,1.9-7.66.59-17.09-.54-24.48,1.31-7.64,1.92-13.36,10.88-19.19,16.19-15.89,14.49-33.56,26.98-51.5,38.77-28.17,18.52-57.51,35.4-87.47,50.88-2.13,1.1-4.12,2.04-6.03,3.48-.53.4-3.45,5.72-1.31,1.83-.28.51-.47,1.07-.74,1.58-2.84,5.35-5.96,10.47-9.55,15.35-17.41,23.71-41.83,42.12-67.2,56.51-21.51,12.21-44.43,21.68-67.98,29.18-26.57,8.46-54.69,16.01-82.82,13.92-17.26-1.28-34.79-7.13-46.49-20.44-9.79-11.14-14.39-26.09-14.31-40.76.04-7.37.73-19.37,7.19-23.98,4.28-3.05,10.08-4.74,14.58-7.81,6.73-4.58,13.11-9.7,19.38-14.89,13.57-11.23,26.56-23.17,39.34-35.28,8.71-8.26,17.08-16.09,24.24-25.58,11.62-15.39,33.06-32.38,49.97-45.35,20.01-15.34,40.83-29.63,61.93-43.42,5.84-3.82,13.45-7.17,18.47-11.88,4.09-3.84,6.45-9.26,9.43-14.04,8.07-12.95,17.18-25.26,27.91-36.14,27.36-27.76,62.27-36.55,96.1-53.19,15.92-7.83,28.11-19.39,42.49-29.36,15.42-10.7,32.48-19.02,49.59-26.63,37.46-16.67,76.52-29.42,115.18-42.94,22.58-7.9,44.67-13.52,59.4-33.35,21.79-29.34,41.38-59.63,77.7-72.43,18.7-6.59,37.69-8.07,55.74-17.05,18.95-9.42,36.1-22.35,52.19-35.99,38.67-32.76,72.11-71.52,104.41-110.41,24.08-28.99,46.47-59.01,74.31-84.57,29.43-27.03,61.2-51.53,93.4-75.14,66.26-48.58,135.31-94.78,207.54-134.06,12.26-6.67,24.79-12.61,37.31-18.73,20.42-9.98,38.52-24.39,54.45-40.48,29.97-30.29,51.65-67.08,79.21-99.32,10.58-12.37,21.95-22.82,36.31-30.57,15.44-8.33,31.82-14.89,47.99-21.64,39.51-16.49,79.49-33.26,114.44-58.38,17.36-12.48,33.34-26.78,46.44-43.74,6.9-8.94,12.91-17.77,21.02-25.71,18.94-18.55,40.91-34.03,62.79-48.87,106.74-72.37,223.03-131.77,338.31-189.2,8.11-4.04,16.22-8.07,24.36-12.03,8.68-4.22,1.08-17.16-7.57-12.95Z"/>
      <path class="cls-3" d="m2790.85,1754.82c-.87-3.41-3.01-5.18-6.31-4.55-1.84.35-4.74-.26-8.52-1.67-39.56-14.81-174.5-117.33-174.5-117.33,0,0-172.72-70.33-247.37-110.98-74.66-40.64-328.4,5.4-377.09,11.08-48.69,5.68-165.35-42.41-200.65-62.97-35.3-20.56-311.76,77.49-364.78,116.58-53.02,39.09-426.59,115.56-628.33,184.33-201.73,68.77-323.19,296.8-341.38,352.39-18.2,55.59-150.27,157.36-225.28,219.58-75,62.22-198.35,274.01-198.35,274.01-68.82,203.38,207.85,1094.44,467.95,891.36,260.1-203.07,351.88-703.2,399.09-897.89,47.2-194.7,179.28-296.47,179.28-296.47,0,0,48.69-25.44,145.09,9.81,145.01,53.02,190.16,43.62,410.15-27.28,220-70.89,429.07,37.87,429.07,37.87,0,0,6.6,63.24,20.4,95.56,13.8,32.32,100.65,29.9,110.33,20.29,9.67-9.62.49-94.92.49-94.92,0,0,32.97,11.58,72.99,2.03,80.39-24.8,48.29-141.36,48.29-141.36,0,0-43.9-67.88-136.82-106.4,6.36-33.64-94.27-182.31-94.27-182.31,0,0,153.71,101.35,212.02,81.17,20.58,53.12,127.17,94.16,127.17,94.16,0,0,1.71,23.45,52.76,99.75,51.05,76.3,162.22,6.78,128.69,1.44-33-5.26-101.56-135.91-103.68-139.97,1.1,1.81,17.9,28.57,85.85,75.22,70.41,48.34,159.8-22.76,150.67-21.69-9.13,1.06-128.71-138.19-131.72-164.05-3.02-25.86-177.71-191.08-184.87-209.78,9.56,15.85,108.26,29.01,108.26,29.01,0,0,47.19,60.82,155.65,65.14,76.89,3.05,112.36-43.31,118.96-69.13.56-2.14.91-4.13,1.07-5.95.21-2.36.09-4.42-.33-6.08Zm-893.1,330.74c-24.04-3.36-198.15-59.14-144.67-76.69,0,0,102.52-20.18,106.06-33.97,12.02,32.53,80.69,92.38,80.69,92.38l10.67,12.12s-28.7,9.52-52.74,6.15Z"/>
      <g>
        <path class="cls-14" d="m1880.45,1995.64s.04.05.05.07c-.13-.17-.23-.3-.31-.4,0,0,.01.02.02.03.08.1.16.2.23.31Z"/>
        <path class="cls-7" d="m1948.3,2065.58c-1.18-1.34-2.29-2.82-3.63-4.01-4.2-3.7-8.34-7.48-12.44-11.29-7.77-7.23-15.39-14.61-22.83-22.18-8.6-8.76-16.97-17.77-24.78-27.26-.95-1.15-1.88-2.31-2.81-3.47-.41-.52-.82-1.04-1.23-1.56-.02-.03-.05-.07-.08-.1.11.15.24.31.39.51-.15-.19-.3-.39-.44-.58-.32-.42-.76-.99-.26-.33-1.68-2.21-3.32-4.44-4.9-6.72-2.79-4.04-5.43-8.23-7.59-12.64-.34-.69-.65-1.39-.96-2.09-.12-.31-.25-.62-.37-.93-1.12-3.01-3.76-5.66-7.23-5.51-3.01.13-5.81,1.89-6.94,4.71-.07.07-.13.13-.2.2-.11.1-.22.2-.33.3-.34.24-.68.49-1.03.71-2.43,1.55-5.06,2.8-7.71,3.95-11,4.56-22.55,7.84-34.03,10.94-12.2,3.29-24.49,6.23-36.83,8.98-6.81,1.52-13.63,2.98-20.47,4.35-.82.16-1.6.46-2.39.77-2.04.79-4.13,1.63-5.99,2.81-3.39,2.16-6.4,5.24-7.39,9.26-1.89,7.73,3.48,14.51,9.08,19.12,7.43,6.11,15.89,10.8,24.47,15.07,11.12,5.53,22.6,10.37,34.15,14.93,11.69,4.62,23.51,8.91,35.42,12.95,10.58,3.59,21.23,7,31.96,10.13,7.2,2.1,14.45,4.2,21.81,5.69,1,.2,2.01.39,3.02.53.32.05.63.08.94.11,17.35,2.2,35.14-.39,51.89-5.1,1.3-.37,2.61-.74,3.9-1.17,5.54-1.83,7.12-8.21,3.31-12.54-2.5-2.84-5-5.68-7.5-8.52Zm-96.73-92.88c-.61.5-1.06.77,0,0h0Zm-100.07,46.37c.46.56.3.39,0,0h0Zm3.92,3.75c.22.16.4.3.57.43-.04-.03-.08-.05-.11-.08-.15-.11-.3-.23-.45-.34Zm.97.74c-.09-.07-.18-.14-.26-.21,1.45,1.1.72.57.26.21Zm142.69,54.65c-3.58-.55-7.13-1.47-10.64-2.37-6.01-1.55-11.98-3.26-17.93-5.05-7.53-2.26-15.02-4.64-22.48-7.12-8.24-2.74-16.43-5.6-24.58-8.59-8.28-3.04-16.52-6.22-24.67-9.6-.57-.24-1.13-.47-1.7-.71-8.96-3.79-17.84-7.82-26.41-12.42-3.57-1.92-7.1-3.94-10.49-6.17-1.4-.92-2.77-1.87-4.11-2.87-.21-.17-.43-.34-.64-.51-.58-.48-1.15-.97-1.7-1.48-.91-.83-1.74-1.73-2.54-2.66-.14-.19-.27-.38-.38-.56,0,0,0-.02-.01-.02.24-.15.47-.3.71-.44.5-.29,1.02-.54,1.54-.79,3.19-1.19,6.58-1.66,9.91-2.36,8.14-1.71,16.26-3.51,24.36-5.41,10.47-2.45,20.9-5.06,31.25-7.97,9.38-2.64,18.78-5.46,27.81-9.15,3.5-1.43,7.03-2.92,10.32-4.81,3.62,6.48,8.04,12.51,12.58,18.37,7.62,9.84,15.97,19.1,24.57,28.08,7.9,8.25,16.05,16.26,24.37,24.1,4.94,4.65,9.93,9.25,15.01,13.74.84.75,1.57,1.45,2.31,2.3.47.53.94,1.07,1.41,1.6-4.41,1-8.86,1.79-13.31,2.42-8.14,1.03-16.41,1.41-24.57.45Z"/>
        <path class="cls-6" d="m2798.08,1752.83c-.25-1.72-.92-2.98-1.85-3.87-2.73-4.46-6.21-5.12-11.69-6.19-5.67-1.1-10.17-2.84-15.32-5.47-10.68-5.44-20.9-11.82-31.01-18.25-25.27-16.09-49.79-33.39-74.1-50.89-24.71-17.79-47.34-38.62-75.52-50.27-56.29-23.27-112.37-47.18-167.6-72.88-24.81-11.54-48.95-26.58-74.46-36.35-23.42-8.97-49.62-11.02-74.46-12.03-64.28-2.62-129.05,4.62-192.71,12.87-25.76,3.34-51.47,7.09-77.17,10.86-20.54,3.01-39.16,5.04-59.92,1.27-33.91-6.16-66.97-17.8-98.92-30.49-14.98-5.95-29.81-12.33-44.32-19.37-7.78-3.77-15.47-9.33-23.73-11.93-14.77-4.66-32.96-.71-47.7,1.88-25.52,4.48-50.65,11.27-75.49,18.55-58.32,17.09-115.85,37.63-171.77,61.44-20.6,8.77-41.33,17.86-60.68,29.18-11.95,6.98-22.62,14.51-35.53,19.85-49.07,20.28-101.66,33.14-152.82,46.91-72.13,19.42-144.57,37.68-216.79,56.75-70.05,18.5-140.11,37.36-209.06,59.67-69.88,22.6-131.65,57.03-186.7,105.88-79.55,70.58-145.97,162.35-184.69,261.61-10.52,26.96-33.9,49.47-54,69.45-27.5,27.33-56.97,52.65-86.69,77.51-27.72,23.17-56.28,45.39-83.71,68.89-21.2,18.16-39.26,40-56.45,61.88-38.93,49.55-73.73,102.36-107.09,155.77-15.34,24.57-34.23,48.63-40.12,77.43-7.21,35.22-6.78,71.96-4.54,107.66,3.02,48.07,10.25,95.9,19.49,143.15,21.64,110.73,54.55,219.8,97.46,324.14,37.92,92.2,83.65,186.5,151.56,260.7,45.42,49.63,111.72,94.68,181.13,67.49,18.39-7.21,34.15-18.33,49.35-30.77,25.26-20.67,48.44-43.8,69.78-68.47,45.3-52.37,82.56-111.32,114.48-172.64,65.27-125.37,109.75-260.95,146.18-397.15,15.42-57.65,29.22-115.7,42.61-173.84,13.89-60.36,26.32-121.04,51.56-177.98,26.25-59.21,62.33-114.36,106.86-161.45,10.53-11.13,21.51-21.93,33.23-31.81,1.01-.85,4.58-3.15,4.48-3.29,2.57-1.04,7.7-2.64,11.23-3.52,67.64-16.82,132.81,20.49,196.55,37.07,53.33,13.87,106.14,14.11,160.05,3.3,35.98-7.21,71.3-17.6,106.36-28.33,47.06-14.41,93.47-31.93,142.05-40.59,85.14-15.19,173.5-7.57,256.58,15.19,33.76,9.25,68.13,20.39,99.53,36.23,2.5,22.12,6.12,44.29,11.54,65.85,3.03,12.03,5.99,26.64,14.34,36.3,7.5,8.68,18.61,13.56,29.39,16.78,22.75,6.78,49.57,8.25,72.89,3.55,20.11-4.06,21.06-19,21.4-37.29.37-19.59-.95-39.31-2.85-58.85,29.4,7.11,65.55,4.81,89.8-12.24,24.37-17.13,34.31-46.07,36.35-74.73,1.41-19.89.55-43.38-5.67-62.6-3.94-12.19-15.87-23.14-24.37-32.25-31.53-33.82-70.26-60.48-112.56-78.96-.27-12.46-5.87-24.94-10.7-36.06-9.44-21.71-21.05-42.47-32.97-62.89-10.64-18.22-21.67-36.24-33.09-54.01,19.35,11.52,39.21,22.24,59.35,32.12,22.69,11.13,46.13,21.48,70.51,28.34,16.75,4.71,35.55,8.58,52.96,4.97,14.39,27.95,42.42,47.48,68.87,63.08,17.76,10.47,36.41,19.85,55.57,27.58,3.78,21.12,18.7,42.92,29,60.27,13.65,22.99,27.34,49.62,50.6,64.33,16.68,10.55,36.93,14.19,56.41,12.4,16.59-1.53,33.42-6.43,47.77-15.01,7.67-4.58,20.09-12.97,17.87-23.6-2.05-9.86-15.1-9.9-21.96-15.18-14.18-10.91-25.07-26.96-35.13-41.5-9.03-13.05-17.59-26.45-25.79-40.09.74.61,1.47,1.22,2.2,1.82,34.8,28.77,70.34,56.32,117.84,51.29,29.06-3.08,60.77-15.16,83.21-34.36,5.66-4.84,10.62-11.28,3.31-17.36-.05-.04-2.51-1.14-3.48-1.46-.2-.15-.38-.28-.46-.35-2.56-2.24-5.09-4.5-7.54-6.88-20.64-19.97-39.26-42.28-57.51-64.41-18.76-22.74-38.01-46.02-53.02-71.49-7.45-12.65-10.53-25.42-19.68-37.41-16.65-21.82-35.71-41.87-54.49-61.83-24.96-26.53-50.45-52.57-75.61-78.92-7.56-7.92-15.13-15.85-22.53-23.93,15.41,4.44,31.25,7.53,47.02,10.33,9.65,1.72,20.76,4.99,30.73,5.09,1.17,2.35,5.05,5.14,6.7,6.73,22.1,21.33,50.13,36.37,79.15,45.93,43.87,14.45,96.69,20.18,140.08,1.43,28.6-12.36,65.66-44.11,60.64-79.25Zm-208.65,454.9c.17-.2.88-.44,0,0h0Zm128.58-95.23c-.05,0-.15.04-.28.13.01-.1.1-.16.28-.13Zm50.65-321.51c-10.63,12.79-24.78,22.54-40.19,28.69-41.69,16.64-92.71,9.13-133.86-5.81-24.64-8.95-48.56-22.56-67.25-41.15-3.01-3-5.47-6.43-9-8.72-2.47-1.6-.84-.34-5.3-1-4.98-.73-9.95-1.48-14.91-2.29-16.11-2.61-32.2-5.56-48.08-9.38-9.23-2.22-30.37-4.78-36.38-13.28-5.67-8.03-16.69-1.23-12.95,7.57,5.65,13.29,20.28,25.34,29.9,35.62,20.13,21.51,40.73,42.57,61.14,63.81,20.79,21.65,41.58,43.34,61.47,65.83,10.9,12.32,25.96,26.77,31.5,42.12,6.61,18.32,17.3,33.73,28.91,49.45,18.03,24.4,37.31,47.92,57.23,70.8,12.63,14.51,25.77,32.25,41.49,44.11-9.51,7.24-20.4,13.04-31.32,17.71-18.96,8.12-39.74,12.93-60.44,11.35-27.52-2.1-48.76-18.35-70.03-34.47-19.62-14.87-43.61-32.1-56.83-53.58-5.07-8.25-17.43-.98-12.95,7.57,11.04,21.07,22.94,41.74,35.49,61.94,16.14,26,34.22,57.91,60.02,75.63,2.87,1.97,6.82,4.7,10.52,5.5-3.83,2.2-7.52,6.17-11.48,8.27-6.8,3.62-14.07,6.24-21.51,8.17-17.06,4.43-35.65,4.81-52.27-1.62-23.87-9.23-36.28-31.5-49.16-52.17-11.28-18.11-22.51-36.8-30.63-56.6-1.57-3.83-2.87-7.72-4.1-11.67-.36-1.16-1-6.08-.69-2.46-.31-3.63-2.17-5.94-5.51-7.23-17.71-6.86-34.9-15.5-51.39-24.87-26.3-14.94-58.44-34.79-70.54-64.06-1.5-3.62-4.98-6.6-9.23-5.24-18.23,5.83-38.79.42-56.47-4.99-24.14-7.4-47.25-17.94-69.73-29.33-27.42-13.9-54.36-29.18-80.05-46.09-6.16-4.05-14.44,4.08-10.26,10.26,16.51,24.42,32.24,49.41,47.28,74.75,11.44,19.28,22.56,38.83,32.22,59.07,5.47,11.45,16.04,29.32,14.01,42.71-.45,2.96.22,7.1,3.45,8.47,36.7,15.52,70.56,36.95,99.54,64.38,11.59,10.97,25.91,23.84,33.88,38.12.09.26.31.9.55,1.8.69,2.61,1.2,5.28,1.71,7.93,1.83,9.39,2.99,18.9,3.48,28.46,1.28,24.81-1.45,52.56-17.55,72.63-22.63,28.22-68.28,29.62-100.3,18.71-4.28-1.46-10,2.5-9.49,7.23,2.3,21.59,4.01,43.42,3.94,65.13-.02,6.44,1.47,20.8-3.52,25.03-6.72,5.69-26.06,3.7-34.13,3.54-14.39-.29-29.27-1.94-42.84-6.98-16.37-6.07-21.21-16.27-25.83-32.39-4.79-16.73-7.96-33.95-10.62-51.13-1.19-7.72-.27-19.9-3.86-27.02-4.2-8.33-22.25-12.54-29.93-15.74-25.84-10.79-52.42-19.78-79.42-27.18-82.63-22.64-169.97-30.3-254.83-16.83-51.36,8.15-100.11,26.37-149.64,41.58-36.75,11.28-73.78,22.24-111.54,29.59-57.83,11.26-112.95,7.41-169.22-9.61-60.81-18.39-127.88-51.34-192.41-29.01-6.58,2.28-10.75,5.31-15.95,9.77-13.4,11.49-25.9,24.07-37.8,37.1-46.23,50.64-83.25,109.54-109.41,172.88-23.79,57.58-35.6,118.88-49.57,179.35-30.78,133.15-64.98,265.82-113.29,393.83-51.23,135.73-118.76,274.18-225.85,374.91-30.4,28.6-64.81,58.24-108.83,58.6-34.46.28-66.42-16.85-92.52-38.12-76.7-62.49-125.79-158.75-165.45-247.32-48.38-108.01-84.57-222.19-109.3-337.89-10.82-50.62-19.45-101.87-23.5-153.52-2.96-37.7-4.5-76.96,2.86-114.28,5.87-29.77,27.14-56.63,44-83.42,35.54-56.47,72.47-112.91,115.44-164.08,44.94-53.51,104.28-93.25,156.78-138.87,44.9-39.01,93.9-79.85,115.9-136.47,17.9-46.07,45.52-89.44,74.21-129.41,42.92-59.79,94.64-114.75,155.56-156.45,62.97-43.11,134.77-64.04,207.32-84.95,76.59-22.08,153.81-41.94,230.96-61.95,67.44-17.49,135.07-34.56,201.79-54.68,22.5-6.79,45.06-13.81,66.81-22.75,13.65-5.61,24.98-13.16,37.57-20.6,47.49-28.05,101.65-46.8,153.48-64.95,53.19-18.63,109.27-38.75,165.58-45.24,7.04-.81,14.71-1.75,21.78-.68,7.49,1.14,14.53,6.59,21.79,10.17,30.41,14.98,62.24,27.55,94.45,38.06,28.84,9.41,61.64,20.09,92.42,17.34,18.83-1.68,37.61-5.27,56.31-7.97,65.39-9.46,131.27-17.9,197.39-19.57,30.03-.76,60.88-.67,90.43,5.36,26.03,5.31,48.33,19.73,72.03,31.13,59.32,28.51,119.99,54.31,180.75,79.59,7.56,3.15,15.13,6.28,22.71,9.39.78.32,1.63.6,2.45.93.07.19,1.55,1.28,2.26,1.87,16.01,13.19,33.47,24.97,50.26,37.12,24.73,17.9,49.68,35.57,75.32,52.15,10.23,6.61,20.57,13.12,31.29,18.93,4.04,2.19,8.12,4.3,12.35,6.1,2.88,1.23,11.76,2.81,14.23,4.12.86,11.51-8.28,24.69-15.09,32.88Z"/>
      </g>
      <path class="cls-8" d="m65.31,2588.85c3.19-3.13,59-135,224-266s181-182,181-201,277-51,458,6,506,165,606,147-92,75-204,53-182-70-251-56-163,146-207,273-115,552-249,733-487-55-487-55c0,0-125-581-71-634Z"/>
      <path class="cls-1" d="m1577.81,2262.35s34,8,100-13,40-64,11-57-54,63-111,70Z"/>
      <path class="cls-5" d="m1435.51,2251.25s31.85,14.33,100.64,6.3c68.79-8.03,51.47-55.2,21.66-53.86s-65.02,51.55-122.31,47.56Z"/>
      <path class="cls-16" d="m2952.84,1599.68c-11.55.87-21.49-6.13-22.2-15.63-.71-9.5,8.07-17.9,19.62-18.76,11.55-.87,36.14,14.59,41.63,14.17-9.32,2.44-27.51,19.35-39.05,20.22Z"/>
      <path class="cls-2" d="m2880.37,1625.18c-15.19,6-31.5.74-36.43-11.75-4.93-12.49,3.38-27.48,18.57-33.48,15.19-6,54.76,4.51,61.99,1.65-11.52,7.18-28.93,37.57-44.12,43.57Z"/>
      <path class="cls-15" d="m2822.89,1670.29c-9.45,11.46-24.75,14.46-34.18,6.69-9.43-7.77-9.41-23.36.04-34.83,9.45-11.46,45.58-20.52,50.08-25.97-6.01,10.79-6.49,42.65-15.94,54.11Z"/>
      <path class="cls-4" d="m1164.31,1695.49c-19.13,6.46-38.94-1.05-44.26-16.78-5.31-15.73,5.89-33.72,25.01-40.18,19.13-6.46,67.34,8.98,76.44,5.91-14.68,8.15-38.07,44.59-57.2,51.06Z"/>
      <path class="cls-4" d="m2031.74,1558.61c-19.71,4.39-38.61-5.18-42.23-21.38-3.61-16.2,9.43-32.9,29.14-37.3,19.71-4.39,66,16.08,75.38,13.99-15.46,6.55-42.59,40.3-62.3,44.69Z"/>
      <path class="cls-4" d="m640.72,1899.93c-14.41,14.15-35.52,16.01-47.15,4.16-11.63-11.85-9.38-32.92,5.02-47.06,14.41-14.15,64.53-21.23,71.39-27.97-9.67,13.73-14.85,56.72-29.26,70.87Z"/>
      <path class="cls-4" d="m600.97,1974.45c-2.79,13.5-14.05,22.58-25.15,20.29-11.1-2.3-17.84-15.1-15.04-28.6,2.79-13.5,28.52-36.57,29.85-43-.26,11.46,13.14,37.81,10.35,51.31Z"/>
      <path class="cls-4" d="m592.35,2084.52c-4.42,21.4-22.27,35.79-39.86,32.15-17.59-3.64-28.27-23.93-23.84-45.33,4.42-21.4,45.2-57.97,47.31-68.15-.41,18.16,20.83,59.93,16.4,81.32Z"/>
      <path class="cls-4" d="m2587.06,1898.71c10.91,13.35,10.85,31.45-.13,40.42-10.98,8.97-28.72,5.41-39.63-7.94-10.91-13.35-13.03-56.53-18.22-62.88,10.92,9.29,47.07,17.05,57.98,30.4Z"/>
      <path class="cls-4" d="m2687.01,2060.57c6.19,7.58,6.16,17.86-.08,22.95-6.23,5.09-16.31,3.07-22.5-4.51-6.19-7.58-7.4-32.1-10.34-35.71,6.2,5.27,26.73,9.68,32.92,17.27Z"/>
      <path class="cls-4" d="m1220.45,1681.76c-8.34,1.86-18.03-9.77-21.64-25.97s.22-30.85,8.56-32.71c8.34-1.86,31.71,23.73,35.68,22.85-6.16,4.47-14.25,33.98-22.59,35.84Z"/>
      <path class="cls-4" d="m2277.63,1532.22c-15.82.11-28.72-10.35-28.81-23.36-.09-13.01,12.67-23.65,28.49-23.75,15.82-.11,47.9,23.23,55.43,23.18-12.93,2.46-39.29,23.83-55.11,23.93Z"/>
      <path class="cls-9" d="m2785.71,1733.93c-5.02,11.3-16.62,17.11-25.91,12.98-9.29-4.13-12.75-16.63-7.73-27.93,5.02-11.3,31.97-26.62,34.36-31.99-2.41,9.99,4.31,35.64-.71,46.94Z"/>
    </g>
  </g>
</svg>