<?xml version="1.0" encoding="UTF-8"?><svg id="Layer_1" xmlns="http://www.w3.org/2000/svg" viewBox="0 0 958.31 475.31"><defs><style>.cls-1{fill:#ff0101;}</style></defs><path class="cls-1" d="m151.38,0c.68,4.65,15.83,44.56,26.42,66.22,2.74,5.6,13.97,25.02,37.71,63.07,3.2,5.13,6.37,10.29,9.45,15.5,13.24,22.39,26.68,44.68,39.14,67.51,11.7,21.42,21.95,43.66,28.88,67.15,6.54,22.18,11.8,44.86,9.02,68.15-2.11,17.65-6.62,34.51-16.02,50.5-8.79,14.95-19.6,27.34-32.49,38.24-22.71,19.21-48.65,32.1-77.96,37.37-8.95,1.61-18.26,1.53-27.4,1.59-18.85.12-36.9-4.12-54.3-11.2-31.98-13.01-56.05-35.07-74.07-64.4C5.79,376.99.42,352.32.01,325.97c-.29-18.52,3.72-36.11,9.45-53.38,5.13-15.46,9.98-30.99,18.39-45.26,7.99-13.55,14.11-28.2,21.93-41.86,5.74-10.03,13.12-19.11,19.39-28.86,15.22-23.68,30.46-47.35,45.21-71.32,6.7-10.88,13.04-22.13,18.1-33.84,7.28-16.87,18.13-46.78,18.89-51.44Zm34.16,283.66c-.09,30.84-.19,61.69-.25,92.53,0,2.35.2,4.69.38,8.49,2.76-2.14,4.24-3.08,5.47-4.28,14.17-13.82,28.33-27.66,42.41-41.57,2.34-2.31,4.71-4.74,6.37-7.53,9.28-15.62,9.77-28.59-2.23-43.47-11.09-13.75-27.9-16.48-43.65-8.5-2.92,1.48-5.81,3.03-8.71,4.55v-28.3c-31.05-14.74-57.38-5.06-83.84,31.46v-86.55c-19.67-1.97-29.32,6.17-30.18,24.45-.1,2.2-.06,4.42-.06,6.62.01,47.48.03,94.96.05,142.45,0,3.61,0,7.22,0,10.69,13.41,1.71,22.13-2.33,26.85-12.91,2.02-4.52,2.54-9.8,3.21-14.81.49-3.62.04-7.35.13-11.03.09-3.64.33-7.27.56-12.15,5.08,8.99,8.92,16.42,15.5,22.43,8.59,7.86,16.07,16.94,24.28,25.24,1.91,1.93,4.74,3.73,7.34,4.04,5.43.66,10.98.35,16.49.35,5.67,0,11.35-.12,19.2-.22-4.16-4.24-6.61-6.8-9.13-9.28-12.05-11.86-24.19-23.63-36.16-35.58-3.36-3.35-6.54-6.98-9.28-10.85-8.73-12.32-7.38-29.58,2.08-41.24,11.25-13.87,30.39-15.15,45.34-8.48,2.6,1.16,5.22,2.28,7.83,3.42Z"/><path class="cls-1" d="m634.52,59.28c2.86,0,5.13,0,7.4,0,55.41,0,110.83-.26,166.24.19,17.35.14,33.14,8.53,45.1,30.44,9.22,16.89,14.56,37.16,15.02,59.45.74,35.58,1.06,71.3.05,106.84-1.6,56.75-27.3,93.13-58.7,92.87-28.54-.23-57.07-.04-85.61-.04-3.57,0-7.14,0-11.68,0v95.65h-77.09c-1.73-12.04-2.46-354.18-.73-385.41Zm78.24,172.21c12.09,3.07,68.65,2.29,76.38-1.3.91-17.05.64-34.54.18-51.57-7.84-4.55-67.5-5.11-76.56-1.11v53.98Z"/><path class="cls-1" d="m625.77,59.22c-38.73,65.11-75.69,127.26-113.51,190.85,36.88,63.66,74.22,128.13,113.3,195.59h-8.83c-26.55,0-53.11-.32-79.65.23-6.2.13-10.51-2.71-14.72-10.11-18.26-32.09-36.84-63.69-55.35-95.39-3.99-6.83-8.17-13.35-13.8-22.5-.66,23.38-.25,43.58-.32,63.74-.07,20.49-.02,40.98-.02,61.23-7.09,3.4-60.62,4.64-77.46,2.01-1.74-10.85-2.25-353.02-.57-383.02,6.61-3.19,65.05-3.96,77.79-.79v123.19c3.09-4,4.92-5.9,6.4-8.34,21.65-35.5,43.37-70.88,64.76-106.79,4.31-7.23,8.61-10.19,14.78-10.08,26.55.49,53.1.2,79.66.19,1.88,0,3.76,0,7.55,0Z"/><path class="cls-1" d="m880.93,60.16h77.38v384.64h-77.38V60.16Z"/></svg>