<?xml version="1.0" encoding="UTF-8"?>
<svg xmlns="http://www.w3.org/2000/svg" viewBox="0 0 3545.05 1410.42">
  <defs>
    <style>
      .cls-1 {
        fill: #4a85c5;
      }

      .cls-2, .cls-3, .cls-4 {
        fill: #fff;
      }

      .cls-5, .cls-6 {
        fill: #386698;
      }

      .cls-7 {
        fill: #b01a1f;
        mix-blend-mode: color-dodge;
      }

      .cls-3, .cls-8, .cls-9 {
        mix-blend-mode: screen;
      }

      .cls-6, .cls-10, .cls-11, .cls-12, .cls-13, .cls-14, .cls-15 {
        mix-blend-mode: multiply;
      }

      .cls-10, .cls-16 {
        fill: #d8d9da;
      }

      .cls-17, .cls-8, .cls-13 {
        fill: #fad6be;
      }

      .cls-18 {
        isolation: isolate;
      }

      .cls-11 {
        opacity: .41;
      }

      .cls-11, .cls-12, .cls-9, .cls-19 {
        fill: #1e75bc;
      }

      .cls-20, .cls-14 {
        fill: #de2027;
      }

      .cls-21 {
        fill: #d11f26;
      }

      .cls-22 {
        fill: #7f0605;
      }

      .cls-4 {
        opacity: .68;
      }

      .cls-15 {
        fill: #b71b1e;
      }

      .cls-23 {
        fill: #22446a;
      }

      .cls-24 {
        fill: #cd1e25;
      }

      .cls-25 {
        fill: #d27a57;
      }

      .cls-26 {
        fill: #5a0000;
      }

      .cls-27 {
        fill: #790405;
      }
    </style>
  </defs>
  <g class="cls-18">
    <g id="Layer_1" data-name="Layer 1">
      <g>
        <g>
          <path class="cls-24" d="m625.55,1410.42c-17.51,0-28.95-7.32-35.28-13.14-18.19-16.73-23.1-47.4-12.5-78.13,11.09-32.13,31.15-66.33,59.63-101.64,5.67-7.03,15.96-8.13,23-2.46,7.03,5.67,8.13,15.96,2.47,22.99-26.1,32.36-44.32,63.24-54.17,91.78-6.16,17.86-4.63,35.7,3.72,43.39,9.22,8.47,25.79,3.02,34.85-.98,13.2-5.83,24.44-16.88,32.75-25.85,61.2-66.04,96.18-152.03,130.01-235.19,23.44-57.63,47.68-117.23,80.65-170.86,11.98-19.48,25.83-39.32,45.98-52.47,12.96-8.45,23.7-7.29,30.42-4.82,21.3,7.81,30.13,37.38,42.34,78.31,11.49,38.49,25.79,86.39,52.79,122.13,30.21,39.97,71.09,57.08,124.97,52.3,70.61-6.26,172.63-63.2,287.22-159.06-32.88-56.68-62.19-118.33-87.75-184.71-36.09-93.69-57.24-177.78-64.67-257.08-8.56-91.32,7.49-161.98,47.69-210,28.18-33.66,73.64-54.14,118.88-53.39,36.44.58,67.64,15.1,87.85,40.88,12.8,16.33,20.1,34.98,24.09,54.75,19.17-40.78,43.42-79.31,71.81-113.84,26.19-31.86,53.67-51.88,81.68-59.52,37.36-10.17,72.53-3.59,101.71,19.05,50.66,39.3,72.83,118.08,71.98,174.64-1.08,72.27-33.26,138.32-63.34,194.57-49.22,92.03-166.29,232.94-291.3,350.65-16.35,15.39-35.4,32.77-56.4,50.95,46.64,76,100.15,142.15,160.13,197.81,80.7,74.89,165.2,122.52,251.15,141.57,67.18,14.89,140.18,9.84,200.28-13.86,46.95-18.51,108.49-57.21,135.08-136.51.71-2.11,1.4-4.21,2.09-6.32-21.09,2.55-43.4,2.07-66.81-1.46-42.67-6.43-87.85-23.11-130.67-48.22-60.79-35.66-109.9-79.83-145.97-131.29-23.94-34.15-36.59-65.42-38.68-95.59-2.85-41.12,15.57-79.3,46.91-97.25,50.03-28.67,110.71,1.52,147.45,36.07,16.73,15.73,31.82,33.3,44.95,52.23.91-25.91,4.45-51.71,10.59-76.72,3.9-15.89,9.68-33.98,22.96-47.6,27.25-27.97,72.75-23.66,100.99-3.33,29.68,21.36,43.85,55.98,51.92,80.16,27.86,83.47,29,181.27,3.73,285.85,2.21-1.06,4.39-2.16,6.55-3.32,36.41-19.55,66.95-55.7,85.99-101.78,19.42-46.99,25.25-98.68,28.16-138.46,5.71-78.08,2.82-158.13.03-235.55-1.56-43.4-3.18-88.27-3.29-132.53-.51-205.01,36.66-306.01,64.66-364.16,23.26-48.31,55.89-87.15,94.34-112.32,44.42-29.08,94.61-37.97,145.15-25.71,43.28,10.5,81.13,36.03,112.48,75.88,33,41.94,49.92,88.63,58.32,120.42,8.82,33.41,15.82,66.91,23.24,102.37,6.97,33.3,14.17,67.73,23.28,103.75,2.21,8.76-3.09,17.65-11.84,19.86-8.76,2.22-17.65-3.09-19.86-11.84-9.28-36.68-16.55-71.45-23.58-105.07-7.33-35.04-14.25-68.13-22.86-100.72-10.9-41.3-29.02-78.84-52.4-108.55-26.71-33.95-58.5-55.59-94.49-64.32-95.28-23.11-166.98,47.06-202.31,120.44-55.54,115.34-61.65,254.92-61.42,349.88.11,43.71,1.72,88.31,3.27,131.43,2.82,78.3,5.75,159.26-.1,239.11-3.09,42.22-9.36,97.26-30.55,148.56-21.92,53.04-57.7,94.98-100.74,118.1-10.44,5.61-21.34,10.2-32.67,13.79-2.45,8.17-5.05,16.37-7.82,24.61-24.21,72.21-77.5,126.35-154.09,156.54-66.02,26.02-145.97,31.62-219.35,15.36-91.7-20.32-181.31-70.63-266.32-149.52-61.03-56.64-115.54-123.64-163.11-200.38-89.93,74.74-206.6,154.88-301.34,163.28-149.07,13.22-188.46-118.79-211.99-197.66-6.06-20.29-15.09-50.56-21.74-56.48-.43.2-1.04.52-1.82,1.03-13.92,9.08-24.45,23.44-35.99,42.2-31.55,51.33-55.28,109.66-78.22,166.06-34.93,85.87-71.05,174.67-136.31,245.09-10.45,11.28-24.85,25.29-43.53,33.54-13.62,6.02-25.21,8.27-34.93,8.27Zm1348.89-596.7c-9.76,0-19.26,2.17-28.05,7.2-23.36,13.38-32.17,43.1-30.54,66.61,1.67,24.07,12.41,49.94,32.84,79.08,33.36,47.59,79.03,88.58,135.73,121.85,39.26,23.03,80.4,38.28,118.99,44.09,25.92,3.91,50.12,3.55,72.38-1.03,28.98-106.17,29.84-204.97,2.18-287.83-10.55-31.59-23.26-51.92-40-63.97-16.7-12.02-44.18-15.04-58.46-.39-7.78,7.99-11.63,20.38-14.63,32.58-11.22,45.71-12.93,94.38-4.93,140.77,1.43,8.28-3.65,16.3-11.75,18.54-8.1,2.24-16.58-2.01-19.61-9.85-15.93-41.09-41.32-78.76-73.42-108.94-21.33-20.06-52.14-38.72-80.74-38.72Zm-488.16-509.49c-34.46,0-70.22,16.25-91.53,41.7-34.39,41.09-47.92,103.65-40.21,185.96,7.15,76.27,27.63,157.52,62.63,248.37,24.16,62.74,51.72,121.09,82.52,174.85,16.76-14.62,33.75-30.03,50.92-46.19,120.76-113.71,237.91-254.45,284.88-342.26,28.27-52.86,58.51-114.68,59.48-179.63.75-50.25-19.39-117.33-59.33-148.31-21.05-16.33-45.63-20.81-73.06-13.33-21.34,5.82-43.22,22.21-65.02,48.73-42.28,51.43-74.8,112.31-94.02,176.07-2.38,7.89-10.25,12.77-18.37,11.4-8.12-1.37-13.96-8.56-13.63-16.79,1.74-42.86,1.45-83.69-20.89-112.18-14.01-17.86-36.25-27.94-62.63-28.36-.58-.01-1.17-.01-1.75-.01Z"/>
          <g>
            <g>
              <g>
                <path class="cls-19" d="m726.89,1058.15l-146.82,213.26c-4.89,7.11,1.86,20.24,15.07,29.34,13.22,9.1,27.89,10.71,32.78,3.61l146.82-213.26-47.86-32.95Z"/>
                <path class="cls-23" d="m617.39,1310c-6.67,0-14.98-2.83-22.91-8.29-13.96-9.61-20.71-23.21-15.37-30.96l147.48-214.22,49.78,34.27-.66.96-146.82,213.26c-2.3,3.35-6.43,4.98-11.5,4.98Zm109.8-250.22l-146.15,212.3c-4.52,6.56,2.11,18.99,14.77,27.71,12.66,8.71,26.64,10.47,31.16,3.91l146.15-212.3-45.93-31.62Z"/>
              </g>
              <path class="cls-9" d="m605.06,1280.42c12.02-18.44,126.91-180.58,133.46-188.77,4.37-5.46,8.62-11.06,12.34-16.99l-3.8-2.61c-13.37,16.25-144.34,204.4-156.92,224.8.87.76,1.78,1.5,2.72,2.23,4.06-6.22,8.13-12.43,12.19-18.66Z"/>
              <path class="cls-11" d="m738.03,1065.82l-11.14-7.67-146.82,213.26c-3.13,4.54-1.48,11.54,3.55,18.38,25.92-40.62,129.59-189.43,154.41-223.97Z"/>
              <path class="cls-12" d="m614.97,1308.65c5.79.57,10.56-.8,12.97-4.29l146.82-213.26-8.81-6.07c-11.57,17.16-138.95,205.49-150.97,223.62Z"/>
              <g>
                <path class="cls-5" d="m774.75,1091.1c-4.89,7.1-19.57,5.49-32.78-3.61-13.22-9.1-19.96-22.23-15.07-29.34,4.89-7.11,19.57-5.49,32.78,3.61,13.22,9.1,19.96,22.23,15.07,29.34Z"/>
                <path class="cls-23" d="m764.21,1096.74c-6.67,0-14.98-2.83-22.91-8.29-6.55-4.51-11.77-10.13-14.7-15.84-3.05-5.94-3.29-11.31-.67-15.12,5.34-7.75,20.46-6.3,34.41,3.31,13.96,9.61,20.71,23.21,15.37,30.96-2.3,3.35-6.43,4.98-11.5,4.98Zm-26.83-41.9c-4.26,0-7.68,1.29-9.53,3.97-2.11,3.07-1.82,7.58.82,12.73,2.76,5.37,7.71,10.7,13.95,14.99,12.67,8.71,26.64,10.47,31.16,3.91h0c4.52-6.56-2.11-18.99-14.77-27.71-7.49-5.16-15.45-7.88-21.63-7.88Z"/>
              </g>
              <g>
                <path class="cls-5" d="m764.98,1081.6c-2.54,3.69-10.16,2.85-17.01-1.87-6.86-4.72-10.36-11.54-7.82-15.23,2.54-3.69,10.16-2.85,17.01,1.87,6.86,4.72,10.36,11.54,7.82,15.23Z"/>
                <path class="cls-23" d="m759.54,1085.07c-.51,0-1.03-.03-1.58-.09-3.4-.37-7.19-1.9-10.66-4.29-3.47-2.39-6.25-5.39-7.81-8.43-1.68-3.28-1.79-6.27-.31-8.42,2.96-4.28,11.14-3.59,18.64,1.57,3.47,2.39,6.25,5.39,7.81,8.43,1.68,3.28,1.79,6.27.31,8.42h0c-1.26,1.83-3.5,2.81-6.4,2.81Zm-13.98-21.71c-2.01,0-3.62.58-4.46,1.8-.97,1.41-.81,3.55.46,6.03,1.39,2.71,3.9,5.4,7.06,7.57,3.16,2.18,6.57,3.56,9.59,3.89,2.77.3,4.83-.31,5.8-1.72h0c.97-1.41.81-3.55-.46-6.03-1.39-2.71-3.9-5.4-7.06-7.57-3.76-2.59-7.84-3.98-10.94-3.98Z"/>
              </g>
            </g>
            <g>
              <g>
                <path class="cls-25" d="m1202.35,430.96c-1.09-5.03-2.4-10.02-3.94-14.93-4.37-13.9-10.5-27.2-18.07-39.64-7.61-12.51-16.65-24.12-26.8-34.67-10.23-10.64-21.56-20.2-33.75-28.53-12.16-8.32-25.16-15.44-38.74-21.15-13.59-5.71-27.78-10.03-42.27-12.75-14.46-2.72-29.23-3.81-43.93-3.11-13.52.64-26.94,2.84-39.94,6.58-27.03,22.56-47.79,52.71-70.43,79.66-3.08,3.67-6.22,7.29-9.35,10.91-8.16,3.48-16.09,7.46-23.81,11.85-18.87,10.74-36.12,23.98-52.29,38.42-33.93,30.3-62.93,65.78-91.73,100.83-31.65,38.51-62.56,77.62-94.78,115.66-16.21,19.14-32.76,38.01-49.88,56.35-17.05,18.27-34.99,35.63-52.51,53.44-30.34,30.84-60.19,62.14-90.38,93.12-1.08-.2-2.16-.4-3.23-.58-27.77-4.53-56.12-3.01-84.03-.71-35.55,2.93-71.51,4.2-106.75,9.88-18.36,2.96-36.62,7.35-53.83,14.51-7.76,3.23-15.15,7.23-22.61,11.08-7.5,3.86-14.97,7.78-22.3,11.96-14.29,8.16-28.94,17.55-39.31,30.58-11.25,14.13-18.51,31.48-25.53,47.97-7.11,16.71-13.42,34.59-23.4,49.87-6.79,10.39-16.65,18.67-24.75,28-6.81,7.85-15.46,18.29-13.8,29.49,1.99,13.44,19.51,20.04,31.02,21.87,8.5,1.35,17.09.86,25.45-.91-4.25,4.51-6.81,10.74-8.82,16.45-2.91,8.3-4.46,17.13-5.87,25.79-3.39,20.81-5.98,41.36-4.87,62.5,1.08,20.58,4.66,41.67,12.75,60.73,3.31,7.79,7.53,15.23,13.73,21.09,6.14,5.8,13.76,8.87,22.08,9.89,9.92,1.22,20.3-.03,29.94-2.55,5.89-1.54,12.04-3.62,17.51-6.7.48,13.36,4.13,26.31,12.97,36.69,9.63,11.29,23.82,17.54,37.56,22.3,14.85,5.15,31.72,8.72,47.25,4.5,3.77-1.03,7.35-2.5,10.76-4.29,1.01,3.84,2.54,7.53,4.76,10.91,5.18,7.88,13.82,12.85,22.7,15.45,22.74,6.67,50.79,4.31,71.62-7.15,9.32-5.13,17.69-12.24,22.8-21.46,4.61,5.37,11.34,7.45,18.36,8.02,8.85.71,17.89-.86,26.49-2.82,8.38-1.91,16.71-4.19,24.76-7.23,16.94-6.41,32.85-15.88,46.64-27.62,13.8-11.75,24.77-25.99,34.36-41.3,19.4-30.98,32.47-65.52,42.65-100.49,5.15-17.67,9.65-35.52,13.85-53.44,4.25-18.15,9-36.38,11.48-54.87,2.66-19.83,3.54-40.53,1.21-60.43-.02-.14-.04-.28-.06-.42,0-.67,0-1.35-.01-2.02-.07-2.57-.23-5.18-.43-7.79,4.39-4.58,9.2-8.73,14.33-12.73,9.34-7.29,17.95-15.15,26.68-23.16,13.6-12.47,27.53-24.51,41.63-36.36,3.48-2.6,6.95-5.2,10.49-7.71,19.44-13.79,39.59-26.62,59.41-39.85,40.04-26.73,79.95-53.7,118.68-82.33,36.59-27.05,72.13-55.61,105.58-86.49,30.63-28.27,59.43-58.69,83.91-92.5,7.98-11.03,15.5-22.47,22.38-34.29,6.04-4.98,12.04-9.99,17.98-15.06,21.86-18.61,42.94-38.22,62.9-58.87,19.88-20.56,37.31-42.9,53.48-66.44.69-1.01,1.39-2.01,2.08-3.02Z"/>
                <path class="cls-17" d="m242.68,1298.19c-.83,7.65-1.72,15.34-1.8,23.04-.18.19-.33.4-.35.59-.57,5.04-.62,10.25.09,15.32-1.61.9-3.27,1.75-5.01,2.45-14.19,5.71-30.28,2.8-44.39-1.61-13.34-4.17-27.96-9.87-37.75-20.23-7.04-7.44-11.05-16.63-13.2-26.43-1.26-4.42-1.77-9.07-1.83-13.63-.02-1.19.04-2.38.09-3.58-.04.07-.08.14-.13.21-.03.02-.05.03-.08.04-.16-6.41.22-12.83.75-19.24.14-1.01.24-2.02.39-3.03,1.74-11.46,4.08-22.81,6.53-34.13,2.4-11.08,4.99-22.12,7.47-33.18,2.16-9.65,4.64-19.2,8.04-28.49,6.82-18.64,17.77-34.64,29.43-50.54,6.83-9.32,13.96-18.42,21.4-27.27,7.55-9.52,15.51-18.72,23.86-27.54,3.62-3.83,7.38-7.59,11.51-10.87,2.54-2.02,5.41-4.17,8.56-5.3,5.72-4.53,11.76-8.78,18.46-11.58,8.71-3.63,18.25-4.25,27.46-2.32,5.8,1.22,11.65,3.5,14.79,8.83,3.16,5.36,2.88,12.29,2.34,18.26-.85,9.39-3.52,18.45-7,27.18-4.98,12.47-11.51,24.26-16.99,36.51-.63,1.11-1.27,2.21-1.88,3.33-6.89,12.71-13.12,25.99-18.43,39.54-.54.19-1.05.51-1.24.82-3.58,5.81-6.35,12.21-9.36,18.34-3.04,6.19-5.99,12.44-8.78,18.74-5.49,12.39-9.53,25.44-9.87,39.07-.03,1.25,1.77.47,1.92-.41,2.31-13.87,7.64-26.88,13.52-39.56,1.49-3.22,3.06-6.4,4.63-9.58-4.62,17.1-7.37,34.7-9.74,52.22-.25,1.86-.5,3.72-.75,5.59-.72,2.13-1.37,4.29-1.88,6.55-1.22,5.4-2.04,10.87-3.22,16.28-2.58,11.92-6.23,23.44-7.55,35.62Z"/>
                <path class="cls-8" d="m139.06,1255.1c-.04.43-.06.85-.1,1.28.18,3.73.47,7.45.91,11.15,1.53,12.79,5,26.05,12.68,36.59-.17-2.02-.36-4.04-.61-6.06-1.7-13.71-4.86-27.3-4.49-41.19.39-14.45,4.03-28.87,7.46-42.84,3.38-13.79,6.9-27.46,11.62-40.86,4.58-13.01,9.96-25.77,16.36-38,6.18-11.82,14.18-22.78,22.38-33.26,8.54-10.92,17.69-21.35,27.1-31.51,13.49-14.57,27.08-29.6,42.88-41.72,3.96-3.04,8.38-6.1,13.08-8.74-4.65.36-9.24,1.42-13.62,3.25-6.7,2.8-12.75,7.05-18.46,11.58-3.15,1.13-6.02,3.28-8.56,5.3-4.13,3.29-7.88,7.05-11.51,10.87-8.35,8.82-16.32,18.02-23.86,27.54-7.44,8.84-14.57,17.95-21.4,27.27-11.65,15.9-22.61,31.9-29.43,50.54-3.4,9.29-5.88,18.84-8.04,28.49-2.48,11.06-5.07,22.1-7.47,33.18-2.45,11.32-4.79,22.67-6.53,34.13-.15,1.01-.25,2.02-.39,3.03Z"/>
                <path class="cls-13" d="m316.97,1029.68c-3.14-5.33-9-7.61-14.79-8.83-9.21-1.93-18.74-1.31-27.46,2.32-6.7,2.8-12.75,7.05-18.46,11.58-3.15,1.13-6.02,3.28-8.56,5.3-.71.57-1.4,1.16-2.09,1.76,2.95-1.89,5.98-3.65,9.16-5.1,6.71-3.06,14.15-5.04,21.54-3.79,5.36.91,11.03,3.58,14.28,8.07,6.26,8.62.99,20.53-3.54,28.63-6.29,11.25-14.7,21.28-23.06,31.04-3.23,3.77-6.54,7.48-9.65,11.36-5.17,6.44-9.42,13.72-13.17,21.05-10.02,19.59-15.66,41.02-20.37,62.4-2.35,10.66-4.57,21.36-6.79,32.05-1.37,6.6-2.88,13.18-4.81,19.65-3.82,12.8-9.37,26.96-20.57,35.1-11.59,8.42-29.31,6.7-39.24-3.61-6.08-6.32-9.18-14.8-10.33-23.6,0,.02,0,.03,0,.05-.54,6.41-.91,12.83-.75,19.24.03-.01.05-.02.08-.04.04-.07.08-.14.13-.21-.04,1.19-.1,2.39-.09,3.58.06,4.56.58,9.21,1.83,13.63,2.16,9.8,6.17,18.99,13.2,26.43,9.8,10.37,24.41,16.07,37.75,20.23,14.12,4.41,30.21,7.32,44.39,1.61,1.74-.7,3.39-1.54,5.01-2.45-.71-5.07-.66-10.28-.09-15.32.02-.19.17-.4.35-.59.08-7.69.97-15.39,1.8-23.04,1.32-12.18,4.97-23.7,7.55-35.62,1.17-5.41,2-10.88,3.22-16.28.51-2.26,1.16-4.42,1.88-6.55.25-1.86.5-3.72.75-5.59,2.37-17.52,5.12-35.12,9.74-52.22-1.57,3.18-3.14,6.36-4.63,9.58-5.89,12.68-11.22,25.69-13.52,39.56-.14.87-1.95,1.65-1.92.41.34-13.63,4.38-26.68,9.87-39.07,2.79-6.3,5.74-12.55,8.78-18.74,3.01-6.13,5.78-12.53,9.36-18.34.19-.31.7-.63,1.24-.82,5.31-13.55,11.54-26.83,18.43-39.54.61-1.12,1.25-2.22,1.88-3.33,5.48-12.24,12.01-24.04,16.99-36.51,3.49-8.73,6.16-17.79,7-27.18.54-5.97.82-12.9-2.34-18.26Z"/>
                <path class="cls-13" d="m316.97,1029.68c-3.14-5.33-9-7.61-14.79-8.83-1.98-.42-3.98-.69-5.98-.86.48.36.96.74,1.43,1.15,9.1,8.04,9.96,20.83,8.3,32.07-2.23,15.15-10.68,28.79-18.73,41.49-8.51,13.42-16.9,26.79-23.43,41.32-13.62,30.28-19.3,63.16-23.75,95.83-2.23,16.4-4.23,32.83-6.89,49.17-1.22,7.46-2.3,15.07-4.34,22.36-1.68,6.01-4.08,11.85-7.22,17.25-4.8,8.25-11.54,15.62-19.98,20.13,11.31,2.51,23.22,3.17,34.03-1.18,1.74-.7,3.39-1.54,5.01-2.45-.71-5.07-.66-10.28-.09-15.32.02-.19.17-.4.35-.59.08-7.69.97-15.39,1.8-23.04,1.32-12.18,4.97-23.7,7.55-35.62,1.17-5.41,2-10.88,3.22-16.28.51-2.26,1.16-4.42,1.88-6.55.25-1.86.5-3.72.75-5.59,2.37-17.52,5.12-35.12,9.74-52.22-1.57,3.18-3.14,6.36-4.63,9.58-5.89,12.68-11.22,25.69-13.52,39.56-.14.87-1.95,1.65-1.92.41.34-13.63,4.38-26.68,9.87-39.07,2.79-6.3,5.74-12.55,8.78-18.74,3.01-6.13,5.78-12.53,9.36-18.34.19-.31.7-.63,1.24-.82,5.31-13.55,11.54-26.83,18.43-39.54.61-1.12,1.25-2.22,1.88-3.33,5.48-12.24,12.01-24.04,16.99-36.51,3.49-8.73,6.16-17.79,7-27.18.54-5.97.82-12.9-2.34-18.26Z"/>
                <path class="cls-17" d="m340.81,1355.69c-9.95,5.65-21.26,8.78-32.59,9.97-10.67,1.12-21.88.66-32.33-1.83-8.43-2.01-16.71-5.65-22.3-12.5-1.03-1.26-1.92-2.6-2.75-3.96-.31-1.13-.58-2.29-.78-3.51-.81-4.85-1.55-9.83-2.04-14.73-.87-8.6-.26-17.32.6-25.96.27-.78.52-1.52.68-2.13,1.43-5.42,2.98-10.81,4.25-16.28,2.49-10.72,4.24-21.61,5.9-32.48,3.27-21.39,5.99-42.97,11.11-64.01,2.58-10.6,6.02-20.97,9.98-31.15,3.19-9.84,7.07-19.46,11.75-28.72,3.23-6.39,6.85-12.57,10.76-18.56,5.47-9.48,11.43-18.66,17.98-27.44,5.13-6.89,10.22-13.91,15.67-20.55,5.18-6.31,11.08-12.14,18.77-15.22,6.97-2.79,15.17-3.51,22.3-.88,6.77,2.49,11.9,7.97,15.77,13.87,4.87,7.41,8.28,15.77,8.87,24.68.58,8.74-1.28,17.38-4.08,25.61-4.93,14.45-12.58,27.8-17.96,42.06-1.35,2.2-2.68,4.43-3.95,6.69-7.42,13.25-12.61,27.49-16.41,42.16-4.24,16.37-7.11,33.16-8.45,50.02-1.13,14.15-.94,28.13-.12,42.22.04,4.06.16,8.12.53,12.23.84,9.35,2.35,21.68,8.33,29.94.23.43.41.87.66,1.29-5.16,7.83-11.88,14.49-20.11,19.17Z"/>
                <path class="cls-8" d="m255.56,1279.02c-.32,9.87-.6,19.78.41,29.62.87,8.49,2.86,16.8,6.1,24.67.04-1.35.08-2.69.13-4.03.87-25.98,2.22-51.97,5.27-77.79,3.05-25.86,7.81-51.57,15.35-76.52,3.6-11.92,8.22-23.38,13.93-34.44,5.56-10.76,11.97-21.06,18.77-31.08,5.09-7.49,10.26-14.92,15.31-22.45,5.21-7.76,10.53-15.46,16.26-22.85,5.51-7.09,11.42-13.99,18.24-19.87-3.41.3-6.78,1.11-9.91,2.36-7.69,3.08-13.59,8.91-18.77,15.22-5.45,6.64-10.54,13.67-15.67,20.55-6.54,8.78-12.5,17.97-17.98,27.44-3.91,5.99-7.53,12.16-10.76,18.56-4.67,9.25-8.55,18.87-11.75,28.72-3.96,10.18-7.4,20.55-9.98,31.15-5.12,21.05-7.84,42.63-11.11,64.01-1.13,7.38-2.32,14.76-3.73,22.1-.05,1.54-.09,3.09-.14,4.63Z"/>
                <path class="cls-13" d="m402.38,1084.31c-.59-8.91-4-17.27-8.87-24.68-3.88-5.9-9.01-11.38-15.77-13.87-7.12-2.62-15.33-1.91-22.3.88-7.69,3.08-13.59,8.91-18.77,15.22-5.45,6.64-10.54,13.67-15.67,20.55-3.24,4.34-6.33,8.79-9.29,13.32,3.87-4.6,8-8.98,12.27-13.12,4.6-4.46,9.49-8.67,14.8-12.28,4.41-2.99,9.29-5.73,14.55-6.89,4.33-.96,9-.69,12.75,1.88,4.55,3.12,6.94,8.45,8.36,13.6,2.39,8.67.82,17.46-2.2,25.77-3.32,9.16-8.13,17.71-13.12,26.04-2.15,3.6-4.47,7.12-6.48,10.8-2.89,5.28-5.67,10.63-8.36,16.01-5.35,10.65-10.25,21.55-14.06,32.86-3.26,9.66-5.63,19.6-7.29,29.66-1.41,8.59-2.38,17.24-3.53,25.87-2.31,17.23-5.11,35.09-13.43,50.6-3.95,7.37-9.25,14-15.89,19.11-4.88,3.76-10.95,7.49-17.39,6.94-11.26-.96-16.11-13.75-18.27-23.17-.81-3.54-1.42-7.21-1.82-10.92-1.06,4.19-2.2,8.36-3.3,12.54-.16.61-.41,1.36-.68,2.13-.86,8.63-1.47,17.36-.6,25.96.5,4.89,1.23,9.87,2.04,14.73.2,1.22.47,2.39.78,3.51.83,1.36,1.72,2.7,2.75,3.96,5.6,6.85,13.87,10.5,22.3,12.5,10.45,2.49,21.67,2.95,32.33,1.83,11.33-1.19,22.65-4.32,32.59-9.97,8.24-4.68,14.95-11.34,20.11-19.17-.25-.42-.43-.86-.66-1.29-5.98-8.26-7.49-20.6-8.33-29.94-.37-4.11-.49-8.17-.53-12.23-.81-14.08-1-28.06.12-42.22,1.34-16.86,4.21-33.65,8.45-50.02,3.8-14.67,9-28.91,16.41-42.16,1.27-2.26,2.59-4.48,3.95-6.69,5.38-14.26,13.03-27.61,17.96-42.06,2.81-8.23,4.67-16.87,4.08-25.61Z"/>
                <path class="cls-13" d="m402.38,1084.31c-.59-8.91-4-17.27-8.87-24.68-3.88-5.9-9.01-11.38-15.77-13.87-4.18-1.54-8.72-1.9-13.17-1.4,1.62.39,3.23.92,4.81,1.64,10.13,4.63,16.46,15.08,18.13,25.82,1.11,7.18.36,14.58-.91,21.69-1.42,7.92-3.82,15.64-6.7,23.15-5.79,15.12-13.49,29.39-20.08,44.16-7.06,15.8-12.46,32.28-15.85,49.26-3.48,17.44-4.97,35.21-5.38,52.97-.3,13.13.1,26.19.78,39.29.53,10.2.9,20.49-.26,30.66-1.06,9.31-3.39,18.92-9.27,26.44-.52.67-1.1,1.26-1.67,1.87,4.38-1.5,8.62-3.35,12.64-5.63,8.24-4.68,14.95-11.34,20.11-19.17-.25-.42-.43-.86-.66-1.29-5.98-8.26-7.49-20.6-8.33-29.94-.37-4.11-.49-8.17-.53-12.23-.81-14.08-1-28.06.12-42.22,1.34-16.86,4.21-33.65,8.45-50.02,3.8-14.67,9-28.91,16.41-42.16,1.27-2.26,2.59-4.48,3.95-6.69,5.38-14.26,13.03-27.61,17.96-42.06,2.81-8.23,4.67-16.87,4.08-25.61Z"/>
                <path class="cls-17" d="m1198.41,416.02c-4.37-13.9-10.5-27.2-18.07-39.64-7.61-12.51-16.65-24.12-26.8-34.67-10.23-10.64-21.56-20.2-33.75-28.53-12.16-8.32-25.16-15.44-38.74-21.15-13.59-5.71-27.78-10.03-42.27-12.75-14.46-2.72-29.23-3.81-43.93-3.11-9.72.46-19.39,1.73-28.89,3.8-16.7,12.11-30.91,27.35-44.21,43.07-13.83,16.34-26.95,33.69-42.46,48.54.22-.09.43-.18.65-.27,9.96-3.93,20.37-6.58,30.86-8.65,1.09-.22.67,1.1-.09,1.32-5.43,1.6-10.71,3.52-16,5.54-40.65,15.51-75.64,41.43-106.42,71.82-32.59,32.18-61.44,68.08-90.32,103.55-31.26,38.38-62.11,77.12-94.52,114.54-16.13,18.63-32.65,36.93-49.78,54.64-17.57,18.17-35.75,35.75-53.36,53.89-24.42,25.16-48.54,50.67-73.54,75.25,3.02.19,6.02.56,9.03,1.37,7.66,2.07,15.85,4.06,22.71,8.1-5.58-1.12-11.23-1.78-16.93-2.18-2.58-.69-5.16-1.36-7.69-2.02-6.96-1.8-13.85-1.23-20.95-1.47-6.55-.21-12.99-1.14-19.56-.68-.88.06-55.55.61-82.68,2.77-36.77,2.94-74.04,4.03-109.98,13.06-8.87,2.23-17.61,4.96-26.09,8.4-7.58,3.08-14.78,6.91-22.05,10.65-14.71,7.58-29.53,15.21-42.9,25.03-6.36,4.67-12.43,9.89-17.37,16.08-5.28,6.61-9.4,14.28-13.22,21.8-8.43,16.59-14.87,34.1-22.56,51.04-3.58,7.88-7.28,15.88-11.88,23.24-2.97,4.75-6.75,9-10.53,13.12-8.3,9.04-17.88,17.56-24.13,28.24-2.3,3.93-4.26,8.64-3.35,13.27,1.07,5.43,5.5,9.18,10.03,11.9,14.73,8.85,32.6,8.36,48.53,3.3,16.26-5.17,31.3-14.62,44.15-25.74,12.06-10.43,21.25-23.21,29.91-36.5,16.71-25.66,34.26-57.71,66.38-65.68,16.28-4.04,33.22-1.65,49.48,1.12,7.84,1.33,15.95,2.97,24.1,3.97,2.7,1.62,5.52,3.05,8.41,4.33-2.13.03-4.26,0-6.42-.09-17.76-.78-35.21-4.67-52.97-5.51-8.49-.4-17.05.06-25.25,2.45-8,2.33-15.13,6.82-21.38,12.26-24.91,21.72-36.6,54.39-59.1,78.23-11.6,12.29-25.86,22.56-40.98,30.06-6.66,3.31-13.73,6.09-21,7.97-5.18,6.62-7.46,14.81-9.32,22.88-1.96,8.55-3.08,17.29-4.3,25.97-2.83,20.23-4.63,40.22-2.97,60.66,1.53,18.79,5.33,38.34,13.09,55.64,3.25,7.24,7.66,14.41,13.93,19.4,6.18,4.92,13.51,6.89,21.29,7.28,14.02.7,28.59-2.45,40.87-9.4.09-3.13.33-6.26.71-9.37,1.32-22.89,5.88-45.44,10.57-67.84,4.37-20.86,8.7-41.4,18.17-60.65,8.92-18.13,21.84-34.56,34.23-50.42,12.86-16.45,26.66-32.3,42.09-46.4.27-.24.54-.49.8-.73.03-.07.07-.14.1-.21,3.3-7.28,5.6-15.48,3.29-23.4-2.47-8.5-10.06-16.11-18.07-19.59-18.99-8.25-36.95,5.46-51.08,16.73-32.13,25.62-58.31,58.22-79.96,92.95-11.16,17.91-22.01,35.81-26.27,56.75-4.4,21.63-4.94,43.92-10.23,65.37-.05.21-.21.39-.41.54-.43-1.54-.8-3.1-1.12-4.67.58-4.23,1.12-8.48,1.55-12.72,2.26-22.21,2.11-45.86,10.24-66.95,3.83-9.92,9.12-19.19,14.59-28.28,5.39-8.97,10.87-17.86,16.81-26.48,12.2-17.71,25.71-34.6,40.51-50.22,14.32-15.11,30.13-29.79,47.6-41.21,15.96-10.44,36.47-13.7,51.62-.06,6.28,5.66,10.84,12.8,11.4,21.39.27,4.12-.35,8.14-1.48,12.06,11.62-9.77,24.65-18.43,39.87-19.91,13.01-1.27,31.31,1.44,36,15.77,2.29,6.98,1.55,15.04.41,22.15-1.48,9.21-4.44,18.07-8.08,26.64,3.1-4.24,6.26-8.47,9.43-12.7,5.13-6.86,10.49-13.62,17.34-18.86,6.95-5.31,15.23-8.36,23.93-9.05,16.35-1.29,28.14,9.42,35.33,23.11,11.74,22.36,4.45,43.95-4.98,65.21,1.85-2.47,3.72-4.92,5.59-7.37,4.01-5.25,7.65-10.7,11.54-16.04,3.41-4.69,7.51-8.73,13.12-10.61,11.9-3.99,23.59,1.56,29.21,12.45,6.36,12.31,6.06,26.64,3.46,39.93-2.73,13.97-7.68,27.33-12.84,40.55-2.3,5.89-5.12,11.42-8.08,17.01-2.83,5.34-6.9,11.89-6.69,18.17.13,3.86,2.27,7.52,3.78,10.96,1.54,3.52,2.43,7.15,3.08,10.93,1.36,7.96,1.54,16.29.52,24.29-.17,1.34-2.72,2.43-2.84.6-.55-8.96-1.2-17.87-3.7-26.54-1.99-6.9-7.28-13.24-6.69-20.72.53-6.81,4-13.32,7.01-19.31,3.01-5.98,5.67-11.87,7.99-18.15,4.74-12.84,9.7-25.78,11.94-39.35,2.04-12.32,2.21-26.51-4.91-37.36-6.25-9.52-19.52-12.27-27.4-3.06-3.79,4.43-6.71,9.65-10.27,14.28-4.58,5.97-9.17,11.93-13.61,18-4.01,5.49-7.9,11.11-11.54,16.88-.31.78-.61,1.56-.91,2.34-2.64,4.02-5.13,8.15-7.35,12.43-1.99,3.85-3.76,7.8-5.4,11.8.02-.11.04-.23.06-.34-.21.53-.39,1.07-.6,1.6-2.05,5.15-3.86,10.39-5.42,15.71-.53,1.81-.99,3.64-1.47,5.46-1.22,4.48-2.36,8.97-3.37,13.47-3.26,14.51-5.47,29.32-6.87,44.12-.2,2.09-.38,4.19-.56,6.29.22,2.83.47,5.65.62,8.43.54,9.78.75,19.43,1.96,29.18.69,5.58,1.52,11.6,3.01,17.39.38,3.57,1.4,7.05,3.24,10.2,2.02,3.45,4.94,6.3,8.39,8.22,6.62,4.42,15.79,4.19,23.41,3.33,18.49-2.1,37.08-8.17,53.49-16.85,15.54-8.22,29.79-19.22,41.34-32.49,11.11-12.76,20.23-27.52,28.22-42.4,16.6-30.9,27.86-64.47,36.95-98.25,4.57-17,8.62-34.13,12.52-51.3.59-2.61,1.18-5.21,1.75-7.81,6.17-19.38,8.26-39.83,8.29-60.11.03-21.33,1.41-42.67.3-63.99-.05-1.02-.15-2.03-.21-3.05,1.87,5.48,3.12,11.21,3.92,16.99,6.45-5.96,13.66-11.09,20.45-16.64,9.59-7.85,18.36-16.8,27.6-25.07,1.62-1.45,3.27-2.87,4.9-4.31,3.37-3.09,6.81-6.11,10.31-9.06,7.78-6.73,15.65-13.37,23.55-19.95,4.73-2.94,9.49-5.81,14.25-8.66,10.43-6.23,20.97-12.31,31.17-18.91,11.12-7.19,21.84-14.98,32.39-22.98,1.7-1.29,3.38-2.61,5.07-3.91,37.22-25,74.18-50.4,110.02-77.34,35.67-26.81,70.29-55.16,102.66-85.9,28.35-26.92,54.9-55.91,77.63-87.77,8.41-10.19,15.85-21.2,22.58-32.55,10.79-18.2,19.85-37.36,28.38-56.71,1.13-2.55,2.22-5.12,3.34-7.67-6.01,20.38-14.39,40-24.47,58.73,7.5-6.44,14.94-12.95,22.28-19.59,20.65-18.69,41.06-37.93,59.72-58.63,17.29-19.18,32.41-39.93,46.86-61.27-.71-2.75-1.48-5.48-2.33-8.19Z"/>
                <path class="cls-8" d="m18.88,1060.78c4.47-5.48,9.42-10.55,14.4-15.56,4.04-4.06,8.22-8.03,11.78-12.53,13.23-16.64,18.95-37.61,27.37-56.79,7.48-17.02,17.29-33.01,29.89-46.74,23.17-25.24,54.18-40.98,86.61-50.85,16.88-5.14,34.17-8.84,51.53-11.87,20.04-3.5,40.2-6.24,60.43-8.41,47.65-5.13,95.69-7.09,143.56-4.54-1.73-1.39-3.59-2.58-5.51-3.68-1.69-.44-3.39-.89-5.05-1.32-6.96-1.8-13.85-1.23-20.95-1.47-6.55-.21-12.99-1.14-19.56-.68-.88.06-55.55.61-82.68,2.77-36.77,2.94-74.04,4.03-109.98,13.06-8.87,2.23-17.61,4.96-26.09,8.4-7.58,3.08-14.78,6.91-22.05,10.65-14.71,7.58-29.53,15.21-42.9,25.03-6.36,4.67-12.43,9.89-17.37,16.08-5.28,6.61-9.4,14.28-13.22,21.8-8.43,16.59-14.87,34.1-22.56,51.04-3.58,7.88-7.28,15.88-11.88,23.24-2.97,4.75-6.75,9-10.53,13.12-8.3,9.04-17.88,17.56-24.13,28.24-2.3,3.93-4.26,8.64-3.35,13.27.32,1.63.97,3.09,1.81,4.43,2.31-6.21,6.65-12.07,10.44-16.7Z"/>
                <path class="cls-8" d="m438.81,845.39c4.48,1.2,9.04,2.48,13.35,4.22.11-2.81.02-5.61-.05-8.45-.23-9.09,4.3-15.59,10.03-22.3,7.48-8.77,15.75-16.82,24.16-24.69,8.5-7.95,17.16-15.73,25.41-23.95,8.6-8.58,16.72-17.65,25.03-26.51,17.9-19.08,35.84-38.11,53.6-57.31,17.39-18.8,34.37-37.97,51.91-56.63,16.94-18.02,34-35.94,50.27-54.57,15.94-18.25,30.23-37.74,45.59-56.45,15.23-18.55,31.4-36.38,48.81-52.92,17.31-16.45,35.97-30.8,55.62-44.32,20.11-13.83,41.65-24.58,64.85-32.22,10.86-3.57,21.68-6.07,33-7.62,9.45-1.29,19.24-2.41,28.18-5.9-30.99-5.19-62.88,2.61-91.55,14.35-1.22.5-2.13-1.32-1.25-2.15,11.14-10.54,25.75-15.74,40.02-20.54,13.65-4.6,28.23-8.98,39.17-18.73-7.91-1.61-16.13-.57-24.09-2.03-.51-.09-.99-.72-.94-1.24.88-9.25,7.75-16.59,13.99-22.91,6.18-6.26,12.27-12.65,18.74-18.61,7.15-6.58,14.59-12.83,21.95-19.18,3.24-2.8,6.48-5.63,9.69-8.51-9.53.48-19.01,1.74-28.33,3.76-16.7,12.11-30.91,27.35-44.21,43.07-13.83,16.34-26.95,33.69-42.46,48.54.22-.09.43-.18.65-.27,9.96-3.93,20.37-6.58,30.86-8.65,1.09-.22.67,1.1-.09,1.32-5.43,1.6-10.71,3.52-16,5.54-40.65,15.51-75.64,41.43-106.42,71.82-32.59,32.18-61.44,68.08-90.32,103.55-31.26,38.38-62.11,77.12-94.52,114.54-16.13,18.63-32.65,36.93-49.78,54.64-17.57,18.17-35.75,35.75-53.36,53.89-23.58,24.29-46.9,48.89-70.98,72.69,3.21,1.46,6.34,3.11,9.47,4.74Z"/>
                <path class="cls-8" d="m358.18,1286.73c.31-19.06,2.62-38.32,7.04-56.86,2.09-8.77,4.66-17.45,8.12-25.79,3.1-7.48,6.73-14.72,10.61-21.82,8.14-14.91,17.31-29.22,25.43-44.14,6.63-12.17,12.62-24.87,16.15-38.3-1.21.82-2.37,1.82-3.42,3.05-3.79,4.43-6.71,9.65-10.27,14.28-4.58,5.97-9.17,11.93-13.61,18-4.01,5.49-7.9,11.11-11.54,16.88-.31.78-.61,1.56-.91,2.34-2.64,4.02-5.13,8.15-7.35,12.43-1.99,3.85-3.76,7.8-5.4,11.8.02-.11.04-.23.06-.34-.21.53-.39,1.07-.6,1.6-2.05,5.15-3.86,10.39-5.42,15.71-.53,1.81-.99,3.64-1.47,5.46-1.22,4.48-2.36,8.97-3.37,13.47-3.26,14.51-5.47,29.32-6.87,44.12-.2,2.09-.38,4.19-.56,6.29.22,2.83.47,5.65.62,8.43.54,9.69.75,19.25,1.93,28.91.33-5.17.72-10.34.81-15.52Z"/>
                <path class="cls-8" d="m173.92,1015.65c-32.13,25.62-58.31,58.22-79.96,92.95-11.16,17.91-22.01,35.81-26.27,56.75-4.07,20.02-4.88,40.6-9.17,60.57,1.87,8.79,4.5,17.54,8.5,25.61.08-1.64.14-3.28.24-4.91,1.53-25.65,5.41-51.23,12.63-75.92,7.04-24.03,17.29-47.12,30.8-68.23,11.57-18.07,25.74-34.26,40.11-50.13,14.16-15.62,29.29-30.89,46.93-42.6,7.38-4.9,15.6-9.28,24.2-11.95-17.84-5.62-34.64,7.19-48.01,17.85Z"/>
                <path class="cls-13" d="m1198.41,416.02c-4.37-13.9-10.5-27.2-18.07-39.64-7.61-12.51-16.65-24.12-26.8-34.67-1-1.04-2.06-2.02-3.08-3.04-7.36,6.59-14.89,13-22.52,19.25-12.74,10.44-26.07,20.72-41.47,26.92-14.76,5.94-31.12,7.77-46.62,3.88-14.83-3.72-28.21-11.51-41.95-17.97-16.28-7.66-33.58-11.99-51.52-13.33-9.07-.68-18.19-.63-27.25.07-6.43.5-13.14.95-19.34,2.83-4.88,1.48-9.67,3.27-14.42,5.16-1.99,2.07-4.02,4.1-6.09,6.09.22-.09.43-.18.65-.27,9.96-3.93,20.37-6.58,30.86-8.65,1.09-.22.67,1.1-.09,1.32-5.43,1.6-10.71,3.52-16,5.54-36.31,13.85-68.09,36.03-96.41,62.26,1.07-.51,2.11-1.05,3.19-1.55,31.07-14.33,65.6-24.14,100.07-19.95,15.8,1.92,31.53,6.37,44.26,16.28,10.92,8.5,18.51,20.49,21.77,33.92,3.81,15.68,1.85,32-2.57,47.33-5.23,18.17-14.07,35.09-24.18,50.99-10.27,16.15-21.8,31.54-33.37,46.77-12.54,16.51-25.61,32.61-39.14,48.31-27.34,31.73-56.56,61.69-87.1,90.34-30.05,28.19-60.78,55.75-93.76,80.49-30.33,22.76-63.29,45.96-100.7,55.02-16.57,4.01-34.26,4.85-50.63-.56-13.93-4.61-26.63-12.49-39.21-19.87-18.38-10.79-39.89-23.76-61.63-24.59-2.84,2.84-5.66,5.7-8.53,8.52,3.02.19,6.02.56,9.03,1.37,7.66,2.07,15.85,4.06,22.71,8.1-5.58-1.12-11.23-1.78-16.93-2.18-2.58-.69-5.16-1.36-7.69-2.02-6.96-1.8-13.85-1.23-20.95-1.47-6.55-.21-12.99-1.14-19.56-.68-.2.01-3.15.05-7.89.13,8.68,1.59,17.29,3.54,25.73,6.02,5.25,1.54,10.46,3.35,15.36,5.8,3.89,1.94,8.13,4.44,10.46,8.25,5.2,8.5-5.3,15.84-12.27,18.3-9.83,3.47-20.63,3.89-30.92,4.89-5.06.49-10.03,1.38-15.07,1.98-7.71.91-15.46,1.56-23.22,1.94-29.71,1.43-59.05-2.53-88.64-4.33-27.88-1.7-56.8-1.14-82.64,10.69-20.62,9.44-37.37,24.94-50.52,43.24-13.23,18.42-23.12,38.97-32.79,59.41-5.09,10.75-10,21.62-15.91,31.96-6.01,10.52-13.18,20.84-22.83,28.35-7.93,6.17-18.55,11-28.8,10.61-7.82-.29-14.84-4.02-19.64-10.16-1.18-1.51-2.2-3.12-3.12-4.78-.23.38-.49.74-.71,1.12-2.3,3.93-4.26,8.64-3.35,13.27,1.07,5.43,5.5,9.18,10.03,11.9,14.73,8.85,32.6,8.36,48.53,3.3,16.26-5.17,31.3-14.62,44.15-25.74,12.06-10.43,21.25-23.21,29.91-36.5,16.71-25.66,34.26-57.71,66.38-65.68,16.28-4.04,33.22-1.65,49.48,1.12,7.84,1.33,15.95,2.97,24.1,3.97,2.7,1.62,5.52,3.05,8.41,4.33-2.13.03-4.26,0-6.42-.09-17.76-.78-35.21-4.67-52.97-5.51-8.49-.4-17.05.06-25.25,2.45-8,2.33-15.13,6.82-21.38,12.26-24.91,21.72-36.6,54.39-59.1,78.23-11.6,12.29-25.86,22.56-40.98,30.06-6.66,3.31-13.73,6.09-21,7.97-5.18,6.62-7.46,14.81-9.32,22.88-1.96,8.55-3.08,17.29-4.3,25.97-2.83,20.23-4.63,40.22-2.97,60.66,1.53,18.79,5.33,38.34,13.09,55.64,3.25,7.24,7.66,14.41,13.93,19.4,6.18,4.92,13.51,6.89,21.29,7.28,14.02.7,28.59-2.45,40.87-9.4.09-3.13.33-6.26.71-9.37,1.32-22.89,5.88-45.44,10.57-67.84,4.37-20.86,8.7-41.4,18.17-60.65,8.92-18.13,21.84-34.56,34.23-50.42,12.86-16.45,26.66-32.3,42.09-46.4.27-.24.54-.49.8-.73.03-.07.07-.14.1-.21,3.3-7.28,5.6-15.48,3.29-23.4-2.47-8.5-10.06-16.11-18.07-19.59-18.99-8.25-36.95,5.46-51.08,16.73-2.66,2.12-5.26,4.31-7.84,6.52,6.35-3.29,13.23-5.81,20.4-6.4,6-.49,13.21.44,18.18,4.12,9.13,6.76,2.91,19.02-1.99,26.36-6.59,9.85-15.08,18.53-23.88,26.42-6.05,5.42-11.58,11.44-16.95,17.54-6.2,7.05-12.04,14.41-17.33,22.17-10.67,15.66-18.9,32.83-24.77,50.83-1.63,5.02-2.7,10.25-3.91,15.38-1.51,6.39-3.07,12.77-4.98,19.04-3.5,11.49-8.19,24.59-17.88,32.37-8.43,6.77-23.46,8.43-29.49-2.34-1.92-3.43-2.79-7.36-3.15-11.32-.8,4.82-1.71,9.61-2.89,14.36-.05.21-.21.39-.41.54-.43-1.54-.8-3.1-1.12-4.67.58-4.23,1.12-8.48,1.55-12.72,2.26-22.21,2.11-45.86,10.24-66.95,3.83-9.92,9.12-19.19,14.59-28.28,5.39-8.97,10.87-17.86,16.81-26.48,10.06-14.6,21.06-28.6,32.88-41.83,2.8-3.43,5.82-6.72,9.02-9.84,13.95-14.59,29.29-28.7,46.2-39.76,15.96-10.44,36.47-13.7,51.62-.06,6.28,5.66,10.84,12.8,11.4,21.39.27,4.12-.35,8.14-1.48,12.06,11.62-9.77,24.65-18.43,39.87-19.91,13.01-1.27,31.31,1.44,36,15.77,2.29,6.98,1.55,15.04.41,22.15-1.48,9.21-4.44,18.07-8.08,26.64,3.1-4.24,6.26-8.47,9.43-12.7,5.13-6.86,10.49-13.62,17.34-18.86,6.95-5.31,15.23-8.36,23.93-9.05,16.35-1.29,28.14,9.42,35.33,23.11,11.74,22.36,4.45,43.95-4.98,65.21,1.85-2.47,3.72-4.92,5.59-7.37,4.01-5.25,7.65-10.7,11.54-16.04,3.41-4.69,7.51-8.73,13.12-10.61,11.9-3.99,23.59,1.56,29.21,12.45,6.36,12.31,6.06,26.64,3.46,39.93-2.73,13.97-7.68,27.33-12.84,40.55-2.3,5.89-5.12,11.42-8.08,17.01-2.83,5.34-6.9,11.89-6.69,18.17.13,3.86,2.27,7.52,3.78,10.96,1.54,3.52,2.43,7.15,3.08,10.93,1.36,7.96,1.54,16.29.52,24.29-.17,1.34-2.72,2.43-2.84.6-.55-8.96-1.2-17.87-3.7-26.54-1.99-6.9-7.28-13.24-6.69-20.72.53-6.81,4-13.32,7.01-19.31,3.01-5.98,5.67-11.87,7.99-18.15,4.74-12.84,9.7-25.78,11.94-39.35,2.04-12.32,2.21-26.51-4.91-37.36-6.25-9.52-19.52-12.27-27.4-3.06-3.79,4.43-6.71,9.65-10.27,14.28-3.86,5.03-7.71,10.07-11.49,15.17,2.77-2.87,5.69-5.56,8.79-7.95,3.82-2.94,8.37-5.88,13.37-5.73,4.93.14,9.21,2.42,10.92,7.21,1.58,4.45.88,9.59-.11,14.09-1.33,6.09-3.55,12.02-6.04,17.72-6,13.7-14.34,26.22-20.33,39.92-2.99,6.83-5.31,14-6.41,21.39-.7,4.73-.7,9.43-.52,14.19.39,10.35,1.13,20.69,1.05,31.05-.08,10.51-.65,21.57-4.31,31.53-3.1,8.44-9.15,15.81-18.58,16.95-9.74,1.17-16.03-7.1-19.53-15.09-.84-1.91-1.56-3.87-2.23-5.84.24,3.59.53,7.17.98,10.78.69,5.58,1.52,11.6,3.01,17.39.38,3.57,1.4,7.05,3.24,10.2,2.02,3.45,4.94,6.3,8.39,8.22,6.62,4.42,15.79,4.19,23.41,3.33,18.49-2.1,37.08-8.17,53.49-16.85,15.54-8.22,29.79-19.22,41.34-32.49,11.11-12.76,20.23-27.52,28.22-42.4,16.6-30.9,27.86-64.47,36.95-98.25,4.57-17,8.62-34.13,12.52-51.3.59-2.61,1.18-5.21,1.75-7.81,6.17-19.38,8.26-39.83,8.29-60.11.03-21.33,1.41-42.67.3-63.99-.05-1.02-.15-2.03-.21-3.05,1.87,5.48,3.12,11.21,3.92,16.99,6.45-5.96,13.66-11.09,20.45-16.64,9.59-7.85,18.36-16.8,27.6-25.07,1.62-1.45,3.27-2.87,4.9-4.31,3.37-3.09,6.81-6.11,10.31-9.06,7.78-6.73,15.65-13.37,23.55-19.95,4.73-2.94,9.49-5.81,14.25-8.66,10.43-6.23,20.97-12.31,31.17-18.91,11.12-7.19,21.84-14.98,32.39-22.98,1.7-1.29,3.38-2.61,5.07-3.91,37.22-25,74.18-50.4,110.02-77.34,35.67-26.81,70.29-55.16,102.66-85.9,28.35-26.92,54.9-55.91,77.63-87.77,8.41-10.19,15.85-21.2,22.58-32.55,10.79-18.2,19.85-37.36,28.38-56.71,1.13-2.55,2.22-5.12,3.34-7.67-6.01,20.38-14.39,40-24.47,58.73,7.5-6.44,14.94-12.95,22.28-19.59,20.65-18.69,41.06-37.93,59.72-58.63,17.29-19.18,32.41-39.93,46.86-61.27-.71-2.75-1.48-5.48-2.33-8.19Z"/>
                <path class="cls-13" d="m225.01,998.93c-3.83-1.66-7.61-2.4-11.33-2.48,6.28,3.49,11.35,8.8,13.52,15.56,3.8,11.84-3.86,22.87-11.66,31.08-11.12,11.7-23.1,22.51-33.49,34.91-10.47,12.48-19.74,26.13-27.53,40.44-7.81,14.34-14.01,29.51-19.24,44.97-5.16,15.23-9.29,30.76-13.17,46.35-3.63,14.62-5.53,29.78-11.55,43.71-5.18,11.98-13.47,22.27-25.48,27.84-2.28,1.06-4.66,1.91-7.07,2.54,4.44,1.92,9.24,2.83,14.24,3.09,14.02.7,28.59-2.45,40.87-9.4.09-3.13.33-6.26.71-9.37,1.32-22.89,5.88-45.44,10.57-67.84,4.37-20.86,8.7-41.4,18.17-60.65,8.92-18.13,21.84-34.56,34.23-50.42,12.86-16.45,26.66-32.3,42.09-46.4.27-.24.54-.49.8-.73.03-.07.07-.14.1-.21,3.3-7.28,5.6-15.48,3.29-23.4-2.47-8.5-10.06-16.11-18.07-19.59Z"/>
                <path class="cls-13" d="m65.19,1088.24c16.26-5.17,31.3-14.62,44.15-25.74,12.06-10.43,21.25-23.21,29.91-36.5,16.71-25.66,34.26-57.71,66.38-65.68,6.5-1.61,13.11-2.19,19.75-2.14-1.77-.78-3.58-1.48-5.47-1.96-5.44-1.39-10.91-.86-16.4-.08-11.92,1.69-23.38,5.83-33.98,11.48-10.5,5.61-20.2,12.68-29.04,20.64-8.32,7.49-15.54,15.82-22.12,24.86-12.54,17.21-23.44,36.15-39.68,50.27-6.25,5.44-13.16,10.15-20.98,13.01-7.32,2.68-15.12,4.22-22.89,4.78-8.58.62-19-.08-26.81-4.41,1.91,3.49,5.26,6.12,8.67,8.17,14.73,8.85,32.6,8.36,48.53,3.3Z"/>
                <path class="cls-13" d="m1187.76,389.82c-6.48,7.16-13.57,13.79-20.72,20.24-9.01,8.13-18.04,15.81-26.04,24.98-10.8,12.38-21.17,25.72-35.33,34.46-1.04.64-2.05-.42-1.89-1.45,3.9-24.97-11.59-47.4-26.64-66.03,2.22,24.93,1.94,50.16-4.82,74.43-7.42,26.63-22.04,50.03-37.85,72.42-64.62,91.49-152.86,163.52-239.24,233.47-47.07,38.12-94.63,75.66-143.6,111.31-12.1,8.81-24.13,17.91-36.72,26-8.54,5.49-16.83,13.21-26.89,15.75-8.83,2.23-16.97-3.64-23.78-8.52-8.51-6.09-16.57-13.35-26.05-17.95-.25,8.9,3.83,17.54,7.4,25.48,3.9,8.68,8.29,17.46,10.1,26.88,1.82,9.48,1.1,19.68.41,29.24-.74,10.26-2.14,20.48-3.93,30.6-3.47,19.63-9.9,38.07-19.51,55.56-9.14,16.63-20.58,31.89-32.93,46.26-12.7,14.78-25.21,31.01-41.64,41.83-.95.62-2.18-.41-1.89-1.45.2-.7.36-1.41.54-2.12-2.52,8.18-5.55,16.2-8.66,24.18-2.3,5.89-5.12,11.42-8.08,17.01-2.83,5.34-6.9,11.89-6.69,18.17.13,3.86,2.27,7.52,3.78,10.96,1.54,3.52,2.43,7.15,3.08,10.93,1.36,7.96,1.54,16.29.52,24.29-.17,1.34-2.72,2.43-2.84.6-.55-8.96-1.2-17.87-3.7-26.54-1.99-6.9-7.28-13.24-6.69-20.72.53-6.81,4-13.32,7.01-19.31,3.01-5.98,5.67-11.87,7.99-18.15,4.74-12.84,9.7-25.78,11.94-39.35,2.04-12.32,2.21-26.51-4.91-37.36-2.1-3.2-5.01-5.62-8.23-7.09,4.49,14.56,6.63,29.76,4.98,45.02-1.7,15.77-7.58,30.26-13.66,44.75-5.32,12.68-10.48,25.87-9.59,39.88.48,7.47,3.07,14.53,4.84,21.75,3.6,14.69,6.2,29.72,7.14,44.82.73,11.69.33,25.66-3.36,37.58,5.95-2.29,11.77-4.89,17.31-7.83,15.54-8.22,29.79-19.22,41.34-32.49,11.11-12.76,20.23-27.52,28.22-42.4,16.6-30.9,27.86-64.47,36.95-98.25,4.57-17,8.62-34.13,12.52-51.3.59-2.61,1.18-5.21,1.75-7.81,6.17-19.38,8.26-39.83,8.29-60.11.03-21.33,1.41-42.67.3-63.99-.05-1.02-.15-2.03-.21-3.05,1.87,5.48,3.12,11.21,3.92,16.99,6.45-5.96,13.66-11.09,20.45-16.64,9.59-7.85,18.36-16.8,27.6-25.07,1.62-1.45,3.27-2.87,4.9-4.31,3.37-3.09,6.81-6.11,10.31-9.06,7.78-6.73,15.65-13.37,23.55-19.95,4.73-2.94,9.49-5.81,14.25-8.66,10.43-6.23,20.97-12.31,31.17-18.91,11.12-7.19,21.84-14.98,32.39-22.98,1.7-1.29,3.38-2.61,5.07-3.91,37.22-25,74.18-50.4,110.02-77.34,35.67-26.81,70.29-55.16,102.66-85.9,28.35-26.92,54.9-55.91,77.63-87.77,8.41-10.19,15.85-21.2,22.58-32.55,10.79-18.2,19.85-37.36,28.38-56.71,1.13-2.55,2.22-5.12,3.34-7.67-6.01,20.38-14.39,40-24.47,58.73,7.5-6.44,14.94-12.95,22.28-19.59,20.65-18.69,41.06-37.93,59.72-58.63,17.29-19.18,32.41-39.93,46.86-61.27-.71-2.75-1.48-5.48-2.33-8.19-2.83-9.01-6.42-17.77-10.65-26.2Z"/>
                <g>
                  <path class="cls-20" d="m556.25,1004.11c-6-54.21-47.03-101.65-103.88-104.44-29.88-1.47-58.07,10.05-87.01,15.21-21,3.74-44.36,2.99-61.39-9.86-17.77-13.41-25.74-31.65-48.89-38.95-85.8-27.02-123.42,76.01-115.01,141.79,1.34,10.47,3.36,20.81,5.96,30.98,6.09-9.19,14.82-16.83,23.53-23.26,17-12.53,41.48-25.75,62.51-14.86,9.92,5.14,15.47,15.83,14.21,26.91-.58,5.06-2.08,9.88-4.05,14.54,6.22-5.7,13.1-10.69,20.41-14.74,6.37-3.52,13.2-6.36,20.31-7.95,6.42-1.44,13.44-2.16,19.9-.59,5.08,1.24,9.54,4.11,12.55,8.42,2.98,4.28,4.26,9.53,4.64,14.66.46,6.09-.55,12.09-1.65,18.06-1.52,8.27-3.82,16.37-6.51,24.33-2.03,6.03-4.29,11.97-6.65,17.87,6.07-10.04,12.52-19.85,19.54-29.25,11-14.71,25.34-33.01,46.01-30.24,16.9,2.27,27.97,17.67,32.34,33.07,2.52,8.88,2.97,18.09,1.06,27.14-1.32,6.26-3.53,12.29-5.9,18.21-2.33,5.82-4.6,11.67-6.91,17.5-.39.99-.8,1.98-1.19,2.97.2-.24.4-.48.6-.71,3.58-4.24,7.24-8.43,10.58-12.86,5.06-6.72,9.51-13.9,14.78-20.45,4.71-5.85,10.85-11.37,18.37-13.13,5.24-1.23,10.36.25,14.16,4.05,3.94,3.95,6.23,9.39,7.79,14.66,4.29,14.51,3.14,29.73-.04,44.35-1,4.61-2.22,9.15-3.52,13.67,32.7-9.55,64.2-32.75,83.83-67.93,15.89-28.49,23.35-64.84,19.55-99.19Z"/>
                  <path class="cls-22" d="m451.17,1172.95l.59-2.04c1.51-5.25,2.63-9.57,3.51-13.6,3.71-17.04,3.73-31.35.07-43.77-1.91-6.46-4.29-10.96-7.49-14.17-3.5-3.5-8.26-4.87-13.07-3.74-6.12,1.43-12.08,5.71-17.72,12.72-3,3.74-5.8,7.76-8.51,11.66-2.01,2.9-4.09,5.89-6.26,8.77-2.75,3.66-5.76,7.19-8.66,10.61l-7.17,8.4,3.82-9.54c.97-2.45,1.93-4.9,2.9-7.35,1.33-3.39,2.66-6.78,4.02-10.16,2.24-5.59,4.5-11.64,5.84-18.02,1.84-8.71,1.49-17.65-1.04-26.58-3.99-14.08-14.33-29.94-31.37-32.22-20.59-2.76-35.23,16.82-44.92,29.78-6.49,8.68-12.86,18.22-19.48,29.15l-2.08-1.04c2.71-6.77,4.81-12.43,6.63-17.81,2.99-8.85,5.1-16.76,6.47-24.17,1.15-6.27,2.07-11.94,1.63-17.76-.42-5.73-1.92-10.47-4.43-14.08-2.78-3.99-6.88-6.74-11.86-7.95-5.4-1.31-11.74-1.12-19.37.59-6.5,1.46-13.23,4.1-20,7.84-7.15,3.95-13.95,8.86-20.19,14.58l-3.95,3.62,2.09-4.93c2.16-5.1,3.45-9.76,3.96-14.22,1.22-10.73-4.11-20.84-13.58-25.74-16.09-8.33-36.7-3.36-61.28,14.76-10.57,7.79-18.18,15.3-23.25,22.96l-1.45,2.19-.65-2.55c-2.66-10.4-4.67-20.87-5.99-31.12-5.3-41.46,7.88-101.27,42.77-130.44,20.37-17.03,45.87-21.39,73.75-12.61,15.11,4.76,23.72,13.92,32.84,23.63,4.96,5.28,10.09,10.73,16.41,15.5,18.09,13.66,42.88,12.78,60.48,9.64,9.45-1.68,19-4.1,28.24-6.43,19.07-4.81,38.79-9.78,59.04-8.8,54.37,2.67,98.52,47.03,104.99,105.48,3.79,34.25-3.39,70.66-19.7,99.89-18.55,33.26-49.35,58.22-84.52,68.49l-2.03.59Zm-13.09-80.04c4.24,0,8.26,1.67,11.41,4.81,3.49,3.49,6.06,8.31,8.08,15.16,3.78,12.8,3.77,27.5-.03,44.93-.77,3.54-1.72,7.3-2.95,11.69,33.73-10.45,63.2-34.68,81.1-66.77,16.07-28.82,23.15-64.71,19.41-98.49-6.34-57.3-49.56-100.79-102.78-103.4-19.91-.98-39.45,3.96-58.35,8.73-9.28,2.34-18.87,4.76-28.4,6.46-18.07,3.22-43.53,4.09-62.3-10.08-6.48-4.89-11.68-10.42-16.7-15.77-8.91-9.47-17.31-18.42-31.84-23-27.47-8.66-51.54-4.56-71.55,12.17-34.25,28.64-47.17,87.5-41.95,128.35,1.2,9.34,2.98,18.86,5.31,28.35,5.18-7.15,12.52-14.18,22.33-21.42,25.35-18.69,46.8-23.73,63.74-14.95,10.34,5.35,16.16,16.37,14.83,28.08-.38,3.35-1.18,6.79-2.42,10.41,5.37-4.51,11.1-8.46,17.07-11.76,6.96-3.85,13.9-6.56,20.62-8.07,7.98-1.79,14.66-1.99,20.43-.58,5.46,1.33,10.16,4.48,13.23,8.89,2.76,3.96,4.39,9.09,4.85,15.24.46,6.1-.49,11.92-1.67,18.36-1.38,7.52-3.53,15.53-6.55,24.49-.72,2.12-1.48,4.28-2.3,6.54,4.4-6.83,8.74-13.1,13.14-18.98,10.02-13.4,25.16-33.62,47.1-30.7,18.16,2.44,29.11,19.11,33.3,33.91,2.64,9.29,3,18.61,1.08,27.7-1.39,6.55-3.68,12.72-5.96,18.4-1.35,3.37-2.68,6.76-4.01,10.14-.49,1.24-.97,2.48-1.46,3.72,2.22-2.63,4.46-5.33,6.53-8.09,2.13-2.83,4.2-5.81,6.2-8.69,2.73-3.93,5.55-7.99,8.6-11.79,5.97-7.43,12.37-11.98,19.01-13.53,1.29-.3,2.58-.45,3.84-.45Z"/>
                </g>
                <path class="cls-4" d="m278.85,897.59c-5.25-5.75-10.99-11.13-17.68-15.16-11.46-6.9-24.83-8.63-37.97-7.36-19.14,1.84-40.14,10.63-51.04,26.93-.65,1.22-1.24,2.52-1.44,3.86-.03.23-.04.54-.03.84,0-.02.12.42.04.26.18.36.09.3.47.47.1.05.66.15,1.06.15.61,0,1.19-.07,1.79-.19,3.65-.71,7.16-2.34,10.51-3.91,3.9-1.84,7.72-3.86,11.52-5.9,2.66-1.42,5.32-3.05,8.13-4.16,6.25-2.46,13.42-3.41,20.1-3.39,7.85.03,15.68,1.63,22.96,4.57,7.56,3.05,14.51,7.42,20.68,12.73,2.77,2.39,5.48,4.87,8.19,7.33,3.29,3,6.61,5.97,10.09,8.74,2.93,2.33,6.2,4.97,9.8,6.19,1.09.37,2.16.59,2.86.12.12-.08.41-.5.55-.92.22-.66.23-1.37.22-2.05-.08-5.95-4.18-10.8-7.9-15.08-4.17-4.8-8.62-9.38-12.91-14.08Z"/>
                <path class="cls-4" d="m413.07,926.99c-11.03-2.61-22.49-.24-33.41,1.96-11.85,2.39-23.59,3.48-35.67,3.75-3.85.09-7.71.2-11.55.57-2.14.2-4.91.36-6.69,1.42-.01,0-.04.05-.06.07-.04.08-.09.18-.13.34-.11.48-.24.91-.2,1.41.05.71.4,1.36.95,1.92,1.72,1.76,4.56,2.43,6.87,2.93,6.77,1.47,13.91,1.44,20.79,1.23,10.18-.31,19.57-3.42,29.5-5.43,11.13-2.25,22.36,2,33.34-.36,3.91-.84,5.82-4.02,2.71-7-1.25-1.2-2.94-1.83-4.6-2.31-.62-.18-1.24-.34-1.87-.49Z"/>
                <path class="cls-4" d="m458.92,942.58c-.07-.3-.12-.6-.22-.89-.03-.09-.06-.18-.09-.27-.01-.03-.01-.03-.02-.05-.06-.13-.12-.26-.18-.38-.08-.16-.17-.31-.27-.46-.05-.08-.1-.15-.15-.23-.01-.02-.05-.07-.08-.12-.04-.04-.08-.11-.1-.12-.06-.07-.12-.14-.19-.21-.02-.02-.05-.05-.07-.07-.56.34-1.34.32-1.76-.4-.06-.1-.12-.19-.18-.28-.02-.03-.02-.03-.03-.05-.11-.13-.22-.26-.34-.38-.07-.07-.14-.13-.21-.19-.04-.03-.05-.04-.08-.06-.12-.09-.25-.17-.38-.25-.17-.1-.35-.18-.54-.28.33.16-.14-.05-.26-.09-.36-.12-.73-.19-1.1-.26-.02,0,0,0-.02,0-.02,0-.02,0-.06,0-.1,0-.2-.02-.3-.03-.19-.01-.38-.02-.56-.02-.4,0-.79.03-1.19.07-.03,0-.06,0-.09.01-.1.02-.2.04-.3.05-.19.04-.38.08-.56.12-.4.1-.79.22-1.17.36-.09.04-.19.07-.28.11.33-.13.03-.01-.05.02-.17.08-.33.16-.49.24-.34.18-.65.38-.97.59-.03.02-.03.02-.04.03,0,0,0,0,0,0-.06.05-.12.1-.18.15-.13.11-.26.23-.38.36-.06.06-.11.12-.17.19-.04.05-.05.05-.06.07-.07.1-.13.19-.19.29-.05.08-.09.16-.13.24,0,0,0,.01,0,.02-.04.14-.05.15-.04.1-.03.08-.06.16-.08.25-.01.06-.02.11-.04.17,0,.13,0,.28,0,.41,0,0,0,0,0,0,.02.08.04.16.06.24.02.07.05.13.07.2,0,0,0,0,0,0,.09.16.17.32.27.48.05.07.1.14.14.21.03.03.05.06.08.09.31.34.64.66,1,.95.02.01.01.01.02.01.01,0,.02.01.05.03.05.03.1.07.14.1.12.08.24.17.36.25.24.16.49.31.74.45.6.34,1.22.65,1.86.93.58.25.98.42,1.66.65.51.17,1.03.32,1.56.43.12.03.25.05.37.07.06,0,.15.02.2.03.19.02.37.04.56.05.42.03.84,0,1.26-.02.03,0,.03,0,.04,0,.02,0,0,0,.03,0,.08-.02.16-.03.24-.04.17-.03.33-.07.5-.12.1-.03.19-.06.29-.09.02,0,.06-.02.1-.04.06-.03.26-.12.32-.16.14-.08.28-.16.41-.25.02,0,.05-.04.09-.07.03-.02.06-.05.07-.06.11-.1.23-.21.33-.32.04-.05.08-.1.13-.14.14-.25.3-.48.44-.73.02-.06.04-.12.06-.18.05-.14.09-.29.12-.43.02-.07.03-.15.05-.22,0,0,0,0,0,0,0-.12.02-.25.03-.37,0-.16,0-.31,0-.47,0-.07-.01-.15-.02-.23Z"/>
                <path class="cls-14" d="m556.25,1004.11c-6-54.21-47.03-101.65-103.88-104.44-29.88-1.47-58.07,10.05-87.01,15.21-21,3.74-44.36,2.99-61.39-9.86-5.6-4.23-10.22-8.93-14.66-13.62,3.41,3.77,6.88,7.48,10.59,10.95,9.87,9.26,21.3,16.71,34.48,20.23,17.25,4.6,34.87,1.7,52.3-.11,19.31-2,38.99-3.68,58.26-.41,18.91,3.21,36.27,12.06,49.8,25.71,11.14,11.24,19.25,26.17,19.43,42.27.19,16.71-8.64,31.59-21.27,42.03-7.59,6.27-16.14,11.11-25.8,13.28-9.07,2.04-18.46,1.79-27.56.08-19.21-3.61-36.97-13.21-53.18-23.79-.85-.55-.85-2.14.31-2.35,16.42-2.95,30.81-10.73,44.74-19.46-12.71,1.69-25.4,3.61-38.19,4.68-12.51,1.05-25.1,1.16-37.57-.51-12.73-1.71-25.12-5.29-36.94-10.31-20.15-8.56-38.2-21.14-57.76-30.85,3.49,4.35,6.9,8.79,9.52,13.72,3.58,6.73,5.18,14,4.16,21.58-.12.92-1.58,1.28-2.15.57-1.68-2.12-3.49-4.12-5.47-5.95-14.86-13.75-35.62-13.44-54.59-13.37-17.4.06-37.3-.13-51.24-12.15-10.86-9.36-13.08-23.83-11.17-37.38.23-1.62.54-3.23.86-4.84-10.48,26.79-14.06,57.56-10.82,82.84,1.34,10.47,3.36,20.81,5.96,30.98,6.09-9.19,14.82-16.83,23.53-23.26,17-12.53,41.48-25.75,62.51-14.86,9.92,5.14,15.47,15.83,14.21,26.91-.58,5.06-2.08,9.88-4.05,14.54,6.22-5.7,13.1-10.69,20.41-14.74,6.37-3.52,13.2-6.36,20.31-7.95,6.42-1.44,13.44-2.16,19.9-.59,5.08,1.24,9.54,4.11,12.55,8.42,2.98,4.28,4.26,9.53,4.64,14.66.46,6.09-.55,12.09-1.65,18.06-1.52,8.27-3.82,16.37-6.51,24.33-2.03,6.03-4.29,11.97-6.65,17.87,6.07-10.04,12.52-19.85,19.54-29.25,11-14.71,25.34-33.01,46.01-30.24,16.9,2.27,27.97,17.67,32.34,33.07,2.52,8.88,2.97,18.09,1.06,27.14-1.32,6.26-3.53,12.29-5.9,18.21-2.33,5.82-4.6,11.67-6.91,17.5-.39.99-.8,1.98-1.19,2.97.2-.24.4-.48.6-.71,3.58-4.24,7.24-8.43,10.58-12.86,5.06-6.72,9.51-13.9,14.78-20.45,4.71-5.85,10.85-11.37,18.37-13.13,5.24-1.23,10.36.25,14.16,4.05,3.94,3.95,6.23,9.39,7.79,14.66,4.29,14.51,3.14,29.73-.04,44.35-1,4.61-2.22,9.15-3.52,13.67,32.7-9.55,64.2-32.75,83.83-67.93,15.89-28.49,23.35-64.84,19.55-99.19Z"/>
                <path class="cls-15" d="m551.29,1053.75c-5.86,9.68-12.98,18.71-21.28,26.42-8.74,8.11-19.24,15.26-30.39,19.57-11.16,4.32-22.65,3.83-33.57-.98-5.86-2.58-10.82-6.42-17.15-7.86-5.46-1.25-11.08-1.56-16.62-2.32-4.78-.66-9.86-1.6-13.87-4.47-3.85-2.76-4.87-6.51-5.7-11-.43-2.31-.68-4.77-1.51-6.98-1.1-2.91-3-5.68-4.86-8.15-4.06-5.39-9.28-9.98-15.06-13.44-9.28-5.56-20.4-8.1-31.16-8-10.75.1-21.92,3.1-29.56,11.04-.95.99-2.36-.06-2.15-1.25,1.47-8.04,2.16-17.13-1.36-24.77-5.07-11-17.52-13.62-28.56-13.26-13.76.45-27.41,4.62-40.06,9.79-.78.32-1.65-.48-1.63-1.24.16-5.91-1.26-11.68-4.84-16.46-3.3-4.4-8.03-7.56-13.04-9.71-10.1-4.32-21.72-5.06-32.45-3.13-7.31,1.32-14.4,3.78-21.04,7.08-5.71,2.83-11.78,6.16-16.42,10.6-7.73,7.4-13.43,16.86-19.65,25.48-1.3,1.8-2.62,3.61-3.98,5.38.22.92.43,1.85.66,2.76,6.09-9.19,14.82-16.83,23.53-23.26,17-12.53,41.48-25.75,62.51-14.86,9.92,5.14,15.47,15.83,14.21,26.91-.58,5.06-2.08,9.88-4.05,14.54,6.22-5.7,13.1-10.69,20.41-14.74,6.37-3.52,13.2-6.36,20.31-7.95,6.42-1.44,13.44-2.16,19.9-.59,5.08,1.24,9.54,4.11,12.55,8.42,2.98,4.28,4.26,9.53,4.64,14.66.46,6.09-.55,12.09-1.65,18.06-1.52,8.27-3.82,16.37-6.51,24.33-2.03,6.03-4.29,11.97-6.65,17.87,6.07-10.04,12.52-19.85,19.54-29.25,11-14.71,25.34-33.01,46.01-30.24,16.9,2.27,27.97,17.67,32.34,33.07,2.52,8.88,2.97,18.09,1.06,27.14-1.32,6.26-3.53,12.29-5.9,18.21-2.33,5.82-4.6,11.67-6.91,17.5-.39.99-.8,1.98-1.19,2.97.2-.24.4-.48.6-.71,3.58-4.24,7.24-8.43,10.58-12.86,5.06-6.72,9.51-13.9,14.78-20.45,4.71-5.85,10.85-11.37,18.37-13.13,5.24-1.23,10.36.25,14.16,4.05,3.94,3.95,6.23,9.39,7.79,14.66,4.29,14.51,3.14,29.73-.04,44.35-1,4.61-2.22,9.15-3.52,13.67,32.7-9.55,64.2-32.75,83.83-67.93,9.43-16.9,15.86-36.58,18.76-56.96-1.32,2.53-2.72,5.01-4.17,7.41Z"/>
                <path class="cls-22" d="m258.44,1013.75c-2.06-5.56-8.24-9.46-12.96-12.61-5.65-3.77-11.7-6.82-18-9.34-7.77-3.11-15.98-5.02-24.36-5.45-9.32-.48-18.49,1.03-27.65,2.49-.93.15-1.3,1.61-.1,1.49,16.31-1.71,33.83.1,49.03,6.41,5.76,2.39,11.43,5.15,16.91,8.11,5.46,2.95,10.11,6.64,15,10.4.78.6,2.48-.52,2.12-1.49Z"/>
                <path class="cls-22" d="m386.09,1044.74c-6.14-3.73-12.84-6.86-19.6-9.28-3.21-1.15-6.47-2.28-9.79-3.11-3.1-.78-6.59-1.95-9.8-1.65-.47.04-1.28.67-.71,1.14,2.12,1.75,5.27,2.36,7.78,3.4,2.96,1.22,5.95,2.35,8.88,3.64,6.52,2.87,12.82,6.07,18.95,9.72,5.94,3.54,11.77,7.46,17.02,11.97,5.51,4.74,9.78,10.27,13.76,16.31.35.53,1.38-.13,1.21-.68-4.23-13.36-16.04-24.38-27.69-31.46Z"/>
                <path class="cls-22" d="m466.47,1115.53c-2.3-5.38-5.15-10.5-8.4-15.36-3.1-4.63-6.82-8.93-11.12-12.48-2.03-1.67-4.18-3.21-6.51-4.43-2.38-1.25-4.81-1.55-7.33-2.26-.64-.18-1.54.84-.74,1.18,1.92.81,3.74,2.63,5.37,3.9,2,1.56,3.9,3.23,5.63,5.09,3.75,4.04,6.97,8.54,9.95,13.17,2.99,4.63,5.53,9.54,8.02,14.46,2.21,4.37,3.99,9.07,6.59,13.22.94,1.51,3.16-.45,3.04-1.71-.49-5.11-2.51-10.09-4.51-14.78Z"/>
              </g>
              <g>
                <path class="cls-5" d="m1022.67,365.36l-66.22,66.4s5.35,25.9,34.41,28.79l83.39-82.92s14.53-14.43,12.35-20.92c-2.18-6.49-28.34-35.35-63.94,8.66Z"/>
                <path class="cls-23" d="m991.3,461.76l-.55-.05c-29.57-2.94-35.38-29.45-35.43-29.72l-.13-.61,66.62-66.8c18.61-22.98,34.42-25.67,44.4-23.87,12.33,2.22,20.27,11.94,21.51,15.62,2.34,6.98-11.1,20.59-12.63,22.12l-83.78,83.31Zm-33.55-29.64c.99,3.89,7.41,24.41,32.69,27.2l83-82.53c5.42-5.38,13.49-15.5,12.07-19.72-1.07-3.19-8.51-12.05-19.71-14.07-13.45-2.42-28.04,5.57-42.21,23.09l-.08.09-65.76,65.94Z"/>
              </g>
              <path class="cls-6" d="m1086.61,356.7c-2.18-6.49-28.34-35.35-63.94,8.66l-16.48,16.52c7.81.64,17.33,2.84,20.94,10.53,2.22,4.72,1.38,9.14-1.85,13.14-3.7,4.57-18.75,25.64-24.59,25.95-6.42.34-15.75-9.96-22.11-10.43-6.04-.44-11.17,1.38-15.78,4.31l-6.35,6.36s5.35,25.9,34.41,28.79l83.39-82.92s14.53-14.43,12.35-20.92Z"/>
              <g>
                <path class="cls-1" d="m985.76,432.52c9.5,8.18,11.79,21.11,5.1,28.87-6.68,7.76-19.8,7.42-29.3-.77-9.5-8.18-11.79-21.11-5.1-28.87,6.68-7.76,19.8-7.42,29.3.77Z"/>
                <path class="cls-23" d="m977.82,468.14c-5.74,0-11.9-2.22-17.02-6.64-9.97-8.59-12.32-22.28-5.23-30.51,3.46-4.02,8.6-6.16,14.51-6,5.8.15,11.64,2.51,16.44,6.64h0c4.8,4.13,8,9.56,9.01,15.27,1.03,5.81-.32,11.22-3.78,15.24-3.45,4-8.5,5.99-13.93,5.99Zm-8.33-40.82c-4.96,0-9.25,1.83-12.15,5.2-6.25,7.26-4.02,19.47,4.98,27.22,9,7.75,21.41,8.15,27.66.89,3-3.48,4.15-8.21,3.25-13.31-.92-5.19-3.84-10.13-8.23-13.91h0c-4.39-3.78-9.71-5.94-14.98-6.08-.18,0-.35,0-.53,0Z"/>
              </g>
              <path class="cls-5" d="m981.39,437.6c6.99,6.02,8.67,15.52,3.75,21.23-4.91,5.71-14.56,5.45-21.55-.56-6.99-6.02-8.67-15.52-3.75-21.23,4.91-5.71,14.56-5.45,21.55.56Z"/>
              <g>
                <path class="cls-21" d="m942.34,488.86c13.36-13.04,26.45-26.11,38.78-38.61-.34-3.21-2.06-6.45-4.28-8.48-1.9-1.74-4.11-2.43-6.67-2.13-.75.09-1.49.26-2.23.46-12.34,12.49-25.4,25.52-38.7,38.47,4.32,3.49,8.69,6.91,13.1,10.29Z"/>
                <path class="cls-26" d="m942.44,490.4l-.8-.62c-4.84-3.71-9.13-7.08-13.12-10.3l-1.02-.83.94-.92c12.3-11.99,25.32-24.93,38.68-38.46l.22-.22.3-.08c.91-.25,1.67-.4,2.39-.49,2.9-.34,5.46.47,7.59,2.43,2.51,2.29,4.29,5.83,4.65,9.22l.06.55-.39.39c-13.3,13.49-26.35,26.49-38.79,38.62l-.72.71Zm-11.43-11.91c3.46,2.78,7.16,5.68,11.25,8.82,12.08-11.8,24.74-24.4,37.63-37.48-.43-2.65-1.9-5.43-3.84-7.2-1.63-1.5-3.5-2.09-5.74-1.83-.53.06-1.1.17-1.76.34-12.96,13.12-25.58,25.67-37.55,37.34Z"/>
              </g>
              <g>
                <path class="cls-2" d="m930.43,356.98s118.3,8.55,187.05,103.56l49.55-50.49s-97.87-115-188.68-101.93l-47.92,48.85Z"/>
                <path class="cls-16" d="m1117.35,462.35l-.81-1.12c-67.65-93.5-185.01-103-186.19-103.08l-2.52-.18,49.97-50.93.39-.06c90.41-13.01,188.76,101.17,189.74,102.33l.69.81-51.27,52.24Zm-184.38-106.29c17.32,1.92,121.75,16.87,184.64,102.68l47.83-48.73c-8.97-10.2-101.53-112.68-186.54-100.78l-45.94,46.83Z"/>
              </g>
              <path class="cls-10" d="m1041.98,316.92c4.5,3.46,8.3,7.9,8.34,13.46.03,4.91-4.46,8.75-7.93,11.61-4.12,3.4-8.55,6.36-12.57,9.89-5.12,4.5-10.03,9.33-15.77,13.07-2.78,1.81-5.8,3.36-9,4.27-3.53,1-7.3.95-10.94.8-2.11-.09-4.23-.26-6.34-.47,7.63,2.5,15.72,5.47,24.08,9.02,2.76-2.46,5.53-4.91,8.28-7.38,15.53-13.98,30.9-28.3,44.93-43.81-7.5-3.94-15.22-7.47-23.08-10.45Z"/>
              <path class="cls-10" d="m1074.28,411.04c-2.49-7.93,3.97-14.86,9.47-19.64,2.99-2.61,6.21-4.95,9.28-7.46,3.5-2.86,6.41-6.31,9.74-9.36,3.35-3.05,6.98-5.28,11.52-5.94,3.73-.54,7.51-.23,11.15.65-7.03-6.02-14.72-12.24-23.01-18.32-.97.85-1.95,1.69-2.92,2.54-16.51,14.54-32.81,29.54-47.29,46.16,8.97,5.7,17.89,12.16,26.58,19.45-1.91-2.45-3.58-5.05-4.53-8.07Z"/>
            </g>
            <g>
              <g>
                <path class="cls-21" d="m933.83,493.57l-9.16-9.42c-1.04,1.01-25.79,25.19-52.9,60.68-36.65,47.97-58.7,91.46-65.54,129.26-7.65,42.27-4.69,85.83-1.83,127.95,1.84,27.07,3.74,55.07,2.72,82.07-2.73,72.45-8.55,125.24-60.38,185.78.9,2.6,2.69,4.89,5.26,6.52,1.47.93,3.07,1.57,4.74,2,54.45-63.69,60.77-120.86,63.52-193.8,1.04-27.69-.88-56.04-2.75-83.46-2.81-41.32-5.71-84.06,1.65-124.72,15.48-85.52,113.69-181.9,114.68-182.86Z"/>
                <path class="cls-26" d="m757.14,1079.72l-.7-.18c-1.87-.47-3.57-1.19-5.07-2.14-2.75-1.74-4.73-4.2-5.74-7.13l-.22-.63.44-.51c51.71-60.41,57.37-112.49,60.1-185.06,1.02-26.9-.88-54.83-2.71-81.85-2.88-42.3-5.84-85.93,1.84-128.34,6.88-37.98,29-81.64,65.76-129.76,27.1-35.47,51.97-59.79,53.02-60.81l.84-.81,10.79,11.09-.84.81c-.99.96-98.94,97.13-114.34,182.23-7.33,40.52-4.44,83.17-1.64,124.43,1.86,27.44,3.79,55.81,2.75,83.58-2.77,73.44-8.97,130.38-63.8,194.52l-.47.55Zm-9.08-9.59c.89,2.15,2.45,3.98,4.55,5.3,1.1.7,2.35,1.26,3.7,1.66,53.89-63.33,60.01-119.77,62.75-192.52,1.04-27.65-.88-55.96-2.75-83.33-2.81-41.4-5.72-84.2,1.67-125,14.77-81.62,104.55-173.06,114.18-182.67l-7.53-7.75c-4.65,4.61-27.38,27.56-51.95,59.74-36.54,47.82-58.51,91.14-65.32,128.76-7.63,42.13-4.67,85.61-1.81,127.66,1.84,27.17,3.74,55.17,2.72,82.2-2.74,72.85-8.43,125.21-60.21,185.97Z"/>
              </g>
              <g>
                <path class="cls-2" d="m822.48,466.86s101.39,26.53,161.52,105.57l45.51-46.37s-89.88-105.62-173.28-93.61l-33.75,34.41Z"/>
                <path class="cls-16" d="m983.89,574.21l-.82-1.08c-59.21-77.81-159.88-104.88-160.89-105.14l-1.95-.51,35.44-36.13.39-.06c83.11-11.96,173.43,92.94,174.34,94.01l.69.81-47.2,48.09Zm-159.2-107.94c14.24,4.16,104.2,32.69,159.42,104.38l43.81-44.63c-8.55-9.72-93.26-103.31-171.13-92.46l-32.1,32.72Z"/>
              </g>
              <path class="cls-10" d="m904.49,499.32c14.46-14.47,30.56-27.16,45.53-41.08-2.41-1.48-4.84-2.93-7.3-4.34-.18.16-.37.31-.55.47-11.17,9.8-21.88,20.1-32.81,30.16-2.51,2.31-4.98,4.65-7.47,6.98-1.84,1.73-3.76,3.5-5.99,4.72-.62.34-1.24.61-1.87.82,2.69,1.49,5.41,3.07,8.15,4.68.78-.8,1.52-1.63,2.31-2.42Z"/>
              <path class="cls-10" d="m937.29,525.15c-1.36-3.07-2.04-6.35-.82-9.58,1.31-3.47,3.74-6.47,6.14-9.24,5.3-6.12,11.47-11.42,17.14-17.18,3.44-3.49,7.83-6.1,12.73-6.76,4.51-.61,8.98.42,13.13,2.17.64.27,1.26.59,1.88.89-7.01-5.85-14.66-11.82-22.87-17.58-.56.57-1.15,1.12-1.71,1.7-8.87,9.15-17.2,18.76-27.03,26.92-5.98,4.97-12.16,9.86-17.72,15.35,6.53,4.36,13.09,9.12,19.58,14.22-.15-.31-.33-.6-.47-.91Z"/>
            </g>
          </g>
        </g>
        <g>
          <g>
            <path class="cls-24" d="m3523.99,440.85c-45.12-116.05-190.87-172.14-306.17-136.65-62.4,19.21-113.86,62.51-154.37,115.78-36.33-56.21-84.34-103.31-145.09-127.22-112.26-44.19-261.86.61-315.71,112.88-36.36,75.8-30.21,166.07-7.87,244.92,48.06,169.61,172.19,311.86,325.18,398.48,37.62,21.3,77,39.2,117.41,53.35,41.37-11.03,82-25.87,121.14-44.24,159.15-74.69,293.77-207.06,354.64-372.51,28.29-76.91,41.31-166.45,10.84-244.8Z"/>
            <path class="cls-27" d="m3037.37,1105.9c-.39,0-.78-.07-1.16-.2-40.52-14.19-80.21-32.22-117.98-53.61-161.47-91.42-280.59-237.43-326.83-400.58-18.73-66.11-32.54-162.7,8.08-247.39,25.91-54.02,74.92-95.55,137.98-116.92,60.23-20.41,126.62-19.57,182.17,2.29,55.39,21.81,103.83,63.66,144.04,124.44,44.73-57.53,96.22-95.57,153.11-113.08,57.05-17.56,123.32-13.33,181.81,11.62,61.26,26.12,106.95,71.26,128.66,127.11h0c34.04,87.54,12.9,182.79-10.82,247.28-58.55,159.15-188.46,295.64-356.44,374.47-39.29,18.44-80.25,33.4-121.73,44.45-.3.08-.6.12-.9.12Zm-210.5-826.42c-29.2,0-58.86,4.78-87.15,14.36-61.27,20.76-108.82,61-133.91,113.31-21.9,45.65-41,124.77-7.65,242.44,45.73,161.39,163.66,305.87,323.54,396.39,37.09,21,76.05,38.74,115.82,52.74,40.72-10.92,80.93-25.63,119.51-43.74,166.32-78.06,294.93-213.12,352.84-370.54,42.23-114.78,29.22-195.13,10.87-242.32-21.02-54.07-65.37-97.82-124.88-123.2-57-24.31-121.51-28.45-177-11.37-56.75,17.47-108.1,56.01-152.61,114.55-.69.91-1.69,1.43-2.93,1.38-1.14-.05-2.19-.64-2.81-1.6-39.92-61.77-88.18-104.12-143.43-125.87-27.99-11.02-58.82-16.54-90.2-16.54Z"/>
          </g>
          <path class="cls-7" d="m2702.43,801.03c11.67,10.13,24,19.46,36.99,27.67,13.13,8.31,27.13,15.68,42.04,20.24,19.04,5.82,39.27,8.36,59.16,7.74,38.18-1.19,74.48-14.98,106.91-34.53,68.04-41.02,118.39-103.4,177.01-155.74,65.27-58.28,148.71-110.8,239.96-100.94,21.4,2.31,42.15,7.17,61.24,17.39,18.62,9.97,35.45,24.51,46.71,42.5,4.85,7.74,8.39,15.79,10.97,24.06,16.73-60.68,20.93-126.67-2.02-185.7-41.04-105.56-173.6-156.57-278.48-124.28-56.76,17.47-103.56,56.85-140.41,105.31-33.05-51.13-76.71-93.96-131.97-115.72-102.11-40.19-238.17.56-287.15,102.67-33.07,68.94-27.48,151.05-7.16,222.76,14.74,52.02,37.37,101.19,66.2,146.56Z"/>
          <path class="cls-3" d="m2846.04,359.31c-3.52-7.09-9.2-12.92-16.42-16.23-15.12-6.93-33.36-3.43-48.52,1.5-2.81.91-5.59,1.93-8.36,3-.07.03-.14.06-.21.09-13.9,6.7-26.6,16.13-36.99,27.48-11.56,12.64-20.43,28.24-23.6,45.19-1.53,8.18-1.72,16.95,1.33,24.82,3.24,8.37,10.09,14.2,18.25,17.6,18.82,7.85,40.74.22,57.44-8.61,14.84-7.86,28.08-18.48,39.11-31.16,10.04-11.54,18.93-25.36,21.26-40.59,1.2-7.88.29-15.92-3.28-23.1Z"/>
          <path class="cls-3" d="m2686.78,479.88c-3.48-1.88-7.48-2.63-11.39-1.9-8.17,1.53-14.62,8.21-19.39,14.6-.88,1.18-1.73,2.4-2.55,3.64-.02.03-.04.06-.06.1-3.75,6.74-6.22,14.25-7.19,21.89-1.08,8.49-.22,17.43,3.38,25.27,1.73,3.78,4.18,7.42,7.69,9.76,3.74,2.49,8.21,2.89,12.53,1.93,9.95-2.21,16.71-11.65,20.99-20.07,3.8-7.49,6.15-15.64,7-24,.78-7.61.43-15.82-3.01-22.71-1.78-3.57-4.47-6.59-7.99-8.49Z"/>
        </g>
      </g>
    </g>
  </g>
</svg>